{"glyphs":{"0":{"ha":1299,"x_min":54,"x_max":1246,"o":"m 650 -24 q 335 44 469 -24 q 128 235 201 113 q 54 521 54 357 q 128 807 54 685 q 335 997 201 929 q 650 1065 469 1065 q 963 997 829 1065 q 1172 807 1097 929 q 1246 521 1246 685 q 1172 235 1246 357 q 963 44 1097 113 q 650 -24 829 -24 m 650 238 q 852 312 781 238 q 924 521 924 386 q 852 731 924 657 q 650 804 781 804 q 448 731 521 804 q 375 521 375 657 q 448 312 375 386 q 650 238 521 238 z "},"1":{"ha":744,"x_min":21,"x_max":649,"o":"m 649 1042 l 649 0 l 329 0 l 329 926 l 475 792 l 21 713 l 21 960 l 413 1042 l 649 1042 z "},"2":{"ha":1181,"x_min":43,"x_max":1121,"o":"m 43 661 q 127 877 53 786 q 325 1017 201 968 q 603 1065 449 1065 q 860 1021 750 1065 q 1032 898 971 976 q 1093 715 1093 819 q 1048 564 1093 633 q 908 428 1003 494 q 663 294 814 363 l 397 172 l 390 253 l 1121 253 l 1121 0 l 69 0 l 69 222 l 518 468 q 674 560 619 524 q 750 628 728 597 q 772 696 772 660 q 751 761 772 733 q 690 804 731 789 q 590 819 649 819 q 466 798 514 819 q 394 740 418 776 q 364 661 369 704 l 43 661 z "},"3":{"ha":1181,"x_min":35,"x_max":1125,"o":"m 61 700 q 132 883 68 800 q 317 1015 196 965 q 613 1065 438 1065 q 871 1028 761 1065 q 1041 926 981 992 q 1101 771 1101 860 q 1059 643 1101 701 q 924 551 1017 585 q 682 518 832 517 l 682 547 q 919 530 821 554 q 1072 449 1018 506 q 1125 304 1125 393 q 1063 135 1125 210 q 881 19 1000 61 q 590 -24 761 -24 q 300 22 424 -24 q 108 151 176 67 q 35 347 39 235 l 356 347 q 421 255 365 288 q 590 222 476 222 q 742 250 689 222 q 796 329 796 278 q 779 380 796 360 q 719 410 763 400 q 597 419 675 419 l 421 419 l 421 632 l 597 632 q 739 657 700 632 q 778 724 778 682 q 731 795 778 771 q 594 819 685 819 q 444 788 496 819 q 383 700 393 757 l 61 700 z "},"4":{"ha":1222,"x_min":35,"x_max":1174,"o":"m 1017 1042 l 1017 0 l 697 0 l 697 899 l 789 899 l 267 322 l 265 421 l 1174 421 l 1174 186 l 35 186 l 35 413 l 608 1042 l 1017 1042 z "},"5":{"ha":1135,"x_min":39,"x_max":1086,"o":"m 171 1042 l 1006 1042 l 1006 807 l 265 807 l 392 857 l 335 504 l 258 504 q 341 600 289 557 q 470 669 393 643 q 651 694 547 694 q 882 651 785 694 q 1033 532 979 608 q 1086 354 1086 456 q 1025 158 1086 243 q 848 25 964 74 q 569 -24 732 -24 q 295 22 413 -24 q 112 147 178 68 q 39 321 46 225 l 358 321 q 424 250 369 278 q 569 222 479 222 q 674 238 631 222 q 742 284 718 254 q 765 356 765 314 q 743 425 765 394 q 678 472 721 456 q 574 489 635 489 q 481 478 522 489 q 409 451 439 468 q 357 414 379 433 l 76 414 l 171 1042 z "},"6":{"ha":1204,"x_min":57,"x_max":1151,"o":"m 631 1065 q 877 1023 769 1065 q 1051 909 985 981 q 1131 747 1117 838 l 835 747 q 769 810 817 785 q 639 835 722 835 q 481 800 544 835 q 387 699 418 765 q 356 535 356 632 q 390 353 356 425 q 488 244 424 281 q 643 208 551 208 q 744 225 703 208 q 807 269 786 242 q 828 331 828 297 q 808 395 828 368 q 747 436 788 422 q 649 450 707 450 q 496 417 569 450 q 357 315 422 385 l 253 385 q 361 538 294 472 q 520 642 428 604 q 731 681 613 681 q 956 638 863 681 q 1101 518 1050 594 q 1151 342 1151 442 q 1092 153 1151 236 q 918 24 1032 71 q 638 -24 804 -24 q 313 46 442 -24 q 120 238 183 115 q 57 519 57 361 q 121 801 57 678 q 313 995 185 925 q 631 1065 440 1065 z "},"7":{"ha":1068,"x_min":21,"x_max":1031,"o":"m 163 0 l 733 878 l 733 789 l 21 789 l 21 1042 l 1031 1042 l 1031 785 l 536 0 l 163 0 z "},"8":{"ha":1257,"x_min":56,"x_max":1201,"o":"m 629 1065 q 1033 985 894 1065 q 1172 763 1172 906 q 1053 575 1172 638 q 721 521 933 513 l 721 549 q 1075 501 949 568 q 1201 290 1201 435 q 1056 57 1201 138 q 629 -24 910 -24 q 202 57 349 -24 q 56 290 56 138 q 183 501 56 435 q 536 549 310 568 l 536 521 q 204 575 324 513 q 85 763 85 638 q 224 985 85 906 q 629 1065 364 1065 m 629 219 q 813 245 750 219 q 875 321 875 271 q 813 394 875 369 q 629 419 750 419 q 446 394 508 419 q 383 321 383 369 q 446 245 383 271 q 629 219 508 219 m 629 636 q 751 647 701 636 q 826 678 800 657 q 851 729 851 699 q 794 798 851 774 q 629 822 738 822 q 463 798 519 822 q 406 729 406 774 q 431 678 406 699 q 506 647 457 657 q 629 636 556 636 z "},"9":{"ha":1204,"x_min":53,"x_max":1150,"o":"m 574 -24 q 327 19 435 -24 q 154 133 219 61 q 75 294 89 206 l 369 294 q 436 232 389 257 q 565 207 483 207 q 724 242 663 207 q 817 344 786 276 q 849 507 849 411 q 815 689 849 617 q 717 797 782 761 q 563 833 653 833 q 460 817 501 833 q 398 773 419 800 q 376 711 376 746 q 397 647 376 674 q 458 606 418 621 q 557 592 499 592 q 710 624 636 592 q 847 726 783 657 l 953 657 q 844 504 911 571 q 685 399 778 438 q 474 361 593 361 q 249 404 343 361 q 104 524 154 447 q 53 700 54 600 q 113 888 54 806 q 287 1018 172 971 q 568 1065 401 1065 q 892 996 764 1065 q 1085 803 1021 926 q 1149 522 1150 681 q 1085 240 1150 364 q 893 47 1021 117 q 574 -24 765 -24 z "},"A":{"ha":1357,"x_min":-1,"x_max":1358,"o":"m 315 188 l 315 446 l 1029 446 l 1029 188 l 315 188 m 892 1042 l 1358 0 l 1013 0 l 635 901 l 722 901 l 343 0 l -1 0 l 464 1042 l 892 1042 z "},"Á":{"ha":1357,"x_min":-1,"x_max":1358,"o":"m 315 188 l 315 446 l 1029 446 l 1029 188 l 315 188 m 892 1042 l 1358 0 l 1013 0 l 635 901 l 722 901 l 343 0 l -1 0 l 464 1042 l 892 1042 m 696 1358 l 1054 1358 l 808 1117 l 492 1117 l 696 1358 z "},"Ă":{"ha":1357,"x_min":-1,"x_max":1358,"o":"m 315 188 l 315 446 l 1029 446 l 1029 188 l 315 188 m 892 1042 l 1358 0 l 1013 0 l 635 901 l 722 901 l 343 0 l -1 0 l 464 1042 l 892 1042 m 307 1365 l 547 1365 q 601 1313 568 1331 q 678 1296 633 1296 q 756 1313 724 1296 q 810 1365 789 1331 l 1050 1365 q 915 1168 1013 1232 q 678 1104 817 1104 q 443 1168 542 1104 q 307 1365 344 1232 z "},"Ắ":{"ha":1357,"x_min":-1,"x_max":1358,"o":"m 315 188 l 315 446 l 1029 446 l 1029 188 l 315 188 m 892 1042 l 1358 0 l 1013 0 l 635 901 l 722 901 l 343 0 l -1 0 l 464 1042 l 892 1042 m 678 1626 l 963 1626 l 786 1396 l 544 1396 l 678 1626 m 307 1365 l 547 1365 q 600 1313 568 1331 q 678 1296 632 1296 q 756 1313 724 1296 q 810 1365 788 1331 l 1049 1365 q 915 1168 1013 1232 q 678 1104 817 1104 q 442 1168 540 1104 q 307 1365 344 1232 z "},"Ặ":{"ha":1357,"x_min":-1,"x_max":1358,"o":"m 315 188 l 315 446 l 1029 446 l 1029 188 l 315 188 m 892 1042 l 1358 0 l 1013 0 l 635 901 l 722 901 l 343 0 l -1 0 l 464 1042 l 892 1042 m 678 -361 q 547 -321 597 -361 q 497 -212 497 -281 q 547 -103 497 -143 q 678 -62 597 -62 q 810 -103 761 -62 q 860 -212 860 -143 q 810 -321 860 -281 q 678 -361 761 -361 m 307 1365 l 547 1365 q 601 1313 568 1331 q 678 1296 633 1296 q 756 1313 724 1296 q 810 1365 789 1331 l 1050 1365 q 915 1168 1013 1232 q 678 1104 817 1104 q 443 1168 542 1104 q 307 1365 344 1232 z "},"Ằ":{"ha":1357,"x_min":-1,"x_max":1358,"o":"m 315 188 l 315 446 l 1029 446 l 1029 188 l 315 188 m 892 1042 l 1358 0 l 1013 0 l 635 901 l 722 901 l 343 0 l -1 0 l 464 1042 l 892 1042 m 672 1626 l 806 1396 l 564 1396 l 388 1626 l 672 1626 m 307 1365 l 547 1365 q 600 1313 568 1331 q 678 1296 632 1296 q 756 1313 724 1296 q 810 1365 788 1331 l 1049 1365 q 915 1168 1013 1232 q 678 1104 817 1104 q 442 1168 540 1104 q 307 1365 344 1232 z "},"Ẳ":{"ha":1357,"x_min":-1,"x_max":1358,"o":"m 315 188 l 315 446 l 1029 446 l 1029 188 l 315 188 m 892 1042 l 1358 0 l 1013 0 l 635 901 l 722 901 l 343 0 l -1 0 l 464 1042 l 892 1042 m 664 1376 l 610 1450 q 667 1479 649 1464 q 685 1510 685 1494 q 610 1549 685 1549 q 568 1547 590 1549 q 524 1539 546 1544 l 524 1697 q 597 1711 551 1704 q 694 1718 642 1718 q 874 1680 810 1718 q 938 1575 938 1642 q 869 1456 938 1506 q 664 1376 800 1406 m 307 1365 l 547 1365 q 600 1313 568 1331 q 678 1296 632 1296 q 756 1313 724 1296 q 810 1365 788 1331 l 1049 1365 q 915 1168 1013 1232 q 678 1104 817 1104 q 442 1168 540 1104 q 307 1365 344 1232 z "},"Ẵ":{"ha":1357,"x_min":-1,"x_max":1358,"o":"m 315 188 l 315 446 l 1029 446 l 1029 188 l 315 188 m 892 1042 l 1358 0 l 1013 0 l 635 901 l 722 901 l 343 0 l -1 0 l 464 1042 l 892 1042 m 338 1415 q 394 1592 343 1525 q 542 1660 446 1660 q 618 1650 585 1660 q 677 1627 651 1640 q 724 1603 703 1614 q 765 1592 746 1592 q 808 1609 793 1592 q 828 1658 822 1626 l 1018 1658 q 961 1478 1013 1544 q 814 1413 910 1413 q 738 1423 771 1413 q 678 1447 704 1433 q 631 1471 653 1461 q 589 1481 610 1481 q 547 1463 563 1481 q 526 1415 532 1446 l 338 1415 m 307 1365 l 547 1365 q 600 1313 568 1331 q 678 1296 632 1296 q 756 1313 724 1296 q 810 1365 788 1331 l 1049 1365 q 915 1168 1013 1232 q 678 1104 817 1104 q 442 1168 540 1104 q 307 1365 344 1232 z "},"Ǎ":{"ha":1357,"x_min":-1,"x_max":1358,"o":"m 315 188 l 315 446 l 1029 446 l 1029 188 l 315 188 m 892 1042 l 1358 0 l 1013 0 l 635 901 l 722 901 l 343 0 l -1 0 l 464 1042 l 892 1042 m 844 1115 l 513 1115 l 299 1357 l 554 1357 l 753 1213 l 604 1213 l 803 1357 l 1057 1357 l 844 1115 z "},"Â":{"ha":1357,"x_min":-1,"x_max":1358,"o":"m 315 188 l 315 446 l 1029 446 l 1029 188 l 315 188 m 892 1042 l 1358 0 l 1013 0 l 635 901 l 722 901 l 343 0 l -1 0 l 464 1042 l 892 1042 m 513 1358 l 844 1358 l 1057 1117 l 801 1117 l 604 1261 l 753 1261 l 554 1117 l 299 1117 l 513 1358 z "},"Ấ":{"ha":1357,"x_min":-1,"x_max":1358,"o":"m 315 188 l 315 446 l 1029 446 l 1029 188 l 315 188 m 892 1042 l 1358 0 l 1013 0 l 635 901 l 722 901 l 343 0 l -1 0 l 464 1042 l 892 1042 m 1060 1536 l 1344 1536 l 1168 1306 l 926 1306 l 1060 1536 m 513 1358 l 844 1358 l 1058 1117 l 803 1117 l 604 1261 l 753 1261 l 554 1117 l 300 1117 l 513 1358 z "},"Ậ":{"ha":1357,"x_min":-1,"x_max":1358,"o":"m 315 188 l 315 446 l 1029 446 l 1029 188 l 315 188 m 892 1042 l 1358 0 l 1013 0 l 635 901 l 722 901 l 343 0 l -1 0 l 464 1042 l 892 1042 m 678 -361 q 547 -321 597 -361 q 497 -212 497 -281 q 547 -103 497 -143 q 678 -62 597 -62 q 810 -103 761 -62 q 860 -212 860 -143 q 810 -321 860 -281 q 678 -361 761 -361 m 513 1358 l 844 1358 l 1057 1117 l 801 1117 l 604 1261 l 753 1261 l 554 1117 l 299 1117 l 513 1358 z "},"Ầ":{"ha":1357,"x_min":-1,"x_max":1358,"o":"m 315 188 l 315 446 l 1029 446 l 1029 188 l 315 188 m 892 1042 l 1358 0 l 1013 0 l 635 901 l 722 901 l 343 0 l -1 0 l 464 1042 l 892 1042 m 1068 1536 l 1201 1306 l 960 1306 l 783 1536 l 1068 1536 m 513 1358 l 844 1358 l 1058 1117 l 803 1117 l 604 1261 l 753 1261 l 554 1117 l 300 1117 l 513 1358 z "},"Ẩ":{"ha":1357,"x_min":-1,"x_max":1358,"o":"m 315 188 l 315 446 l 1029 446 l 1029 188 l 315 188 m 892 1042 l 1358 0 l 1013 0 l 635 901 l 722 901 l 343 0 l -1 0 l 464 1042 l 892 1042 m 992 1275 l 936 1349 q 993 1378 975 1363 q 1011 1410 1011 1393 q 936 1447 1011 1447 q 896 1445 918 1447 q 850 1438 874 1443 l 850 1596 q 924 1610 878 1604 q 1021 1617 969 1617 q 1200 1579 1136 1617 q 1264 1474 1264 1542 q 1196 1355 1264 1406 q 992 1275 1128 1304 m 513 1358 l 844 1358 l 1058 1117 l 803 1117 l 604 1261 l 753 1261 l 554 1117 l 300 1117 l 513 1358 z "},"Ẫ":{"ha":1357,"x_min":-1,"x_max":1358,"o":"m 315 188 l 315 446 l 1029 446 l 1029 188 l 315 188 m 892 1042 l 1358 0 l 1013 0 l 635 901 l 722 901 l 343 0 l -1 0 l 464 1042 l 892 1042 m 335 1413 q 393 1590 342 1522 q 540 1658 444 1658 q 617 1648 583 1658 q 675 1624 650 1638 q 722 1601 700 1611 q 764 1590 744 1590 q 806 1607 790 1590 q 826 1656 821 1624 l 1017 1656 q 959 1476 1011 1542 q 811 1410 907 1410 q 735 1421 768 1410 q 676 1445 701 1432 q 628 1468 650 1458 q 588 1478 607 1478 q 545 1461 560 1478 q 525 1413 531 1444 l 335 1413 m 513 1358 l 844 1358 l 1057 1117 l 801 1117 l 604 1261 l 753 1261 l 554 1117 l 299 1117 l 513 1358 z "},"Ȁ":{"ha":1357,"x_min":-1,"x_max":1358,"o":"m 315 188 l 315 446 l 1029 446 l 1029 188 l 315 188 m 892 1042 l 1358 0 l 1013 0 l 635 901 l 722 901 l 343 0 l -1 0 l 464 1042 l 892 1042 m 835 1358 l 1007 1117 l 733 1117 l 533 1358 l 835 1358 m 450 1358 l 622 1117 l 347 1117 l 147 1358 l 450 1358 z "},"Ä":{"ha":1357,"x_min":-1,"x_max":1358,"o":"m 315 188 l 315 446 l 1029 446 l 1029 188 l 315 188 m 892 1042 l 1358 0 l 1013 0 l 635 901 l 722 901 l 343 0 l -1 0 l 464 1042 l 892 1042 m 460 1110 q 338 1147 383 1110 q 292 1253 292 1185 q 338 1354 292 1317 q 460 1392 383 1392 q 582 1354 536 1392 q 628 1253 628 1317 q 582 1147 628 1185 q 460 1110 536 1110 m 897 1110 q 775 1147 821 1110 q 729 1253 729 1185 q 775 1354 729 1317 q 897 1392 821 1392 q 1019 1354 974 1392 q 1065 1253 1065 1317 q 1019 1147 1065 1185 q 897 1110 974 1110 z "},"Ǟ":{"ha":1357,"x_min":-1,"x_max":1358,"o":"m 315 188 l 315 446 l 1029 446 l 1029 188 l 315 188 m 892 1042 l 1358 0 l 1013 0 l 635 901 l 722 901 l 343 0 l -1 0 l 464 1042 l 892 1042 m 460 1110 q 338 1147 383 1110 q 292 1253 292 1185 q 338 1354 292 1317 q 460 1392 383 1392 q 582 1354 536 1392 q 628 1253 628 1317 q 582 1147 628 1185 q 460 1110 536 1110 m 897 1110 q 775 1147 821 1110 q 729 1253 729 1185 q 775 1354 729 1317 q 897 1392 821 1392 q 1019 1354 974 1392 q 1065 1253 1065 1317 q 1019 1147 1065 1185 q 897 1110 974 1110 m 328 1451 l 328 1638 l 1031 1638 l 1031 1451 l 328 1451 z "},"Ȧ":{"ha":1357,"x_min":-1,"x_max":1358,"o":"m 315 188 l 315 446 l 1029 446 l 1029 188 l 315 188 m 892 1042 l 1358 0 l 1013 0 l 635 901 l 722 901 l 343 0 l -1 0 l 464 1042 l 892 1042 m 678 1110 q 547 1149 597 1110 q 497 1258 497 1189 q 547 1368 497 1328 q 678 1408 597 1408 q 810 1368 761 1408 q 860 1258 860 1328 q 810 1149 860 1189 q 678 1110 761 1110 z "},"Ạ":{"ha":1357,"x_min":-1,"x_max":1358,"o":"m 315 188 l 315 446 l 1029 446 l 1029 188 l 315 188 m 892 1042 l 1358 0 l 1013 0 l 635 901 l 722 901 l 343 0 l -1 0 l 464 1042 l 892 1042 m 678 -361 q 547 -321 597 -361 q 497 -212 497 -281 q 547 -103 497 -143 q 678 -62 597 -62 q 810 -103 761 -62 q 860 -212 860 -143 q 810 -321 860 -281 q 678 -361 761 -361 z "},"Ǡ":{"ha":1357,"x_min":-1,"x_max":1358,"o":"m 315 188 l 315 446 l 1029 446 l 1029 188 l 315 188 m 892 1042 l 1358 0 l 1013 0 l 635 901 l 722 901 l 343 0 l -1 0 l 464 1042 l 892 1042 m 678 1110 q 547 1149 597 1110 q 497 1258 497 1189 q 547 1368 497 1328 q 678 1408 597 1408 q 810 1368 761 1408 q 860 1258 860 1328 q 810 1149 860 1189 q 678 1110 761 1110 m 326 1451 l 326 1638 l 1029 1638 l 1029 1451 l 326 1451 z "},"À":{"ha":1357,"x_min":-1,"x_max":1358,"o":"m 315 188 l 315 446 l 1029 446 l 1029 188 l 315 188 m 892 1042 l 1358 0 l 1013 0 l 635 901 l 722 901 l 343 0 l -1 0 l 464 1042 l 892 1042 m 647 1358 l 851 1117 l 533 1117 l 289 1358 l 647 1358 z "},"Ả":{"ha":1357,"x_min":-1,"x_max":1358,"o":"m 315 188 l 315 446 l 1029 446 l 1029 188 l 315 188 m 892 1042 l 1358 0 l 1013 0 l 635 901 l 722 901 l 343 0 l -1 0 l 464 1042 l 892 1042 m 611 1097 l 556 1190 q 647 1216 621 1201 q 674 1246 674 1231 q 654 1269 674 1261 q 594 1276 635 1276 q 536 1273 563 1276 q 479 1264 510 1269 l 479 1418 q 563 1436 508 1428 q 672 1444 617 1444 q 871 1409 803 1444 q 939 1293 939 1374 q 864 1173 939 1221 q 611 1097 789 1125 z "},"Ȃ":{"ha":1357,"x_min":-1,"x_max":1358,"o":"m 315 188 l 315 446 l 1029 446 l 1029 188 l 315 188 m 892 1042 l 1358 0 l 1013 0 l 635 901 l 722 901 l 343 0 l -1 0 l 464 1042 l 892 1042 m 1049 1110 l 810 1110 q 756 1161 788 1143 q 678 1179 724 1179 q 601 1161 633 1179 q 547 1110 568 1143 l 307 1110 q 443 1306 344 1242 q 678 1369 542 1369 q 915 1306 817 1369 q 1049 1110 1013 1242 z "},"Ɑ":{"ha":1369,"x_min":50,"x_max":1306,"o":"m 997 0 l 949 374 l 997 521 l 949 665 l 997 1042 l 1306 1042 l 1238 521 l 1306 0 l 997 0 m 1083 521 q 993 235 1063 357 q 815 44 924 113 q 564 -24 706 -24 q 295 44 411 -24 q 115 235 179 113 q 50 521 50 357 q 115 807 50 685 q 295 997 179 929 q 564 1065 411 1065 q 815 999 704 1065 q 994 810 925 932 q 1083 521 1064 689 m 376 521 q 411 388 376 447 q 507 295 446 329 q 649 261 568 261 q 788 295 722 261 q 902 388 853 329 q 975 521 951 447 q 902 655 951 597 q 788 747 853 713 q 649 781 722 781 q 507 747 568 781 q 411 655 446 713 q 376 521 376 597 z "},"Ɒ":{"ha":1369,"x_min":64,"x_max":1319,"o":"m 372 0 l 64 0 l 133 521 l 64 1042 l 372 1042 l 421 665 l 374 521 l 421 374 l 372 0 m 286 521 q 376 810 307 689 q 555 999 444 932 q 807 1065 665 1065 q 1076 997 960 1065 q 1256 807 1192 929 q 1319 521 1319 685 q 1256 235 1319 357 q 1076 44 1192 113 q 807 -24 960 -24 q 556 44 665 -24 q 377 235 446 113 q 286 521 308 357 m 993 521 q 959 655 993 597 q 863 747 925 713 q 721 781 801 781 q 583 747 649 781 q 467 655 517 713 q 394 521 418 597 q 467 388 418 447 q 583 295 517 329 q 721 261 649 261 q 863 295 801 261 q 959 388 925 329 q 993 521 993 447 z "},"Ā":{"ha":1357,"x_min":-1,"x_max":1358,"o":"m 315 188 l 315 446 l 1029 446 l 1029 188 l 315 188 m 892 1042 l 1358 0 l 1013 0 l 635 901 l 722 901 l 343 0 l -1 0 l 464 1042 l 892 1042 m 326 1142 l 326 1328 l 1029 1328 l 1029 1142 l 326 1142 z "},"Ą":{"ha":1357,"x_min":-1,"x_max":1358,"o":"m 315 188 l 315 446 l 1029 446 l 1029 188 l 315 188 m 892 1042 l 1358 0 l 1013 0 l 635 901 l 722 901 l 343 0 l -1 0 l 464 1042 l 892 1042 m 1226 29 l 1325 17 l 1325 0 l 1357 0 q 1268 -28 1306 -12 q 1211 -60 1231 -44 q 1192 -92 1192 -75 q 1276 -129 1192 -129 q 1319 -126 1300 -129 q 1357 -119 1339 -124 l 1357 -281 q 1293 -294 1339 -287 q 1197 -301 1247 -301 q 1032 -264 1094 -301 q 969 -167 969 -226 q 1034 -49 969 -97 q 1226 29 1099 -1 z "},"Å":{"ha":1357,"x_min":-1,"x_max":1358,"o":"m 315 188 l 315 446 l 1029 446 l 1029 188 l 315 188 m 892 1042 l 1358 0 l 1013 0 l 635 901 l 722 901 l 343 0 l -1 0 l 464 1042 l 892 1042 m 678 1090 q 463 1142 539 1090 q 386 1289 386 1194 q 463 1436 386 1385 q 678 1488 539 1488 q 894 1436 818 1488 q 969 1289 969 1385 q 894 1142 969 1194 q 678 1090 818 1090 m 678 1224 q 769 1241 740 1224 q 797 1289 797 1258 q 769 1338 797 1321 q 678 1354 740 1354 q 588 1338 615 1354 q 560 1289 560 1321 q 588 1241 560 1258 q 678 1224 615 1224 z "},"Ǻ":{"ha":1357,"x_min":-1,"x_max":1358,"o":"m 654 1728 l 938 1728 l 786 1457 l 557 1457 l 654 1728 m 315 188 l 315 446 l 1029 446 l 1029 188 l 315 188 m 892 1042 l 1358 0 l 1013 0 l 635 901 l 722 901 l 343 0 l -1 0 l 464 1042 l 892 1042 m 678 1090 q 463 1142 539 1090 q 386 1289 386 1194 q 463 1436 386 1385 q 678 1488 539 1488 q 894 1436 818 1488 q 971 1289 971 1385 q 894 1142 971 1194 q 678 1090 818 1090 m 678 1224 q 769 1241 742 1224 q 797 1289 797 1258 q 769 1338 797 1321 q 678 1354 742 1354 q 588 1338 615 1354 q 560 1289 560 1321 q 588 1241 560 1258 q 678 1224 615 1224 z "},"Ḁ":{"ha":1357,"x_min":-1,"x_max":1358,"o":"m 315 188 l 315 446 l 1029 446 l 1029 188 l 315 188 m 892 1042 l 1358 0 l 1013 0 l 635 901 l 722 901 l 343 0 l -1 0 l 464 1042 l 892 1042 m 678 -460 q 475 -406 549 -460 q 401 -258 401 -353 q 475 -112 401 -165 q 678 -58 549 -58 q 882 -112 808 -58 q 956 -258 956 -165 q 882 -406 956 -353 q 678 -460 808 -460 m 678 -336 q 755 -315 728 -336 q 782 -258 782 -294 q 755 -202 782 -222 q 679 -182 728 -182 q 603 -202 631 -182 q 575 -258 575 -222 q 603 -315 575 -294 q 678 -336 631 -336 z "},"Ⱥ":{"ha":1357,"x_min":-1,"x_max":1358,"o":"m 910 1211 l 1089 1211 l 549 -169 l 369 -169 l 910 1211 m 315 188 l 315 446 l 1029 446 l 1029 188 l 315 188 m 893 1042 l 1358 0 l 1014 0 l 635 901 l 722 901 l 343 0 l -1 0 l 464 1042 l 893 1042 z "},"Ã":{"ha":1357,"x_min":-1,"x_max":1358,"o":"m 315 188 l 315 446 l 1029 446 l 1029 188 l 315 188 m 892 1042 l 1358 0 l 1013 0 l 635 901 l 722 901 l 343 0 l -1 0 l 464 1042 l 892 1042 m 283 1122 q 362 1307 300 1240 q 544 1374 424 1374 q 619 1364 583 1374 q 686 1342 654 1354 q 746 1321 718 1331 q 797 1311 774 1311 q 845 1325 826 1311 q 869 1365 864 1339 l 1072 1365 q 994 1182 1056 1250 q 813 1114 933 1114 q 738 1124 774 1114 q 671 1146 703 1133 q 610 1168 639 1158 q 558 1178 582 1178 q 511 1164 531 1178 q 488 1122 492 1150 l 283 1122 z "},"Ɐ":{"ha":1357,"x_min":-1,"x_max":1358,"o":"m 1040 854 l 1040 596 l 328 596 l 328 854 l 1040 854 m 464 0 l -1 1042 l 343 1042 l 722 140 l 635 140 l 1013 1042 l 1358 1042 l 892 0 l 464 0 z "},"Æ":{"ha":1753,"x_min":3,"x_max":1693,"o":"m 1118 407 l 1174 258 l 1693 258 l 1693 0 l 940 0 l 603 953 l 710 953 l 347 0 l 3 0 l 428 1042 l 1676 1042 l 1676 783 l 985 783 l 1040 635 l 1635 635 l 1635 407 l 1118 407 m 293 188 l 293 446 l 968 446 l 968 188 l 293 188 z "},"Ǽ":{"ha":1753,"x_min":3,"x_max":1693,"o":"m 1118 407 l 1174 258 l 1693 258 l 1693 0 l 940 0 l 603 953 l 710 953 l 347 0 l 3 0 l 428 1042 l 1676 1042 l 1676 783 l 985 783 l 1040 635 l 1635 635 l 1635 407 l 1118 407 m 293 188 l 293 446 l 968 446 l 968 188 l 293 188 m 1047 1358 l 1406 1358 l 1160 1117 l 843 1117 l 1047 1358 z "},"Ǣ":{"ha":1753,"x_min":3,"x_max":1693,"o":"m 1118 407 l 1174 258 l 1693 258 l 1693 0 l 940 0 l 603 953 l 710 953 l 347 0 l 3 0 l 428 1042 l 1676 1042 l 1676 783 l 985 783 l 1040 635 l 1635 635 l 1635 407 l 1118 407 m 293 188 l 293 446 l 968 446 l 968 188 l 293 188 m 678 1142 l 678 1328 l 1381 1328 l 1381 1142 l 678 1142 z "},"B":{"ha":1243,"x_min":61,"x_max":1201,"o":"m 821 508 l 847 567 q 1044 530 965 564 q 1163 436 1124 496 q 1201 296 1201 376 q 1163 144 1201 211 q 1047 38 1125 76 q 854 0 969 0 l 61 0 l 140 535 l 61 1042 l 825 1042 q 1051 974 969 1042 q 1132 788 1132 907 q 1102 661 1132 721 q 1003 560 1072 601 q 821 508 935 519 m 378 72 l 254 219 l 758 219 q 843 247 813 219 q 874 322 874 274 q 842 398 874 368 q 749 428 810 428 l 329 428 l 329 642 l 703 642 q 775 668 746 642 q 804 738 804 694 q 778 798 804 774 q 706 822 753 822 l 256 822 l 378 969 l 449 535 l 378 72 z "},"Ḃ":{"ha":1243,"x_min":61,"x_max":1201,"o":"m 821 508 l 847 567 q 1044 530 965 564 q 1163 436 1124 496 q 1201 296 1201 376 q 1163 144 1201 211 q 1047 38 1125 76 q 854 0 969 0 l 61 0 l 140 535 l 61 1042 l 825 1042 q 1051 974 969 1042 q 1132 788 1132 907 q 1102 661 1132 721 q 1003 560 1072 601 q 821 508 935 519 m 378 72 l 254 219 l 758 219 q 843 247 813 219 q 874 322 874 274 q 842 398 874 368 q 749 428 810 428 l 329 428 l 329 642 l 703 642 q 775 668 746 642 q 804 738 804 694 q 778 798 804 774 q 706 822 753 822 l 256 822 l 378 969 l 449 535 l 378 72 m 599 1110 q 468 1149 518 1110 q 418 1258 418 1189 q 468 1368 418 1328 q 599 1408 518 1408 q 731 1368 682 1408 q 781 1258 781 1328 q 731 1149 781 1189 q 599 1110 682 1110 z "},"Ḅ":{"ha":1243,"x_min":61,"x_max":1201,"o":"m 821 508 l 847 567 q 1044 530 965 564 q 1163 436 1124 496 q 1201 296 1201 376 q 1163 144 1201 211 q 1047 38 1125 76 q 854 0 969 0 l 61 0 l 140 535 l 61 1042 l 825 1042 q 1051 974 969 1042 q 1132 788 1132 907 q 1102 661 1132 721 q 1003 560 1072 601 q 821 508 935 519 m 378 72 l 254 219 l 758 219 q 843 247 813 219 q 874 322 874 274 q 842 398 874 368 q 749 428 810 428 l 329 428 l 329 642 l 703 642 q 775 668 746 642 q 804 738 804 694 q 778 798 804 774 q 706 822 753 822 l 256 822 l 378 969 l 449 535 l 378 72 m 629 -361 q 499 -321 549 -361 q 449 -212 449 -281 q 499 -103 449 -143 q 629 -62 549 -62 q 762 -103 713 -62 q 811 -212 811 -143 q 762 -321 811 -281 q 629 -361 713 -361 z "},"Ꞵ":{"ha":1257,"x_min":90,"x_max":1215,"o":"m 996 549 q 1118 497 1069 532 q 1191 410 1167 461 q 1215 296 1215 360 q 1177 144 1215 211 q 1061 38 1139 76 q 868 0 983 0 l 410 0 l 410 -229 l 90 -229 l 90 1042 l 840 1042 q 1065 974 985 1042 q 1146 788 1146 907 q 1131 695 1146 740 q 1083 613 1117 650 q 996 549 1050 575 m 818 738 q 792 798 818 774 q 719 822 767 822 l 410 822 l 410 642 l 717 642 q 789 668 760 642 q 818 738 818 694 m 410 219 l 772 219 q 857 247 826 219 q 888 322 888 274 q 856 398 888 368 q 763 428 825 428 l 410 428 l 410 219 z "},"Ɓ":{"ha":1543,"x_min":24,"x_max":1501,"o":"m 310 1042 l 1125 1042 q 1351 974 1269 1042 q 1432 788 1432 907 q 1401 661 1432 721 q 1303 560 1371 601 q 1121 508 1235 519 l 1146 567 q 1344 530 1265 564 q 1463 436 1424 496 q 1501 296 1501 376 q 1463 144 1501 211 q 1347 38 1425 76 q 1154 0 1269 0 l 360 0 l 440 535 l 371 975 l 485 807 l 383 807 q 315 783 338 807 q 292 707 292 760 q 299 628 292 665 q 315 563 307 590 l 81 563 q 42 661 60 606 q 24 783 24 717 q 95 972 24 901 q 310 1042 167 1042 m 678 72 l 554 219 l 1058 219 q 1143 247 1113 219 q 1174 322 1174 274 q 1142 398 1174 368 q 1049 428 1110 428 l 629 428 l 629 642 l 1003 642 q 1075 668 1046 642 q 1104 738 1104 694 q 1078 798 1104 774 q 1006 822 1053 822 l 556 822 l 678 969 l 749 535 l 678 72 z "},"Ḇ":{"ha":1243,"x_min":61,"x_max":1201,"o":"m 821 508 l 847 567 q 1044 530 965 564 q 1163 436 1124 496 q 1201 296 1201 376 q 1163 144 1201 211 q 1047 38 1125 76 q 854 0 969 0 l 61 0 l 140 535 l 61 1042 l 825 1042 q 1051 974 969 1042 q 1132 788 1132 907 q 1102 661 1132 721 q 1003 560 1072 601 q 821 508 935 519 m 378 72 l 254 219 l 758 219 q 843 247 813 219 q 874 322 874 274 q 842 398 874 368 q 749 428 810 428 l 329 428 l 329 642 l 703 642 q 775 668 746 642 q 804 738 804 694 q 778 798 804 774 q 706 822 753 822 l 256 822 l 378 969 l 449 535 l 378 72 m 300 -276 l 300 -89 l 1001 -89 l 1001 -276 l 300 -276 z "},"Ƀ":{"ha":1301,"x_min":26,"x_max":1261,"o":"m 26 406 l 718 406 l 718 239 l 26 239 l 26 406 m 879 508 l 906 567 q 1104 530 1025 564 q 1222 436 1183 496 q 1261 296 1261 376 q 1222 144 1261 211 q 1106 38 1183 76 q 913 0 1029 0 l 119 0 l 199 535 l 119 1042 l 885 1042 q 1110 974 1029 1042 q 1192 788 1192 907 q 1161 661 1192 721 q 1063 560 1131 601 q 879 508 994 519 m 436 72 l 314 218 l 817 218 q 901 246 871 218 q 932 322 932 274 q 901 398 932 368 q 807 428 869 428 l 388 428 l 388 642 l 761 642 q 833 667 804 642 q 863 738 863 693 q 837 799 863 775 q 764 824 811 824 l 314 824 l 436 969 l 508 535 l 436 72 z "},"C":{"ha":1308,"x_min":49,"x_max":1268,"o":"m 1268 443 q 1172 199 1251 304 q 960 35 1092 93 q 660 -24 829 -24 q 339 44 476 -24 q 125 235 201 113 q 49 521 49 357 q 125 807 49 685 q 339 997 201 929 q 660 1065 476 1065 q 960 1007 829 1065 q 1172 844 1092 949 q 1268 599 1251 739 l 943 599 q 892 701 929 658 q 797 766 856 743 q 660 789 739 789 q 507 757 571 789 q 408 665 443 725 q 374 521 374 604 q 408 378 374 438 q 507 285 443 318 q 660 253 571 253 q 797 274 739 253 q 892 339 856 296 q 943 443 929 382 l 1268 443 z "},"Ć":{"ha":1308,"x_min":49,"x_max":1268,"o":"m 1268 443 q 1172 199 1251 304 q 960 35 1092 93 q 660 -24 829 -24 q 339 44 476 -24 q 125 235 201 113 q 49 521 49 357 q 125 807 49 685 q 339 997 201 929 q 660 1065 476 1065 q 960 1007 829 1065 q 1172 844 1092 949 q 1268 599 1251 739 l 943 599 q 892 701 929 658 q 797 766 856 743 q 660 789 739 789 q 507 757 571 789 q 408 665 443 725 q 374 521 374 604 q 408 378 374 438 q 507 285 443 318 q 660 253 571 253 q 797 274 739 253 q 892 339 856 296 q 943 443 929 382 l 1268 443 m 675 1358 l 1033 1358 l 788 1117 l 471 1117 l 675 1358 z "},"Č":{"ha":1308,"x_min":49,"x_max":1268,"o":"m 1268 443 q 1172 199 1251 304 q 960 35 1092 93 q 660 -24 829 -24 q 339 44 476 -24 q 125 235 201 113 q 49 521 49 357 q 125 807 49 685 q 339 997 201 929 q 660 1065 476 1065 q 960 1007 829 1065 q 1172 844 1092 949 q 1268 599 1251 739 l 943 599 q 892 701 929 658 q 797 766 856 743 q 660 789 739 789 q 507 757 571 789 q 408 665 443 725 q 374 521 374 604 q 408 378 374 438 q 507 285 443 318 q 660 253 571 253 q 797 274 739 253 q 892 339 856 296 q 943 443 929 382 l 1268 443 m 824 1115 l 492 1115 l 279 1357 l 533 1357 l 732 1213 l 583 1213 l 782 1357 l 1036 1357 l 824 1115 z "},"Ç":{"ha":1308,"x_min":49,"x_max":1268,"o":"m 1268 443 q 1172 199 1251 304 q 960 35 1092 93 q 660 -24 829 -24 q 339 44 476 -24 q 125 235 201 113 q 49 521 49 357 q 125 807 49 685 q 339 997 201 929 q 660 1065 476 1065 q 960 1007 829 1065 q 1172 844 1092 949 q 1268 599 1251 739 l 943 599 q 892 701 929 658 q 797 766 856 743 q 660 789 739 789 q 507 757 571 789 q 408 665 443 725 q 374 521 374 604 q 408 378 374 438 q 507 285 443 318 q 660 253 571 253 q 797 274 739 253 q 892 339 856 296 q 943 443 929 382 l 1268 443 m 596 31 l 744 31 l 674 -96 l 594 -90 q 671 -63 631 -74 q 757 -53 711 -53 q 913 -90 860 -53 q 967 -194 967 -128 q 896 -311 967 -265 q 688 -357 825 -357 q 488 -315 567 -357 q 388 -197 408 -274 l 588 -197 q 619 -222 596 -211 q 688 -232 643 -232 q 753 -219 732 -232 q 775 -187 775 -207 q 757 -158 775 -169 q 701 -146 739 -146 q 660 -149 681 -146 q 624 -158 640 -151 l 472 -158 l 596 31 z "},"Ḉ":{"ha":1308,"x_min":49,"x_max":1268,"o":"m 1268 443 q 1172 199 1251 304 q 960 35 1092 93 q 660 -24 829 -24 q 339 44 476 -24 q 125 235 201 113 q 49 521 49 357 q 125 807 49 685 q 339 997 201 929 q 660 1065 476 1065 q 960 1007 829 1065 q 1172 844 1092 949 q 1268 599 1251 739 l 943 599 q 892 701 929 658 q 797 766 856 743 q 660 789 739 789 q 507 757 571 789 q 408 665 443 725 q 374 521 374 604 q 408 378 374 438 q 507 285 443 318 q 660 253 571 253 q 797 274 739 253 q 892 339 856 296 q 943 443 929 382 l 1268 443 m 596 31 l 744 31 l 674 -96 l 594 -90 q 671 -63 631 -74 q 757 -53 711 -53 q 913 -90 860 -53 q 967 -194 967 -128 q 896 -311 967 -265 q 688 -357 825 -357 q 488 -315 567 -357 q 388 -197 408 -274 l 588 -197 q 619 -222 596 -211 q 688 -232 643 -232 q 753 -219 732 -232 q 775 -187 775 -207 q 757 -158 775 -169 q 701 -146 739 -146 q 660 -149 681 -146 q 624 -158 640 -151 l 472 -158 l 596 31 m 675 1358 l 1033 1358 l 788 1117 l 471 1117 l 675 1358 z "},"Ĉ":{"ha":1308,"x_min":49,"x_max":1268,"o":"m 1268 443 q 1172 199 1251 304 q 960 35 1092 93 q 660 -24 829 -24 q 339 44 476 -24 q 125 235 201 113 q 49 521 49 357 q 125 807 49 685 q 339 997 201 929 q 660 1065 476 1065 q 960 1007 829 1065 q 1172 844 1092 949 q 1268 599 1251 739 l 943 599 q 892 701 929 658 q 797 766 856 743 q 660 789 739 789 q 507 757 571 789 q 408 665 443 725 q 374 521 374 604 q 408 378 374 438 q 507 285 443 318 q 660 253 571 253 q 797 274 739 253 q 892 339 856 296 q 943 443 929 382 l 1268 443 m 492 1358 l 824 1358 l 1036 1117 l 781 1117 l 583 1261 l 732 1261 l 533 1117 l 278 1117 l 492 1358 z "},"Ċ":{"ha":1308,"x_min":49,"x_max":1268,"o":"m 1268 443 q 1172 199 1251 304 q 960 35 1092 93 q 660 -24 829 -24 q 339 44 476 -24 q 125 235 201 113 q 49 521 49 357 q 125 807 49 685 q 339 997 201 929 q 660 1065 476 1065 q 960 1007 829 1065 q 1172 844 1092 949 q 1268 599 1251 739 l 943 599 q 892 701 929 658 q 797 766 856 743 q 660 789 739 789 q 507 757 571 789 q 408 665 443 725 q 374 521 374 604 q 408 378 374 438 q 507 285 443 318 q 660 253 571 253 q 797 274 739 253 q 892 339 856 296 q 943 443 929 382 l 1268 443 m 657 1110 q 526 1149 576 1110 q 476 1258 476 1189 q 526 1368 476 1328 q 657 1408 576 1408 q 790 1368 740 1408 q 839 1258 839 1328 q 790 1149 839 1189 q 657 1110 740 1110 z "},"Ꭓ":{"ha":1167,"x_min":-18,"x_max":1182,"o":"m 686 325 l 686 538 l 1182 -229 l 839 -229 l 513 304 l 650 304 l 321 -229 l -18 -229 l 481 536 l 481 328 l 10 1042 l 358 1042 l 656 560 l 518 560 l 811 1042 l 1154 1042 l 686 325 z "},"Ƈ":{"ha":1401,"x_min":49,"x_max":1428,"o":"m 650 1065 q 964 981 843 1065 q 1143 751 1085 897 l 1049 785 q 988 898 1017 836 q 958 1021 958 960 q 988 1138 958 1085 q 1079 1224 1017 1192 q 1239 1257 1142 1257 q 1338 1250 1289 1257 q 1428 1229 1386 1243 l 1428 993 q 1376 1006 1403 1000 q 1319 1013 1350 1013 q 1226 985 1256 1013 q 1196 908 1196 958 q 1203 853 1196 883 q 1219 790 1210 824 q 1244 706 1228 757 q 1268 599 1260 656 l 944 599 q 894 701 931 658 q 798 766 857 743 q 661 789 739 789 q 508 757 572 789 q 409 665 443 725 q 375 521 375 604 q 409 378 375 438 q 508 285 443 318 q 661 253 572 253 q 798 274 739 253 q 894 339 857 296 q 944 443 931 382 l 1268 443 q 1172 199 1253 304 q 961 35 1092 93 q 661 -24 831 -24 q 339 44 476 -24 q 125 235 201 113 q 49 521 49 357 q 125 807 49 685 q 338 997 201 929 q 650 1065 474 1065 z "},"Ȼ":{"ha":1308,"x_min":49,"x_max":1268,"o":"m 790 1211 l 1044 1211 l 504 -169 l 250 -169 l 790 1211 m 1268 443 q 1172 199 1253 304 q 961 35 1092 93 q 661 -24 831 -24 q 339 44 476 -24 q 125 235 201 113 q 49 521 49 357 q 125 807 49 685 q 339 997 201 929 q 661 1065 476 1065 q 961 1007 831 1065 q 1172 844 1092 949 q 1268 599 1253 739 l 944 599 q 894 701 931 658 q 798 766 857 743 q 661 789 739 789 q 508 757 572 789 q 409 665 443 725 q 375 521 375 604 q 409 378 375 438 q 508 285 443 318 q 661 253 572 253 q 798 274 739 253 q 894 339 857 296 q 944 443 931 382 l 1268 443 z "},"D":{"ha":1300,"x_min":90,"x_max":1253,"o":"m 626 1042 q 955 977 814 1042 q 1174 796 1096 913 q 1253 521 1253 679 q 1174 247 1253 364 q 955 65 1096 129 q 626 0 814 0 l 90 0 l 90 1042 l 626 1042 m 411 140 l 263 288 l 651 288 q 798 316 736 288 q 893 397 860 344 q 926 521 926 450 q 893 645 926 593 q 798 726 860 697 q 651 754 736 754 l 263 754 l 411 901 l 411 140 z "},"Ǳ":{"ha":2413,"x_min":90,"x_max":2353,"o":"m 626 1042 q 955 977 814 1042 q 1174 796 1096 913 q 1253 521 1253 679 q 1174 247 1253 364 q 955 65 1096 129 q 626 0 814 0 l 90 0 l 90 1042 l 626 1042 m 411 140 l 263 288 l 651 288 q 798 316 736 288 q 893 397 860 344 q 926 521 926 450 q 893 645 926 593 q 798 726 860 697 q 651 754 736 754 l 263 754 l 411 901 l 411 140 m 1333 0 l 1333 232 l 1986 854 l 2226 792 l 1339 792 l 1339 1043 l 2349 1043 l 2349 811 l 1697 188 l 1493 250 l 2353 250 l 2353 0 l 1333 0 z "},"Ǆ":{"ha":2413,"x_min":90,"x_max":2353,"o":"m 626 1042 q 955 977 814 1042 q 1174 796 1096 913 q 1253 521 1253 679 q 1174 247 1253 364 q 955 65 1096 129 q 626 0 814 0 l 90 0 l 90 1042 l 626 1042 m 411 140 l 263 288 l 651 288 q 798 316 736 288 q 893 397 860 344 q 926 521 926 450 q 893 645 926 593 q 798 726 860 697 q 651 754 736 754 l 263 754 l 411 901 l 411 140 m 1333 0 l 1333 232 l 1986 854 l 2226 792 l 1339 792 l 1339 1043 l 2349 1043 l 2349 811 l 1697 188 l 1493 250 l 2353 250 l 2353 0 l 1333 0 m 2010 1115 l 1678 1115 l 1465 1357 l 1719 1357 l 1918 1213 l 1769 1213 l 1968 1357 l 2222 1357 l 2010 1115 z "},"Ɖ":{"ha":1332,"x_min":39,"x_max":1283,"o":"m 39 626 l 661 626 l 661 418 l 39 418 l 39 626 m 658 1042 q 986 977 846 1042 q 1205 796 1126 913 q 1283 521 1283 679 q 1205 247 1283 364 q 986 65 1126 129 q 658 0 846 0 l 121 0 l 121 1042 l 658 1042 m 443 140 l 293 288 l 682 288 q 830 316 768 288 q 924 397 892 344 q 957 521 957 450 q 924 645 957 593 q 830 726 892 697 q 682 754 768 754 l 293 754 l 443 901 l 443 140 z "},"Ď":{"ha":1300,"x_min":90,"x_max":1253,"o":"m 626 1042 q 955 977 814 1042 q 1174 796 1096 913 q 1253 521 1253 679 q 1174 247 1253 364 q 955 65 1096 129 q 626 0 814 0 l 90 0 l 90 1042 l 626 1042 m 411 140 l 263 288 l 651 288 q 798 316 736 288 q 893 397 860 344 q 926 521 926 450 q 893 645 926 593 q 798 726 860 697 q 651 754 736 754 l 263 754 l 411 901 l 411 140 m 781 1115 l 449 1115 l 235 1357 l 490 1357 l 689 1213 l 540 1213 l 738 1357 l 993 1357 l 781 1115 z "},"Ḑ":{"ha":1300,"x_min":90,"x_max":1253,"o":"m 626 1042 q 955 977 814 1042 q 1174 796 1096 913 q 1253 521 1253 679 q 1174 247 1253 364 q 955 65 1096 129 q 626 0 814 0 l 90 0 l 90 1042 l 626 1042 m 411 140 l 263 288 l 651 288 q 798 316 736 288 q 893 397 860 344 q 926 521 926 450 q 893 645 926 593 q 798 726 860 697 q 651 754 736 754 l 263 754 l 411 901 l 411 140 m 467 -450 l 610 -225 l 622 -312 q 501 -278 547 -312 q 456 -186 456 -244 q 501 -93 456 -126 q 622 -60 547 -60 q 742 -93 697 -60 q 788 -187 788 -126 q 765 -262 788 -228 q 696 -353 743 -297 l 614 -450 l 467 -450 z "},"Ḓ":{"ha":1300,"x_min":90,"x_max":1253,"o":"m 626 1042 q 955 977 814 1042 q 1174 796 1096 913 q 1253 521 1253 679 q 1174 247 1253 364 q 955 65 1096 129 q 626 0 814 0 l 90 0 l 90 1042 l 626 1042 m 411 140 l 263 288 l 651 288 q 798 316 736 288 q 893 397 860 344 q 926 521 926 450 q 893 645 926 593 q 798 726 860 697 q 651 754 736 754 l 263 754 l 411 901 l 411 140 m 461 -58 l 785 -58 l 983 -328 l 736 -328 l 549 -132 l 697 -132 l 511 -328 l 263 -328 l 461 -58 z "},"Đ":{"ha":1332,"x_min":39,"x_max":1283,"o":"m 39 626 l 661 626 l 661 418 l 39 418 l 39 626 m 658 1042 q 986 977 846 1042 q 1205 796 1126 913 q 1283 521 1283 679 q 1205 247 1283 364 q 986 65 1126 129 q 658 0 846 0 l 121 0 l 121 1042 l 658 1042 m 443 140 l 293 288 l 682 288 q 830 316 768 288 q 924 397 892 344 q 957 521 957 450 q 924 645 957 593 q 830 726 892 697 q 682 754 768 754 l 293 754 l 443 901 l 443 140 z "},"Ḋ":{"ha":1300,"x_min":90,"x_max":1253,"o":"m 626 1042 q 955 977 814 1042 q 1174 796 1096 913 q 1253 521 1253 679 q 1174 247 1253 364 q 955 65 1096 129 q 626 0 814 0 l 90 0 l 90 1042 l 626 1042 m 411 140 l 263 288 l 651 288 q 798 316 736 288 q 893 397 860 344 q 926 521 926 450 q 893 645 926 593 q 798 726 860 697 q 651 754 736 754 l 263 754 l 411 901 l 411 140 m 614 1110 q 483 1149 533 1110 q 433 1258 433 1189 q 483 1368 433 1328 q 614 1408 533 1408 q 747 1368 697 1408 q 796 1258 796 1328 q 747 1149 796 1189 q 614 1110 697 1110 z "},"Ḍ":{"ha":1300,"x_min":90,"x_max":1253,"o":"m 626 1042 q 955 977 814 1042 q 1174 796 1096 913 q 1253 521 1253 679 q 1174 247 1253 364 q 955 65 1096 129 q 626 0 814 0 l 90 0 l 90 1042 l 626 1042 m 411 140 l 263 288 l 651 288 q 798 316 736 288 q 893 397 860 344 q 926 521 926 450 q 893 645 926 593 q 798 726 860 697 q 651 754 736 754 l 263 754 l 411 901 l 411 140 m 622 -361 q 492 -321 542 -361 q 442 -212 442 -281 q 492 -103 442 -143 q 622 -62 542 -62 q 755 -103 706 -62 q 804 -212 804 -143 q 755 -321 804 -281 q 622 -361 706 -361 z "},"Ɗ":{"ha":1644,"x_min":24,"x_max":1596,"o":"m 332 1042 l 971 1042 q 1299 977 1158 1042 q 1517 796 1439 913 q 1596 521 1596 679 q 1517 247 1596 364 q 1299 65 1439 129 q 971 0 1158 0 l 433 0 l 433 897 l 524 772 l 390 772 q 320 751 344 772 q 296 679 296 731 q 302 615 296 647 q 315 563 308 582 l 81 563 q 42 659 60 606 q 24 781 24 713 q 97 971 24 900 q 332 1042 169 1042 m 756 140 l 606 288 l 994 288 q 1142 316 1081 288 q 1237 397 1204 344 q 1269 521 1269 450 q 1237 645 1269 593 q 1142 726 1204 697 q 994 754 1081 754 l 614 754 l 756 896 l 756 140 z "},"Ḏ":{"ha":1300,"x_min":90,"x_max":1253,"o":"m 626 1042 q 955 977 814 1042 q 1174 796 1096 913 q 1253 521 1253 679 q 1174 247 1253 364 q 955 65 1096 129 q 626 0 814 0 l 90 0 l 90 1042 l 626 1042 m 411 140 l 263 288 l 651 288 q 798 316 736 288 q 893 397 860 344 q 926 521 926 450 q 893 645 926 593 q 798 726 860 697 q 651 754 736 754 l 263 754 l 411 901 l 411 140 m 293 -276 l 293 -89 l 994 -89 l 994 -276 l 293 -276 z "},"ǲ":{"ha":2264,"x_min":90,"x_max":2210,"o":"m 626 1042 q 955 977 814 1042 q 1174 796 1096 913 q 1253 521 1253 679 q 1174 247 1253 364 q 955 65 1096 129 q 626 0 814 0 l 90 0 l 90 1042 l 626 1042 m 411 140 l 263 288 l 651 288 q 798 316 736 288 q 893 397 860 344 q 926 521 926 450 q 893 645 926 593 q 798 726 860 697 q 651 754 736 754 l 263 754 l 411 901 l 411 140 m 1335 0 l 1335 219 l 1860 606 l 2088 571 l 1338 571 l 1338 796 l 2208 796 l 2208 576 l 1683 190 l 1490 225 l 2211 225 l 2211 0 l 1335 0 z "},"ǅ":{"ha":2264,"x_min":90,"x_max":2210,"o":"m 626 1042 q 955 977 814 1042 q 1174 796 1096 913 q 1253 521 1253 679 q 1174 247 1253 364 q 955 65 1096 129 q 626 0 814 0 l 90 0 l 90 1042 l 626 1042 m 411 140 l 263 288 l 651 288 q 798 316 736 288 q 893 397 860 344 q 926 521 926 450 q 893 645 926 593 q 798 726 860 697 q 651 754 736 754 l 263 754 l 411 901 l 411 140 m 1333 0 l 1333 219 l 1858 606 l 2086 571 l 1338 571 l 1338 796 l 2207 796 l 2207 576 l 1682 190 l 1490 225 l 2210 225 l 2210 0 l 1333 0 m 1935 871 l 1611 871 l 1413 1140 l 1660 1140 l 1847 944 l 1699 944 l 1885 1140 l 2133 1140 l 1935 871 z "},"Ð":{"ha":1332,"x_min":39,"x_max":1283,"o":"m 39 626 l 661 626 l 661 418 l 39 418 l 39 626 m 658 1042 q 986 977 846 1042 q 1205 796 1126 913 q 1283 521 1283 679 q 1205 247 1283 364 q 986 65 1126 129 q 658 0 846 0 l 121 0 l 121 1042 l 658 1042 m 443 140 l 293 288 l 682 288 q 830 316 768 288 q 924 397 892 344 q 957 521 957 450 q 924 645 957 593 q 830 726 892 697 q 682 754 768 754 l 293 754 l 443 901 l 443 140 z "},"E":{"ha":1115,"x_min":61,"x_max":1049,"o":"m 1000 635 l 1000 407 l 226 407 l 226 635 l 1000 635 m 447 521 l 382 118 l 256 258 l 1049 258 l 1049 0 l 61 0 l 139 521 l 61 1042 l 1042 1042 l 1042 783 l 256 783 l 382 924 l 447 521 z "},"É":{"ha":1115,"x_min":61,"x_max":1049,"o":"m 1000 635 l 1000 407 l 226 407 l 226 635 l 1000 635 m 447 521 l 382 118 l 256 258 l 1049 258 l 1049 0 l 61 0 l 139 521 l 61 1042 l 1042 1042 l 1042 783 l 256 783 l 382 924 l 447 521 m 579 1358 l 938 1358 l 692 1117 l 375 1117 l 579 1358 z "},"Ĕ":{"ha":1115,"x_min":61,"x_max":1049,"o":"m 1000 635 l 1000 407 l 226 407 l 226 635 l 1000 635 m 447 521 l 382 118 l 256 258 l 1049 258 l 1049 0 l 61 0 l 139 521 l 61 1042 l 1042 1042 l 1042 783 l 256 783 l 382 924 l 447 521 m 190 1365 l 431 1365 q 484 1313 451 1331 q 561 1296 517 1296 q 640 1313 607 1296 q 693 1365 672 1331 l 933 1365 q 798 1168 896 1232 q 561 1104 700 1104 q 326 1168 425 1104 q 190 1365 228 1232 z "},"Ě":{"ha":1115,"x_min":61,"x_max":1049,"o":"m 1000 635 l 1000 407 l 226 407 l 226 635 l 1000 635 m 447 521 l 382 118 l 256 258 l 1049 258 l 1049 0 l 61 0 l 139 521 l 61 1042 l 1042 1042 l 1042 783 l 256 783 l 382 924 l 447 521 m 728 1115 l 396 1115 l 183 1357 l 438 1357 l 636 1213 l 488 1213 l 686 1357 l 940 1357 l 728 1115 z "},"Ȩ":{"ha":1115,"x_min":61,"x_max":1049,"o":"m 1000 635 l 1000 407 l 226 407 l 226 635 l 1000 635 m 447 521 l 382 118 l 256 258 l 1049 258 l 1049 0 l 61 0 l 139 521 l 61 1042 l 1042 1042 l 1042 783 l 256 783 l 382 924 l 447 521 m 518 31 l 667 31 l 596 -96 l 517 -90 q 593 -63 553 -74 q 679 -53 633 -53 q 835 -90 782 -53 q 889 -194 889 -128 q 818 -311 889 -265 q 610 -357 747 -357 q 410 -315 489 -357 q 310 -197 331 -274 l 510 -197 q 542 -222 518 -211 q 610 -232 565 -232 q 676 -219 654 -232 q 697 -187 697 -207 q 679 -158 697 -169 q 624 -146 661 -146 q 583 -149 603 -146 q 546 -158 563 -151 l 394 -158 l 518 31 z "},"Ḝ":{"ha":1115,"x_min":61,"x_max":1049,"o":"m 1000 635 l 1000 407 l 226 407 l 226 635 l 1000 635 m 447 521 l 382 118 l 256 258 l 1049 258 l 1049 0 l 61 0 l 139 521 l 61 1042 l 1042 1042 l 1042 783 l 256 783 l 382 924 l 447 521 m 518 31 l 667 31 l 596 -96 l 517 -90 q 593 -63 553 -74 q 679 -53 633 -53 q 835 -90 782 -53 q 889 -194 889 -128 q 818 -311 889 -265 q 610 -357 747 -357 q 410 -315 489 -357 q 310 -197 331 -274 l 510 -197 q 542 -222 518 -211 q 610 -232 565 -232 q 676 -219 654 -232 q 697 -187 697 -207 q 679 -158 697 -169 q 624 -146 661 -146 q 583 -149 603 -146 q 546 -158 563 -151 l 394 -158 l 518 31 m 190 1365 l 431 1365 q 484 1313 451 1331 q 561 1296 517 1296 q 640 1313 607 1296 q 693 1365 672 1331 l 933 1365 q 798 1168 896 1232 q 561 1104 700 1104 q 326 1168 425 1104 q 190 1365 228 1232 z "},"Ê":{"ha":1115,"x_min":61,"x_max":1049,"o":"m 1000 635 l 1000 407 l 226 407 l 226 635 l 1000 635 m 447 521 l 382 118 l 256 258 l 1049 258 l 1049 0 l 61 0 l 139 521 l 61 1042 l 1042 1042 l 1042 783 l 256 783 l 382 924 l 447 521 m 396 1358 l 728 1358 l 940 1117 l 685 1117 l 488 1261 l 636 1261 l 438 1117 l 182 1117 l 396 1358 z "},"Ế":{"ha":1115,"x_min":61,"x_max":1228,"o":"m 1000 635 l 1000 407 l 226 407 l 226 635 l 1000 635 m 447 521 l 382 118 l 256 258 l 1049 258 l 1049 0 l 61 0 l 139 521 l 61 1042 l 1042 1042 l 1042 783 l 256 783 l 382 924 l 447 521 m 943 1536 l 1228 1536 l 1051 1306 l 810 1306 l 943 1536 m 396 1358 l 728 1358 l 942 1117 l 686 1117 l 488 1261 l 636 1261 l 438 1117 l 183 1117 l 396 1358 z "},"Ḙ":{"ha":1115,"x_min":61,"x_max":1049,"o":"m 1000 635 l 1000 407 l 226 407 l 226 635 l 1000 635 m 447 521 l 382 118 l 256 258 l 1049 258 l 1049 0 l 61 0 l 139 521 l 61 1042 l 1042 1042 l 1042 783 l 256 783 l 382 924 l 447 521 m 418 -58 l 742 -58 l 940 -328 l 693 -328 l 506 -132 l 654 -132 l 468 -328 l 219 -328 l 418 -58 z "},"Ệ":{"ha":1115,"x_min":61,"x_max":1049,"o":"m 1000 635 l 1000 407 l 226 407 l 226 635 l 1000 635 m 447 521 l 382 118 l 256 258 l 1049 258 l 1049 0 l 61 0 l 139 521 l 61 1042 l 1042 1042 l 1042 783 l 256 783 l 382 924 l 447 521 m 579 -361 q 449 -321 499 -361 q 399 -212 399 -281 q 449 -103 399 -143 q 579 -62 499 -62 q 712 -103 663 -62 q 761 -212 761 -143 q 712 -321 761 -281 q 579 -361 663 -361 m 396 1358 l 728 1358 l 940 1117 l 685 1117 l 488 1261 l 636 1261 l 438 1117 l 182 1117 l 396 1358 z "},"Ề":{"ha":1115,"x_min":61,"x_max":1085,"o":"m 1000 635 l 1000 407 l 226 407 l 226 635 l 1000 635 m 447 521 l 382 118 l 256 258 l 1049 258 l 1049 0 l 61 0 l 139 521 l 61 1042 l 1042 1042 l 1042 783 l 256 783 l 382 924 l 447 521 m 951 1536 l 1085 1306 l 843 1306 l 667 1536 l 951 1536 m 396 1358 l 728 1358 l 942 1117 l 686 1117 l 488 1261 l 636 1261 l 438 1117 l 183 1117 l 396 1358 z "},"Ể":{"ha":1115,"x_min":61,"x_max":1147,"o":"m 1000 635 l 1000 407 l 226 407 l 226 635 l 1000 635 m 447 521 l 382 118 l 256 258 l 1049 258 l 1049 0 l 61 0 l 139 521 l 61 1042 l 1042 1042 l 1042 783 l 256 783 l 382 924 l 447 521 m 875 1275 l 819 1349 q 876 1378 858 1363 q 894 1410 894 1393 q 819 1447 894 1447 q 779 1445 801 1447 q 733 1438 757 1443 l 733 1596 q 807 1610 761 1604 q 904 1617 853 1617 q 1083 1579 1019 1617 q 1147 1474 1147 1542 q 1079 1355 1147 1406 q 875 1275 1011 1304 m 396 1358 l 728 1358 l 942 1117 l 686 1117 l 488 1261 l 636 1261 l 438 1117 l 183 1117 l 396 1358 z "},"Ễ":{"ha":1115,"x_min":61,"x_max":1049,"o":"m 1000 635 l 1000 407 l 226 407 l 226 635 l 1000 635 m 447 521 l 382 118 l 256 258 l 1049 258 l 1049 0 l 61 0 l 139 521 l 61 1042 l 1042 1042 l 1042 783 l 256 783 l 382 924 l 447 521 m 218 1413 q 276 1590 225 1522 q 424 1658 328 1658 q 500 1648 467 1658 q 558 1624 533 1638 q 606 1601 583 1611 q 647 1590 628 1590 q 689 1607 674 1590 q 710 1656 704 1624 l 900 1656 q 842 1476 894 1542 q 694 1410 790 1410 q 618 1421 651 1410 q 559 1445 585 1432 q 512 1468 533 1458 q 471 1478 490 1478 q 428 1461 443 1478 q 408 1413 414 1444 l 218 1413 m 396 1358 l 728 1358 l 940 1117 l 685 1117 l 488 1261 l 636 1261 l 438 1117 l 182 1117 l 396 1358 z "},"Ȅ":{"ha":1115,"x_min":31,"x_max":1049,"o":"m 1000 635 l 1000 407 l 226 407 l 226 635 l 1000 635 m 447 521 l 382 118 l 256 258 l 1049 258 l 1049 0 l 61 0 l 139 521 l 61 1042 l 1042 1042 l 1042 783 l 256 783 l 382 924 l 447 521 m 718 1358 l 892 1117 l 617 1117 l 417 1358 l 718 1358 m 333 1358 l 506 1117 l 231 1117 l 31 1358 l 333 1358 z "},"Ë":{"ha":1115,"x_min":61,"x_max":1049,"o":"m 1000 635 l 1000 407 l 226 407 l 226 635 l 1000 635 m 447 521 l 382 118 l 256 258 l 1049 258 l 1049 0 l 61 0 l 139 521 l 61 1042 l 1042 1042 l 1042 783 l 256 783 l 382 924 l 447 521 m 343 1110 q 221 1147 267 1110 q 175 1253 175 1185 q 221 1354 175 1317 q 343 1392 267 1392 q 465 1354 419 1392 q 511 1253 511 1317 q 465 1147 511 1185 q 343 1110 419 1110 m 781 1110 q 658 1147 704 1110 q 613 1253 613 1185 q 658 1354 613 1317 q 781 1392 704 1392 q 903 1354 857 1392 q 949 1253 949 1317 q 903 1147 949 1185 q 781 1110 857 1110 z "},"Ė":{"ha":1115,"x_min":61,"x_max":1049,"o":"m 1000 635 l 1000 407 l 226 407 l 226 635 l 1000 635 m 447 521 l 382 118 l 256 258 l 1049 258 l 1049 0 l 61 0 l 139 521 l 61 1042 l 1042 1042 l 1042 783 l 256 783 l 382 924 l 447 521 m 561 1110 q 431 1149 481 1110 q 381 1258 381 1189 q 431 1368 381 1328 q 561 1408 481 1408 q 694 1368 644 1408 q 743 1258 743 1328 q 694 1149 743 1189 q 561 1110 644 1110 z "},"Ẹ":{"ha":1115,"x_min":61,"x_max":1049,"o":"m 1000 635 l 1000 407 l 226 407 l 226 635 l 1000 635 m 447 521 l 382 118 l 256 258 l 1049 258 l 1049 0 l 61 0 l 139 521 l 61 1042 l 1042 1042 l 1042 783 l 256 783 l 382 924 l 447 521 m 579 -361 q 449 -321 499 -361 q 399 -212 399 -281 q 449 -103 399 -143 q 579 -62 499 -62 q 712 -103 663 -62 q 761 -212 761 -143 q 712 -321 761 -281 q 579 -361 663 -361 z "},"È":{"ha":1115,"x_min":61,"x_max":1049,"o":"m 1000 635 l 1000 407 l 226 407 l 226 635 l 1000 635 m 447 521 l 382 118 l 256 258 l 1049 258 l 1049 0 l 61 0 l 139 521 l 61 1042 l 1042 1042 l 1042 783 l 256 783 l 382 924 l 447 521 m 531 1358 l 735 1117 l 418 1117 l 172 1358 l 531 1358 z "},"Ẻ":{"ha":1115,"x_min":61,"x_max":1049,"o":"m 1000 635 l 1000 407 l 226 407 l 226 635 l 1000 635 m 447 521 l 382 118 l 256 258 l 1049 258 l 1049 0 l 61 0 l 139 521 l 61 1042 l 1042 1042 l 1042 783 l 256 783 l 382 924 l 447 521 m 494 1097 l 439 1190 q 531 1216 504 1201 q 557 1246 557 1231 q 538 1269 557 1261 q 478 1276 518 1276 q 419 1273 446 1276 q 363 1264 393 1269 l 363 1418 q 446 1436 392 1428 q 556 1444 500 1444 q 754 1409 686 1444 q 822 1293 822 1374 q 747 1173 822 1221 q 494 1097 672 1125 z "},"Ȇ":{"ha":1115,"x_min":61,"x_max":1049,"o":"m 1000 635 l 1000 407 l 226 407 l 226 635 l 1000 635 m 447 521 l 382 118 l 256 258 l 1049 258 l 1049 0 l 61 0 l 139 521 l 61 1042 l 1042 1042 l 1042 783 l 256 783 l 382 924 l 447 521 m 933 1110 l 693 1110 q 640 1161 672 1143 q 563 1179 607 1179 q 484 1161 517 1179 q 431 1110 451 1143 l 190 1110 q 326 1306 228 1242 q 563 1369 425 1369 q 799 1306 700 1369 q 933 1110 897 1242 z "},"Ē":{"ha":1115,"x_min":61,"x_max":1049,"o":"m 1000 635 l 1000 407 l 226 407 l 226 635 l 1000 635 m 447 521 l 382 118 l 256 258 l 1049 258 l 1049 0 l 61 0 l 139 521 l 61 1042 l 1042 1042 l 1042 783 l 256 783 l 382 924 l 447 521 m 210 1142 l 210 1328 l 913 1328 l 913 1142 l 210 1142 z "},"Ḗ":{"ha":1115,"x_min":61,"x_max":1049,"o":"m 1000 635 l 1000 407 l 226 407 l 226 635 l 1000 635 m 447 521 l 382 118 l 256 258 l 1049 258 l 1049 0 l 61 0 l 139 521 l 61 1042 l 1042 1042 l 1042 783 l 256 783 l 382 924 l 447 521 m 210 1142 l 210 1328 l 913 1328 l 913 1142 l 210 1142 m 579 1653 l 938 1653 l 692 1411 l 375 1411 l 579 1653 z "},"Ḕ":{"ha":1115,"x_min":61,"x_max":1049,"o":"m 1000 635 l 1000 407 l 226 407 l 226 635 l 1000 635 m 447 521 l 382 118 l 256 258 l 1049 258 l 1049 0 l 61 0 l 139 521 l 61 1042 l 1042 1042 l 1042 783 l 256 783 l 382 924 l 447 521 m 211 1142 l 211 1328 l 913 1328 l 913 1142 l 211 1142 m 531 1653 l 735 1411 l 418 1411 l 172 1653 l 531 1653 z "},"Ę":{"ha":1115,"x_min":61,"x_max":1049,"o":"m 1000 635 l 1000 407 l 226 407 l 226 635 l 1000 635 m 447 521 l 382 118 l 256 258 l 1049 258 l 1049 0 l 61 0 l 139 521 l 61 1042 l 1042 1042 l 1042 783 l 256 783 l 382 924 l 447 521 m 918 29 l 1017 17 l 1017 0 l 1049 0 q 960 -28 997 -12 q 903 -60 922 -44 q 883 -92 883 -75 q 968 -129 883 -129 q 1011 -126 992 -129 q 1049 -119 1031 -124 l 1049 -281 q 985 -294 1031 -287 q 889 -301 939 -301 q 724 -264 786 -301 q 661 -167 661 -226 q 726 -49 661 -97 q 918 29 790 -1 z "},"Ɛ":{"ha":1181,"x_min":57,"x_max":1147,"o":"m 1119 700 l 799 700 q 737 788 789 757 q 586 819 685 819 q 450 795 497 819 q 403 724 403 771 q 442 657 403 682 q 585 632 481 632 l 760 632 l 760 419 l 585 419 q 462 410 506 419 q 401 380 418 400 q 385 329 385 360 q 439 250 385 278 q 592 222 493 222 q 760 255 704 222 q 825 347 817 288 l 1147 347 q 1074 151 1143 235 q 881 22 1004 67 q 592 -24 758 -24 q 302 19 422 -24 q 119 135 182 61 q 57 304 57 210 q 110 449 57 393 q 263 530 163 506 q 500 547 363 554 l 500 518 q 257 551 350 517 q 122 643 164 585 q 79 771 79 701 q 140 926 79 860 q 312 1028 201 992 q 568 1065 422 1065 q 865 1015 744 1065 q 1051 883 986 965 q 1119 700 1115 800 z "},"Ǝ":{"ha":1115,"x_min":67,"x_max":1054,"o":"m 115 635 l 889 635 l 889 407 l 115 407 l 115 635 m 668 521 l 733 924 l 860 783 l 74 783 l 74 1042 l 1054 1042 l 976 521 l 1054 0 l 67 0 l 67 258 l 860 258 l 733 118 l 668 521 z "},"Ʃ":{"ha":1124,"x_min":58,"x_max":1075,"o":"m 58 0 l 58 232 l 526 572 l 526 471 l 72 811 l 72 1042 l 1054 1042 l 1054 790 l 196 790 l 306 953 l 746 624 l 746 421 l 363 142 l 218 251 l 1075 251 l 1075 0 l 58 0 z "},"Ɇ":{"ha":1115,"x_min":61,"x_max":1049,"o":"m 747 1211 l 1000 1211 l 608 -169 l 356 -169 l 747 1211 m 1000 635 l 1000 407 l 226 407 l 226 635 l 1000 635 m 447 521 l 382 118 l 256 258 l 1049 258 l 1049 0 l 61 0 l 139 521 l 61 1042 l 1042 1042 l 1042 783 l 256 783 l 382 924 l 447 521 z "},"Ẽ":{"ha":1115,"x_min":61,"x_max":1049,"o":"m 1000 635 l 1000 407 l 226 407 l 226 635 l 1000 635 m 447 521 l 382 118 l 256 258 l 1049 258 l 1049 0 l 61 0 l 139 521 l 61 1042 l 1042 1042 l 1042 783 l 256 783 l 382 924 l 447 521 m 167 1122 q 245 1307 183 1240 q 428 1374 307 1374 q 502 1364 467 1374 q 569 1342 538 1354 q 629 1321 601 1331 q 681 1311 657 1311 q 728 1325 710 1311 q 753 1365 747 1339 l 956 1365 q 878 1182 939 1250 q 696 1114 817 1114 q 622 1124 657 1114 q 554 1146 586 1133 q 494 1168 522 1158 q 442 1178 465 1178 q 394 1164 414 1178 q 371 1122 375 1150 l 167 1122 z "},"Ḛ":{"ha":1115,"x_min":61,"x_max":1049,"o":"m 1000 635 l 1000 407 l 226 407 l 226 635 l 1000 635 m 447 521 l 382 118 l 256 258 l 1049 258 l 1049 0 l 61 0 l 139 521 l 61 1042 l 1042 1042 l 1042 783 l 256 783 l 382 924 l 447 521 m 221 -324 q 279 -125 228 -199 q 435 -51 331 -51 q 508 -62 472 -51 q 576 -86 544 -72 q 635 -110 607 -100 q 685 -121 663 -121 q 732 -103 713 -121 q 757 -54 751 -86 l 938 -54 q 880 -253 932 -179 q 724 -326 828 -326 q 650 -315 686 -326 q 583 -291 614 -304 q 524 -267 551 -278 q 475 -257 497 -257 q 427 -274 446 -257 q 401 -324 408 -292 l 221 -324 z "},"Ə":{"ha":1307,"x_min":44,"x_max":1258,"o":"m 651 1067 q 900 1027 789 1067 q 1092 915 1011 988 q 1215 742 1172 843 q 1258 521 1258 642 q 1181 234 1258 356 q 967 45 1104 113 q 653 -22 831 -22 q 388 24 501 -22 q 198 153 274 71 q 83 347 122 236 q 44 589 44 458 l 961 589 l 961 385 l 260 385 l 383 454 q 425 331 390 382 q 517 253 460 281 q 650 226 575 226 q 799 259 735 226 q 897 356 863 292 q 932 515 932 419 q 897 676 932 611 q 799 774 863 740 q 650 808 735 808 q 522 788 575 808 q 433 735 468 768 q 382 661 399 701 l 57 661 q 162 876 83 785 q 365 1017 240 967 q 651 1067 489 1067 z "},"Ʒ":{"ha":1154,"x_min":17,"x_max":1107,"o":"m 89 1042 l 1049 1042 l 1049 811 l 585 522 l 554 608 l 658 608 q 921 573 822 608 q 1063 473 1019 538 q 1107 322 1107 408 q 1047 144 1107 222 q 869 21 988 65 q 572 -24 750 -24 q 283 22 407 -24 q 91 151 160 67 q 17 347 22 235 l 339 347 q 404 255 349 288 q 572 222 460 222 q 728 253 678 222 q 779 339 779 285 q 761 398 779 374 q 701 435 743 422 q 588 449 660 449 l 408 449 l 408 651 l 896 949 l 926 797 l 89 797 l 89 1042 z "},"Ǯ":{"ha":1154,"x_min":17,"x_max":1107,"o":"m 89 1042 l 1049 1042 l 1049 811 l 585 522 l 554 608 l 658 608 q 921 573 822 608 q 1063 473 1019 538 q 1107 322 1107 408 q 1047 144 1107 222 q 869 21 988 65 q 572 -24 750 -24 q 283 22 407 -24 q 91 151 160 67 q 17 347 22 235 l 339 347 q 404 255 349 288 q 572 222 460 222 q 728 253 678 222 q 779 339 779 285 q 761 398 779 374 q 701 435 743 422 q 588 449 660 449 l 408 449 l 408 651 l 896 949 l 926 797 l 89 797 l 89 1042 m 731 1115 l 399 1115 l 186 1357 l 442 1357 l 639 1213 l 490 1213 l 689 1357 l 944 1357 l 731 1115 z "},"Ƹ":{"ha":1154,"x_min":47,"x_max":1138,"o":"m 1065 1042 l 1065 797 l 228 797 l 258 949 l 746 651 l 746 449 l 567 449 q 453 435 496 449 q 393 398 411 422 q 375 339 375 374 q 426 253 375 285 q 582 222 476 222 q 750 255 694 222 q 815 347 806 288 l 1138 347 q 1064 151 1133 235 q 872 22 994 67 q 582 -24 749 -24 q 285 21 404 -24 q 107 144 167 65 q 47 322 47 222 q 91 473 47 408 q 234 573 135 538 q 496 608 333 608 l 600 608 l 569 522 l 106 811 l 106 1042 l 1065 1042 z "},"F":{"ha":1085,"x_min":90,"x_max":1033,"o":"m 247 625 l 1007 625 l 1007 354 l 247 354 l 247 625 m 1033 1042 l 1033 771 l 263 771 l 414 919 l 414 0 l 90 0 l 90 1042 l 1033 1042 z "},"Ḟ":{"ha":1085,"x_min":90,"x_max":1033,"o":"m 247 625 l 1007 625 l 1007 354 l 247 354 l 247 625 m 1033 1042 l 1033 771 l 263 771 l 414 919 l 414 0 l 90 0 l 90 1042 l 1033 1042 m 544 1110 q 414 1149 464 1110 q 364 1258 364 1189 q 414 1368 364 1328 q 544 1408 464 1408 q 677 1368 628 1408 q 726 1258 726 1328 q 677 1149 726 1189 q 544 1110 628 1110 z "},"Ƒ":{"ha":1085,"x_min":-157,"x_max":1033,"o":"m 247 625 l 1007 625 l 1007 354 l 247 354 l 247 625 m 414 111 q 322 -160 414 -67 q 43 -253 229 -253 q -60 -247 -6 -253 q -157 -226 -114 -240 l -157 11 q -101 -3 -132 3 q -36 -8 -71 -8 q 60 28 31 -8 q 90 132 90 64 l 90 1042 l 1033 1042 l 1033 771 l 263 771 l 414 919 l 414 111 z "},"G":{"ha":1347,"x_min":49,"x_max":1276,"o":"m 1165 450 q 1128 273 1161 358 q 1031 120 1094 188 q 869 15 967 53 q 642 -24 772 -24 q 413 12 519 -24 q 224 116 306 47 q 95 286 142 185 q 49 521 49 388 q 95 756 49 654 q 226 926 142 857 q 420 1030 310 994 q 658 1065 531 1065 q 962 1013 835 1065 q 1167 867 1089 960 q 1267 653 1244 774 l 942 653 q 890 731 929 699 q 792 781 850 764 q 661 799 733 799 q 508 768 572 799 q 408 676 443 738 q 374 521 374 615 q 412 363 374 426 q 522 267 450 299 q 690 235 593 235 q 858 260 785 235 q 975 333 931 285 q 1028 454 1019 382 l 1165 450 m 715 324 l 715 549 l 1276 549 l 1276 0 l 1050 0 l 1003 406 l 1063 324 l 715 324 z "},"Ǵ":{"ha":1347,"x_min":49,"x_max":1276,"o":"m 1165 450 q 1128 273 1161 358 q 1031 120 1094 188 q 869 15 967 53 q 642 -24 772 -24 q 413 12 519 -24 q 224 116 306 47 q 95 286 142 185 q 49 521 49 388 q 95 756 49 654 q 226 926 142 857 q 420 1030 310 994 q 658 1065 531 1065 q 962 1013 835 1065 q 1167 867 1089 960 q 1267 653 1244 774 l 942 653 q 890 731 929 699 q 792 781 850 764 q 661 799 733 799 q 508 768 572 799 q 408 676 443 738 q 374 521 374 615 q 412 363 374 426 q 522 267 450 299 q 690 235 593 235 q 858 260 785 235 q 975 333 931 285 q 1028 454 1019 382 l 1165 450 m 715 324 l 715 549 l 1276 549 l 1276 0 l 1050 0 l 1003 406 l 1063 324 l 715 324 m 678 1358 l 1036 1358 l 790 1117 l 474 1117 l 678 1358 z "},"Ğ":{"ha":1347,"x_min":49,"x_max":1276,"o":"m 1165 450 q 1128 273 1161 358 q 1031 120 1094 188 q 869 15 967 53 q 642 -24 772 -24 q 413 12 519 -24 q 224 116 306 47 q 95 286 142 185 q 49 521 49 388 q 95 756 49 654 q 226 926 142 857 q 420 1030 310 994 q 658 1065 531 1065 q 962 1013 835 1065 q 1167 867 1089 960 q 1267 653 1244 774 l 942 653 q 890 731 929 699 q 792 781 850 764 q 661 799 733 799 q 508 768 572 799 q 408 676 443 738 q 374 521 374 615 q 412 363 374 426 q 522 267 450 299 q 690 235 593 235 q 858 260 785 235 q 975 333 931 285 q 1028 454 1019 382 l 1165 450 m 715 324 l 715 549 l 1276 549 l 1276 0 l 1050 0 l 1003 406 l 1063 324 l 715 324 m 289 1365 l 529 1365 q 583 1313 550 1331 q 660 1296 615 1296 q 738 1313 706 1296 q 792 1365 771 1331 l 1032 1365 q 897 1168 994 1232 q 660 1104 799 1104 q 425 1168 524 1104 q 289 1365 326 1232 z "},"Ǧ":{"ha":1347,"x_min":49,"x_max":1276,"o":"m 1165 450 q 1128 273 1161 358 q 1031 120 1094 188 q 869 15 967 53 q 642 -24 772 -24 q 413 12 519 -24 q 224 116 306 47 q 95 286 142 185 q 49 521 49 388 q 95 756 49 654 q 226 926 142 857 q 420 1030 310 994 q 658 1065 531 1065 q 962 1013 835 1065 q 1167 867 1089 960 q 1267 653 1244 774 l 942 653 q 890 731 929 699 q 792 781 850 764 q 661 799 733 799 q 508 768 572 799 q 408 676 443 738 q 374 521 374 615 q 412 363 374 426 q 522 267 450 299 q 690 235 593 235 q 858 260 785 235 q 975 333 931 285 q 1028 454 1019 382 l 1165 450 m 715 324 l 715 549 l 1276 549 l 1276 0 l 1050 0 l 1003 406 l 1063 324 l 715 324 m 826 1115 l 494 1115 l 281 1357 l 536 1357 l 735 1213 l 586 1213 l 783 1357 l 1039 1357 l 826 1115 z "},"Ĝ":{"ha":1347,"x_min":49,"x_max":1276,"o":"m 1165 450 q 1128 273 1161 358 q 1031 120 1094 188 q 869 15 967 53 q 642 -24 772 -24 q 413 12 519 -24 q 224 116 306 47 q 95 286 142 185 q 49 521 49 388 q 95 756 49 654 q 226 926 142 857 q 420 1030 310 994 q 658 1065 531 1065 q 962 1013 835 1065 q 1167 867 1089 960 q 1267 653 1244 774 l 942 653 q 890 731 929 699 q 792 781 850 764 q 661 799 733 799 q 508 768 572 799 q 408 676 443 738 q 374 521 374 615 q 412 363 374 426 q 522 267 450 299 q 690 235 593 235 q 858 260 785 235 q 975 333 931 285 q 1028 454 1019 382 l 1165 450 m 715 324 l 715 549 l 1276 549 l 1276 0 l 1050 0 l 1003 406 l 1063 324 l 715 324 m 494 1358 l 826 1358 l 1039 1117 l 783 1117 l 586 1261 l 735 1261 l 536 1117 l 281 1117 l 494 1358 z "},"Ģ":{"ha":1347,"x_min":49,"x_max":1276,"o":"m 1165 450 q 1128 273 1161 358 q 1031 120 1094 188 q 869 15 967 53 q 642 -24 772 -24 q 413 12 519 -24 q 224 116 306 47 q 95 286 142 185 q 49 521 49 388 q 95 756 49 654 q 226 926 142 857 q 420 1030 310 994 q 658 1065 531 1065 q 962 1013 835 1065 q 1167 867 1089 960 q 1267 653 1244 774 l 942 653 q 890 731 929 699 q 792 781 850 764 q 661 799 733 799 q 508 768 572 799 q 408 676 443 738 q 374 521 374 615 q 412 363 374 426 q 522 267 450 299 q 690 235 593 235 q 858 260 785 235 q 975 333 931 285 q 1028 454 1019 382 l 1165 450 m 715 324 l 715 549 l 1276 549 l 1276 0 l 1050 0 l 1003 406 l 1063 324 l 715 324 m 522 -450 l 665 -225 l 678 -312 q 557 -278 603 -312 q 511 -186 511 -244 q 557 -93 511 -126 q 678 -60 603 -60 q 798 -93 753 -60 q 843 -187 843 -126 q 821 -262 843 -228 q 751 -353 799 -297 l 669 -450 l 522 -450 z "},"Ġ":{"ha":1347,"x_min":49,"x_max":1276,"o":"m 1165 450 q 1128 273 1161 358 q 1031 120 1094 188 q 869 15 967 53 q 642 -24 772 -24 q 413 12 519 -24 q 224 116 306 47 q 95 286 142 185 q 49 521 49 388 q 95 756 49 654 q 226 926 142 857 q 420 1030 310 994 q 658 1065 531 1065 q 962 1013 835 1065 q 1167 867 1089 960 q 1267 653 1244 774 l 942 653 q 890 731 929 699 q 792 781 850 764 q 661 799 733 799 q 508 768 572 799 q 408 676 443 738 q 374 521 374 615 q 412 363 374 426 q 522 267 450 299 q 690 235 593 235 q 858 260 785 235 q 975 333 931 285 q 1028 454 1019 382 l 1165 450 m 715 324 l 715 549 l 1276 549 l 1276 0 l 1050 0 l 1003 406 l 1063 324 l 715 324 m 660 1110 q 529 1149 579 1110 q 479 1258 479 1189 q 529 1368 479 1328 q 660 1408 579 1408 q 792 1368 743 1408 q 842 1258 842 1328 q 792 1149 842 1189 q 660 1110 743 1110 z "},"Ɠ":{"ha":1415,"x_min":51,"x_max":1435,"o":"m 644 -24 q 415 12 522 -24 q 226 116 308 47 q 98 286 144 185 q 51 521 51 388 q 100 760 51 658 q 232 930 149 863 q 420 1031 315 997 q 638 1065 525 1065 q 937 994 815 1065 q 1132 761 1058 924 l 1054 785 q 994 898 1024 836 q 965 1021 965 960 q 994 1140 965 1086 q 1085 1225 1024 1193 q 1246 1257 1147 1257 q 1344 1250 1296 1257 q 1435 1229 1392 1243 l 1435 993 q 1383 1006 1410 1000 q 1326 1013 1356 1013 q 1232 985 1261 1013 q 1203 908 1203 958 q 1210 853 1203 883 q 1225 790 1217 824 q 1246 722 1235 757 q 1267 653 1257 686 l 944 653 q 892 731 932 699 q 794 781 853 764 q 664 799 736 799 q 510 768 575 799 q 410 676 446 738 q 375 521 375 615 q 414 362 375 425 q 524 267 453 299 q 693 235 596 235 q 860 259 788 235 q 978 333 933 283 q 1031 454 1022 382 l 1168 450 q 1129 273 1163 358 q 1032 120 1096 188 q 872 15 968 53 q 644 -24 775 -24 m 718 358 l 718 549 l 1279 549 l 1279 0 l 1053 0 l 1006 406 l 1064 358 l 718 358 z "},"Ɂ":{"ha":1074,"x_min":8,"x_max":1050,"o":"m 558 1065 q 824 1022 714 1065 q 992 903 933 979 q 1050 725 1050 826 q 1034 615 1050 664 q 983 526 1018 567 q 893 446 947 486 l 806 383 q 729 313 754 346 q 696 241 704 281 q 688 143 688 201 l 688 0 l 365 0 l 365 203 q 382 341 365 283 q 435 444 399 399 q 529 531 471 489 l 624 600 q 685 647 664 629 q 716 681 707 664 q 725 719 725 697 q 681 792 725 764 q 543 819 638 819 q 392 785 444 819 q 329 689 339 751 l 8 689 q 78 877 14 792 q 263 1014 142 963 q 558 1065 383 1065 z "},"Ḡ":{"ha":1347,"x_min":49,"x_max":1276,"o":"m 1165 450 q 1128 273 1161 358 q 1031 120 1094 188 q 869 15 967 53 q 642 -24 772 -24 q 413 12 519 -24 q 224 116 306 47 q 95 286 142 185 q 49 521 49 388 q 95 756 49 654 q 226 926 142 857 q 420 1030 310 994 q 658 1065 531 1065 q 962 1013 835 1065 q 1167 867 1089 960 q 1267 653 1244 774 l 942 653 q 890 731 929 699 q 792 781 850 764 q 661 799 733 799 q 508 768 572 799 q 408 676 443 738 q 374 521 374 615 q 412 363 374 426 q 522 267 450 299 q 690 235 593 235 q 858 260 785 235 q 975 333 931 285 q 1028 454 1019 382 l 1165 450 m 715 324 l 715 549 l 1276 549 l 1276 0 l 1050 0 l 1003 406 l 1063 324 l 715 324 m 308 1142 l 308 1328 l 1011 1328 l 1011 1142 l 308 1142 z "},"Ɡ":{"ha":1300,"x_min":49,"x_max":1215,"o":"m 893 303 l 893 469 l 907 514 l 907 771 l 893 807 l 893 1042 l 1215 1042 l 1215 319 q 1172 71 1215 178 q 1047 -108 1128 -36 q 853 -217 967 -181 q 601 -253 740 -253 q 355 -218 468 -253 q 143 -121 242 -183 l 143 161 q 371 48 257 78 q 578 18 485 18 q 746 47 675 18 q 855 140 817 76 q 893 303 893 203 m 499 160 q 319 192 401 160 q 176 283 236 224 q 82 427 115 343 q 49 613 49 511 q 82 799 49 715 q 176 942 115 882 q 319 1033 236 1001 q 499 1065 401 1065 q 685 1033 603 1065 q 831 949 768 1001 q 935 835 893 896 q 997 714 976 774 q 1018 608 1018 654 q 997 497 1018 557 q 935 378 976 438 q 831 269 893 318 q 685 190 768 219 q 499 160 603 160 m 601 417 q 781 466 703 417 q 907 613 860 515 q 780 759 860 710 q 601 808 700 808 q 483 785 535 808 q 403 718 432 763 q 374 613 374 674 q 403 508 374 551 q 483 440 432 464 q 601 417 535 417 z "},"Ǥ":{"ha":1401,"x_min":49,"x_max":1390,"o":"m 674 389 l 1390 389 l 1390 243 l 674 243 l 674 389 m 731 594 l 1276 594 l 1276 536 l 1167 536 q 1135 315 1167 417 q 1041 136 1104 213 q 878 18 978 60 q 643 -24 778 -24 q 333 44 467 -24 q 124 234 199 111 q 49 521 49 357 q 95 756 49 654 q 226 926 142 857 q 420 1030 310 994 q 658 1065 531 1065 q 952 1017 832 1065 q 1147 885 1072 969 q 1258 690 1222 801 l 919 690 q 872 743 907 718 q 785 784 838 768 q 669 800 733 800 q 512 769 578 800 q 410 676 446 738 q 374 521 374 615 q 406 372 374 436 q 505 271 438 307 q 678 235 572 235 q 868 263 792 235 q 983 340 944 290 q 1021 454 1021 389 l 1021 492 l 1063 417 l 731 417 l 731 594 m 1035 565 l 1276 565 l 1276 1 l 1075 1 l 1035 565 z "},"Ȝ":{"ha":1154,"x_min":17,"x_max":1107,"o":"m 89 1042 l 1049 1042 l 1049 811 l 585 522 l 554 608 l 658 608 q 921 573 822 608 q 1063 473 1019 538 q 1107 322 1107 408 q 1047 144 1107 222 q 869 21 988 65 q 572 -24 750 -24 q 283 22 407 -24 q 91 151 160 67 q 17 347 22 235 l 339 347 q 404 255 349 288 q 572 222 460 222 q 728 253 678 222 q 779 339 779 285 q 761 398 779 374 q 701 435 743 422 q 588 449 660 449 l 408 449 l 408 651 l 896 949 l 926 797 l 89 797 l 89 1042 z "},"H":{"ha":1315,"x_min":90,"x_max":1225,"o":"m 90 1042 l 414 1042 l 414 0 l 90 0 l 90 1042 m 901 1042 l 1225 1042 l 1225 0 l 901 0 l 901 1042 m 272 674 l 1032 674 l 1032 388 l 272 388 l 272 674 z "},"Ħ":{"ha":1369,"x_min":28,"x_max":1342,"o":"m 117 1042 l 440 1042 l 440 0 l 117 0 l 117 1042 m 929 1042 l 1253 1042 l 1253 0 l 929 0 l 929 1042 m 275 626 l 1035 626 l 1035 363 l 275 363 l 275 626 m 28 949 l 1342 949 l 1342 736 l 28 736 l 28 949 z "},"Ḫ":{"ha":1315,"x_min":90,"x_max":1225,"o":"m 90 1042 l 414 1042 l 414 0 l 90 0 l 90 1042 m 901 1042 l 1225 1042 l 1225 0 l 901 0 l 901 1042 m 272 674 l 1032 674 l 1032 388 l 272 388 l 272 674 m 325 -58 l 557 -58 q 599 -126 567 -101 q 678 -150 631 -150 q 758 -126 726 -150 q 800 -58 789 -101 l 1031 -58 q 919 -265 1010 -189 q 678 -340 829 -340 q 438 -265 528 -340 q 325 -58 347 -189 z "},"Ȟ":{"ha":1315,"x_min":90,"x_max":1225,"o":"m 90 1042 l 414 1042 l 414 0 l 90 0 l 90 1042 m 901 1042 l 1225 1042 l 1225 0 l 901 0 l 901 1042 m 272 674 l 1032 674 l 1032 388 l 272 388 l 272 674 m 824 1115 l 492 1115 l 278 1357 l 533 1357 l 732 1213 l 583 1213 l 782 1357 l 1036 1357 l 824 1115 z "},"Ḩ":{"ha":1315,"x_min":-21,"x_max":1225,"o":"m 90 1042 l 414 1042 l 414 0 l 90 0 l 90 1042 m 901 1042 l 1225 1042 l 1225 0 l 901 0 l 901 1042 m 272 674 l 1032 674 l 1032 388 l 272 388 l 272 674 m 188 31 l 336 31 l 265 -96 l 186 -90 q 263 -63 222 -74 q 349 -53 303 -53 q 505 -90 451 -53 q 558 -194 558 -128 q 488 -311 558 -265 q 279 -357 417 -357 q 79 -315 158 -357 q -21 -197 0 -274 l 179 -197 q 211 -222 188 -211 q 279 -232 235 -232 q 345 -219 324 -232 q 367 -187 367 -207 q 349 -158 367 -169 q 293 -146 331 -146 q 252 -149 272 -146 q 215 -158 232 -151 l 64 -158 l 188 31 z "},"Ĥ":{"ha":1315,"x_min":90,"x_max":1225,"o":"m 90 1042 l 414 1042 l 414 0 l 90 0 l 90 1042 m 901 1042 l 1225 1042 l 1225 0 l 901 0 l 901 1042 m 272 674 l 1032 674 l 1032 388 l 272 388 l 272 674 m 492 1358 l 824 1358 l 1036 1117 l 781 1117 l 583 1261 l 732 1261 l 533 1117 l 278 1117 l 492 1358 z "},"Ḧ":{"ha":1315,"x_min":90,"x_max":1225,"o":"m 90 1042 l 414 1042 l 414 0 l 90 0 l 90 1042 m 901 1042 l 1225 1042 l 1225 0 l 901 0 l 901 1042 m 272 674 l 1032 674 l 1032 388 l 272 388 l 272 674 m 439 1110 q 317 1147 363 1110 q 271 1253 271 1185 q 317 1354 271 1317 q 439 1392 363 1392 q 561 1354 515 1392 q 607 1253 607 1317 q 561 1147 607 1185 q 439 1110 515 1110 m 876 1110 q 754 1147 800 1110 q 708 1253 708 1185 q 754 1354 708 1317 q 876 1392 800 1392 q 999 1354 953 1392 q 1044 1253 1044 1317 q 999 1147 1044 1185 q 876 1110 953 1110 z "},"Ḣ":{"ha":1315,"x_min":90,"x_max":1225,"o":"m 90 1042 l 414 1042 l 414 0 l 90 0 l 90 1042 m 901 1042 l 1225 1042 l 1225 0 l 901 0 l 901 1042 m 272 674 l 1032 674 l 1032 388 l 272 388 l 272 674 m 657 1110 q 526 1149 576 1110 q 476 1258 476 1189 q 526 1368 476 1328 q 657 1408 576 1408 q 790 1368 740 1408 q 839 1258 839 1328 q 790 1149 839 1189 q 657 1110 740 1110 z "},"Ḥ":{"ha":1315,"x_min":90,"x_max":1225,"o":"m 90 1042 l 414 1042 l 414 0 l 90 0 l 90 1042 m 901 1042 l 1225 1042 l 1225 0 l 901 0 l 901 1042 m 272 674 l 1032 674 l 1032 388 l 272 388 l 272 674 m 657 -361 q 526 -321 576 -361 q 476 -212 476 -281 q 526 -103 476 -143 q 657 -62 576 -62 q 790 -103 740 -62 q 839 -212 839 -143 q 790 -321 839 -281 q 657 -361 740 -361 z "},"Ꜧ":{"ha":1315,"x_min":90,"x_max":1225,"o":"m 90 1042 l 414 1042 l 414 0 l 90 0 l 90 1042 m 272 674 l 1032 674 l 1032 388 l 272 388 l 272 674 m 901 1042 l 1225 1042 l 1225 90 q 1182 -93 1225 -15 q 1051 -212 1139 -171 q 825 -253 963 -253 q 690 -242 754 -253 q 582 -217 626 -231 l 582 24 q 665 1 619 8 q 760 -7 711 -7 q 867 25 832 -7 q 901 131 901 57 l 901 1042 z "},"Ɦ":{"ha":1658,"x_min":24,"x_max":1568,"o":"m 757 1042 l 757 0 l 433 0 l 433 922 l 571 772 l 390 772 q 320 751 344 772 q 296 679 296 731 q 302 615 296 647 q 315 563 308 582 l 81 563 q 40 659 56 606 q 24 781 24 713 q 97 971 24 900 q 332 1042 169 1042 l 757 1042 m 1246 1042 l 1568 1042 l 1568 0 l 1246 0 l 1246 1042 m 615 674 l 1375 674 l 1375 388 l 615 388 l 615 674 z "},"Ɥ":{"ha":1217,"x_min":78,"x_max":1126,"o":"m 78 1042 l 401 1042 l 401 388 l 78 388 l 78 1042 m 803 1042 l 1126 1042 l 1126 0 l 803 0 l 803 1042 m 260 674 l 932 674 l 932 388 l 260 388 l 260 674 z "},"I":{"ha":503,"x_min":90,"x_max":414,"o":"m 90 1042 l 414 1042 l 414 0 l 90 0 l 90 1042 z "},"Ĳ":{"ha":1186,"x_min":71,"x_max":1108,"o":"m 71 1042 l 394 1042 l 394 579 l 71 579 l 71 1042 m 74 490 l 392 490 l 392 458 q 437 305 392 357 q 586 253 482 253 q 738 301 690 253 q 785 432 785 349 l 785 1042 l 1108 1042 l 1108 415 q 1043 182 1108 281 q 860 30 978 83 q 586 -24 743 -24 q 319 32 432 -24 q 144 190 206 88 q 76 432 82 293 l 74 490 z "},"Í":{"ha":503,"x_min":64,"x_max":628,"o":"m 90 1042 l 414 1042 l 414 0 l 90 0 l 90 1042 m 269 1358 l 628 1358 l 382 1117 l 65 1117 l 269 1358 z "},"Ĭ":{"ha":503,"x_min":-50,"x_max":553,"o":"m -50 1358 l 171 1358 q 195 1299 175 1321 q 251 1276 215 1276 q 308 1299 289 1276 q 333 1358 328 1321 l 553 1358 q 462 1174 542 1244 q 251 1104 382 1104 q 42 1174 122 1104 q -50 1358 -39 1244 m 90 1042 l 414 1042 l 414 0 l 90 0 l 90 1042 z "},"Ǐ":{"ha":503,"x_min":-128,"x_max":631,"o":"m 90 1042 l 414 1042 l 414 0 l 90 0 l 90 1042 m 418 1115 l 86 1115 l -128 1357 l 128 1357 l 326 1213 l 178 1213 l 375 1357 l 631 1357 l 418 1115 z "},"Î":{"ha":503,"x_min":-61,"x_max":564,"o":"m 90 1358 l 414 1358 l 564 1117 l 346 1117 l 213 1260 l 290 1260 l 157 1117 l -61 1117 l 90 1358 m 90 1042 l 414 1042 l 414 0 l 90 0 l 90 1042 z "},"Ȉ":{"ha":503,"x_min":-131,"x_max":575,"o":"m 442 1358 l 575 1117 l 338 1117 l 190 1358 l 442 1358 m 121 1358 l 253 1117 l 17 1117 l -131 1358 l 121 1358 m 90 1042 l 414 1042 l 414 0 l 90 0 l 90 1042 z "},"Ï":{"ha":503,"x_min":-44,"x_max":549,"o":"m 92 1110 q -9 1147 26 1110 q -44 1250 -44 1183 q -9 1355 -44 1318 q 92 1392 26 1392 q 192 1355 156 1392 q 228 1250 228 1318 q 192 1147 228 1183 q 92 1110 156 1110 m 413 1110 q 312 1147 347 1110 q 276 1250 276 1183 q 312 1355 276 1318 q 413 1392 347 1392 q 513 1355 476 1392 q 549 1250 549 1318 q 513 1147 549 1183 q 413 1110 476 1110 m 90 1042 l 414 1042 l 414 0 l 90 0 l 90 1042 z "},"Ḯ":{"ha":503,"x_min":-44,"x_max":629,"o":"m 92 1110 q -9 1147 26 1110 q -44 1250 -44 1183 q -9 1355 -44 1318 q 92 1392 26 1392 q 192 1355 156 1392 q 228 1250 228 1318 q 192 1147 228 1183 q 92 1110 156 1110 m 413 1110 q 312 1147 347 1110 q 276 1250 276 1183 q 312 1355 276 1318 q 413 1392 347 1392 q 513 1355 476 1392 q 549 1250 549 1318 q 513 1147 549 1183 q 413 1110 476 1110 m 90 1042 l 414 1042 l 414 0 l 90 0 l 90 1042 m 271 1694 l 629 1694 l 383 1453 l 65 1453 l 271 1694 z "},"İ":{"ha":503,"x_min":71,"x_max":433,"o":"m 90 1042 l 414 1042 l 414 0 l 90 0 l 90 1042 m 251 1110 q 121 1149 171 1110 q 71 1258 71 1189 q 121 1368 71 1328 q 251 1408 171 1408 q 384 1368 335 1408 q 433 1258 433 1328 q 384 1149 433 1189 q 251 1110 335 1110 z "},"Ị":{"ha":503,"x_min":71,"x_max":433,"o":"m 90 1042 l 414 1042 l 414 0 l 90 0 l 90 1042 m 251 -361 q 121 -321 171 -361 q 71 -212 71 -281 q 121 -103 71 -143 q 251 -62 171 -62 q 384 -103 335 -62 q 433 -212 433 -143 q 384 -321 433 -281 q 251 -361 335 -361 z "},"Ì":{"ha":503,"x_min":-139,"x_max":425,"o":"m 90 1042 l 414 1042 l 414 0 l 90 0 l 90 1042 m 219 1358 l 425 1117 l 107 1117 l -139 1358 l 219 1358 z "},"Ỉ":{"ha":503,"x_min":51,"x_max":513,"o":"m 90 1042 l 414 1042 l 414 0 l 90 0 l 90 1042 m 185 1097 l 129 1190 q 221 1216 194 1201 q 247 1246 247 1231 q 228 1269 247 1261 q 168 1276 208 1276 q 110 1273 136 1276 q 53 1264 83 1269 l 53 1418 q 136 1436 82 1428 q 246 1444 190 1444 q 444 1409 376 1444 q 513 1293 513 1374 q 438 1173 513 1221 q 185 1097 363 1125 z "},"Ȋ":{"ha":503,"x_min":-119,"x_max":622,"o":"m 90 1042 l 414 1042 l 414 0 l 90 0 l 90 1042 m 622 1110 l 382 1110 q 329 1161 361 1143 q 251 1179 297 1179 q 174 1161 206 1179 q 121 1110 142 1143 l -119 1110 q 16 1306 -82 1242 q 251 1369 114 1369 q 488 1306 390 1369 q 622 1110 586 1242 z "},"Ī":{"ha":503,"x_min":-18,"x_max":522,"o":"m -18 1140 l -18 1328 l 522 1328 l 522 1140 l -18 1140 m 90 1042 l 414 1042 l 414 0 l 90 0 l 90 1042 z "},"Į":{"ha":503,"x_min":40,"x_max":428,"o":"m 271 17 l 382 17 l 382 0 l 414 0 q 315 -42 350 -21 q 281 -92 281 -64 q 350 -129 281 -129 q 390 -126 369 -129 q 428 -119 410 -124 l 428 -281 q 364 -294 410 -287 q 268 -301 318 -301 q 103 -263 167 -301 q 40 -162 40 -225 q 99 -55 40 -99 q 271 17 158 -11 m 90 1042 l 414 1042 l 414 0 l 90 0 l 90 1042 z "},"Ɩ":{"ha":633,"x_min":82,"x_max":607,"o":"m 82 1042 l 406 1042 l 406 351 q 428 252 406 283 q 510 221 451 221 q 558 226 533 221 q 607 238 582 231 l 607 1 q 524 -17 571 -10 q 421 -24 476 -24 q 165 67 247 -24 q 82 332 82 158 l 82 1042 z "},"Ɨ":{"ha":615,"x_min":32,"x_max":583,"o":"m 32 428 l 32 643 l 583 643 l 583 428 l 32 428 m 146 1042 l 469 1042 l 469 0 l 146 0 l 146 1042 z "},"Ĩ":{"ha":503,"x_min":-42,"x_max":543,"o":"m -42 1118 q 11 1296 -35 1231 q 146 1361 57 1361 q 207 1351 182 1361 q 252 1328 232 1342 q 291 1306 272 1315 q 331 1296 310 1296 q 370 1313 356 1296 q 390 1358 385 1329 l 543 1358 q 492 1181 538 1246 q 357 1115 446 1115 q 297 1125 322 1115 q 251 1148 271 1135 q 212 1171 231 1161 q 172 1181 193 1181 q 133 1165 147 1181 q 113 1118 118 1149 l -42 1118 m 90 1042 l 414 1042 l 414 0 l 90 0 l 90 1042 z "},"Ḭ":{"ha":503,"x_min":-42,"x_max":543,"o":"m -42 -300 q 11 -122 -35 -187 q 146 -57 57 -57 q 207 -67 182 -57 q 252 -90 232 -76 q 291 -112 272 -103 q 331 -122 310 -122 q 370 -106 356 -122 q 390 -60 385 -89 l 543 -60 q 492 -237 538 -172 q 357 -303 446 -303 q 297 -293 322 -303 q 251 -270 271 -283 q 212 -247 231 -257 q 172 -237 193 -237 q 133 -254 147 -237 q 113 -300 118 -271 l -42 -300 m 90 1042 l 414 1042 l 414 0 l 90 0 l 90 1042 z "},"J":{"ha":1132,"x_min":21,"x_max":1054,"o":"m 21 518 l 338 518 l 338 486 q 382 312 338 371 q 533 253 426 253 q 684 308 638 253 q 731 460 731 363 l 731 1042 l 1054 1042 l 1054 443 q 989 195 1054 300 q 807 33 924 90 q 533 -24 690 -24 q 265 35 379 -24 q 87 203 150 94 q 24 460 24 313 l 21 518 z "},"Ĵ":{"ha":1132,"x_min":21,"x_max":1206,"o":"m 731 1358 l 1054 1358 l 1206 1117 l 988 1117 l 854 1260 l 932 1260 l 799 1117 l 581 1117 l 731 1358 m 21 518 l 338 518 l 338 486 q 382 312 338 371 q 533 253 426 253 q 684 308 638 253 q 731 460 731 363 l 731 1042 l 1054 1042 l 1054 443 q 989 195 1054 300 q 807 33 924 90 q 533 -24 690 -24 q 265 35 379 -24 q 87 203 150 94 q 24 460 24 313 l 21 518 z "},"Ʝ":{"ha":1219,"x_min":15,"x_max":1165,"o":"m 1076 443 q 1016 203 1076 310 q 831 37 956 97 q 517 -24 707 -24 q 233 22 344 -24 q 69 140 122 67 q 15 299 15 214 q 44 417 15 361 q 133 518 74 474 q 289 588 193 563 q 518 613 385 613 q 763 581 646 613 q 981 499 879 550 q 1165 389 1082 449 l 1165 132 q 1029 232 1106 185 q 866 315 953 279 q 690 370 779 350 q 519 390 601 390 q 378 365 424 390 q 333 304 333 340 q 351 265 333 283 q 407 236 369 247 q 504 225 444 225 q 691 278 629 225 q 753 424 753 331 l 753 1042 l 1076 1042 l 1076 443 z "},"Ɉ":{"ha":1206,"x_min":21,"x_max":1169,"o":"m 538 724 l 1169 724 l 1169 507 l 538 507 l 538 724 m 21 518 l 338 518 l 338 486 q 382 312 338 371 q 533 253 426 253 q 684 308 638 253 q 731 460 731 363 l 731 1042 l 1054 1042 l 1054 443 q 989 195 1054 300 q 807 33 924 90 q 533 -24 690 -24 q 265 35 379 -24 q 87 203 150 94 q 24 460 24 313 l 21 518 z "},"K":{"ha":1225,"x_min":90,"x_max":1236,"o":"m 90 0 l 90 1042 l 411 1042 l 411 254 l 328 322 l 882 1042 l 1221 1042 l 383 0 l 90 0 m 589 488 l 826 679 l 1236 0 l 869 0 l 589 488 z "},"Ḱ":{"ha":1225,"x_min":90,"x_max":1236,"o":"m 90 0 l 90 1042 l 411 1042 l 411 254 l 328 322 l 882 1042 l 1221 1042 l 383 0 l 90 0 m 589 488 l 826 679 l 1236 0 l 869 0 l 589 488 m 665 1358 l 1024 1358 l 778 1117 l 461 1117 l 665 1358 z "},"Ǩ":{"ha":1225,"x_min":90,"x_max":1236,"o":"m 90 0 l 90 1042 l 411 1042 l 411 254 l 328 322 l 882 1042 l 1221 1042 l 383 0 l 90 0 m 589 488 l 826 679 l 1236 0 l 869 0 l 589 488 m 814 1115 l 482 1115 l 269 1357 l 525 1357 l 722 1213 l 574 1213 l 772 1357 l 1028 1357 l 814 1115 z "},"Ķ":{"ha":1225,"x_min":90,"x_max":1236,"o":"m 90 0 l 90 1042 l 411 1042 l 411 254 l 328 322 l 882 1042 l 1221 1042 l 383 0 l 90 0 m 589 488 l 826 679 l 1236 0 l 869 0 l 589 488 m 481 -450 l 624 -225 l 636 -312 q 515 -278 561 -312 q 469 -186 469 -244 q 515 -93 469 -126 q 636 -60 561 -60 q 756 -93 711 -60 q 801 -187 801 -126 q 779 -262 801 -228 q 710 -353 757 -297 l 628 -450 l 481 -450 z "},"Ḳ":{"ha":1225,"x_min":90,"x_max":1236,"o":"m 90 0 l 90 1042 l 411 1042 l 411 254 l 328 322 l 882 1042 l 1221 1042 l 383 0 l 90 0 m 589 488 l 826 679 l 1236 0 l 869 0 l 589 488 m 636 -361 q 506 -321 556 -361 q 456 -212 456 -281 q 506 -103 456 -143 q 636 -62 556 -62 q 769 -103 719 -62 q 818 -212 818 -143 q 769 -321 818 -281 q 636 -361 719 -361 z "},"Ƙ":{"ha":1253,"x_min":90,"x_max":1238,"o":"m 585 490 l 822 681 l 1238 0 l 869 0 l 585 490 m 90 0 l 90 1042 l 411 1042 l 411 254 l 328 322 l 758 913 q 831 993 793 958 q 919 1047 868 1028 q 1044 1065 971 1065 q 1138 1058 1096 1065 q 1218 1040 1179 1051 l 1218 804 q 1156 820 1183 815 q 1100 825 1128 825 q 1022 806 1051 825 q 965 753 993 786 l 383 0 l 90 0 z "},"Ḵ":{"ha":1225,"x_min":90,"x_max":1236,"o":"m 90 0 l 90 1042 l 411 1042 l 411 254 l 328 322 l 882 1042 l 1221 1042 l 383 0 l 90 0 m 589 488 l 826 679 l 1236 0 l 869 0 l 589 488 m 307 -276 l 307 -89 l 1008 -89 l 1008 -276 l 307 -276 z "},"L":{"ha":1072,"x_min":90,"x_max":1044,"o":"m 414 1042 l 414 143 l 268 288 l 1044 288 l 1044 0 l 90 0 l 90 1042 l 414 1042 z "},"Ǉ":{"ha":2188,"x_min":90,"x_max":2111,"o":"m 414 1042 l 414 143 l 268 288 l 1044 288 l 1044 0 l 90 0 l 90 1042 l 414 1042 m 1076 518 l 1393 518 l 1393 486 q 1438 312 1393 371 q 1589 253 1482 253 q 1740 308 1693 253 q 1786 460 1786 363 l 1786 1042 l 2110 1042 l 2110 443 q 2044 195 2110 300 q 1863 33 1979 90 q 1589 -24 1746 -24 q 1320 35 1435 -24 q 1142 203 1206 94 q 1079 460 1079 313 l 1076 518 z "},"Ĺ":{"ha":1072,"x_min":64,"x_max":1044,"o":"m 414 1042 l 414 143 l 268 288 l 1044 288 l 1044 0 l 90 0 l 90 1042 l 414 1042 m 269 1358 l 628 1358 l 382 1117 l 65 1117 l 269 1358 z "},"Ƚ":{"ha":1129,"x_min":32,"x_max":1101,"o":"m 32 700 l 781 700 l 781 483 l 32 483 l 32 700 m 469 1042 l 469 143 l 324 288 l 1101 288 l 1101 0 l 146 0 l 146 1042 l 469 1042 z "},"Ɬ":{"ha":1332,"x_min":7,"x_max":1304,"o":"m 238 811 q 387 773 328 811 q 476 672 446 735 q 506 538 506 610 l 506 363 l 386 363 l 386 543 q 353 633 386 603 q 275 664 321 664 q 224 649 242 664 q 206 611 206 635 q 229 565 206 582 q 306 547 253 547 q 383 554 342 547 q 467 569 424 561 l 586 606 q 742 663 660 626 q 917 753 824 699 l 917 558 q 754 485 835 518 q 594 429 674 451 l 483 401 q 394 388 440 393 q 301 382 347 382 q 83 441 160 382 q 7 603 7 500 q 67 752 7 693 q 238 811 126 811 m 672 1042 l 672 143 l 528 288 l 1304 288 l 1304 0 l 350 0 l 350 1042 l 672 1042 z "},"Ľ":{"ha":1072,"x_min":90,"x_max":1044,"o":"m 414 1042 l 414 143 l 268 288 l 1044 288 l 1044 0 l 90 0 l 90 1042 l 414 1042 m 567 1042 l 842 1042 l 742 700 l 526 700 l 567 1042 z "},"Ḽ":{"ha":1072,"x_min":90,"x_max":1044,"o":"m 414 1042 l 414 143 l 268 288 l 1044 288 l 1044 0 l 90 0 l 90 1042 l 414 1042 m 422 -58 l 746 -58 l 944 -328 l 697 -328 l 510 -132 l 658 -132 l 472 -328 l 224 -328 l 422 -58 z "},"Ļ":{"ha":1072,"x_min":90,"x_max":1044,"o":"m 414 1042 l 414 143 l 268 288 l 1044 288 l 1044 0 l 90 0 l 90 1042 l 414 1042 m 429 -450 l 572 -225 l 585 -312 q 464 -278 510 -312 q 418 -186 418 -244 q 464 -93 418 -126 q 585 -60 510 -60 q 705 -93 660 -60 q 750 -187 750 -126 q 728 -262 750 -228 q 658 -353 706 -297 l 576 -450 l 429 -450 z "},"Ŀ":{"ha":1072,"x_min":90,"x_max":1044,"o":"m 414 1042 l 414 143 l 268 288 l 1044 288 l 1044 0 l 90 0 l 90 1042 l 414 1042 m 788 481 q 699 504 739 481 q 635 568 658 528 q 611 658 611 608 q 635 749 611 708 q 699 812 658 789 q 789 835 739 835 q 878 812 839 835 q 942 749 918 789 q 965 658 965 708 q 942 568 965 608 q 878 504 918 528 q 788 481 839 481 z "},"Ḷ":{"ha":1072,"x_min":90,"x_max":1044,"o":"m 414 1042 l 414 143 l 268 288 l 1044 288 l 1044 0 l 90 0 l 90 1042 l 414 1042 m 583 -361 q 453 -321 503 -361 q 403 -212 403 -281 q 453 -103 403 -143 q 583 -62 503 -62 q 716 -103 667 -62 q 765 -212 765 -143 q 716 -321 765 -281 q 583 -361 667 -361 z "},"Ḹ":{"ha":1072,"x_min":-100,"x_max":1044,"o":"m 414 1042 l 414 143 l 268 288 l 1044 288 l 1044 0 l 90 0 l 90 1042 l 414 1042 m 583 -361 q 453 -321 503 -361 q 403 -212 403 -281 q 453 -103 403 -143 q 583 -62 503 -62 q 716 -103 667 -62 q 765 -212 765 -143 q 716 -321 765 -281 q 583 -361 667 -361 m -100 1142 l -100 1328 l 603 1328 l 603 1142 l -100 1142 z "},"ǈ":{"ha":1536,"x_min":90,"x_max":1486,"o":"m 414 1042 l 414 143 l 268 288 l 1044 288 l 1044 0 l 90 0 l 90 1042 l 414 1042 m 1144 811 l 1304 778 l 1463 811 l 1463 -229 l 1144 -229 l 1144 811 m 1304 864 q 1174 904 1224 864 q 1124 1013 1124 944 q 1174 1122 1124 1082 q 1304 1163 1224 1163 q 1437 1122 1388 1163 q 1486 1013 1486 1082 q 1437 904 1486 944 q 1304 864 1388 864 z "},"Ḻ":{"ha":1072,"x_min":90,"x_max":1044,"o":"m 414 1042 l 414 143 l 268 288 l 1044 288 l 1044 0 l 90 0 l 90 1042 l 414 1042 m 254 -276 l 254 -89 l 956 -89 l 956 -276 l 254 -276 z "},"Ł":{"ha":1117,"x_min":50,"x_max":1088,"o":"m 50 626 l 760 813 l 760 597 l 50 411 l 50 626 m 457 1042 l 457 143 l 311 288 l 1088 288 l 1088 0 l 133 0 l 133 1042 l 457 1042 z "},"M":{"ha":1743,"x_min":90,"x_max":1654,"o":"m 1654 1042 l 1654 0 l 1346 0 l 1346 922 l 1410 915 l 1033 0 l 711 0 l 333 913 l 397 921 l 397 0 l 90 0 l 90 1042 l 589 1042 l 932 171 l 814 171 l 1154 1042 l 1654 1042 z "},"Ḿ":{"ha":1743,"x_min":90,"x_max":1654,"o":"m 1654 1042 l 1654 0 l 1346 0 l 1346 922 l 1410 915 l 1033 0 l 711 0 l 333 913 l 397 921 l 397 0 l 90 0 l 90 1042 l 589 1042 l 932 171 l 814 171 l 1154 1042 l 1654 1042 m 890 1358 l 1249 1358 l 1003 1117 l 686 1117 l 890 1358 z "},"Ṁ":{"ha":1743,"x_min":90,"x_max":1654,"o":"m 1654 1042 l 1654 0 l 1346 0 l 1346 922 l 1410 915 l 1033 0 l 711 0 l 333 913 l 397 921 l 397 0 l 90 0 l 90 1042 l 589 1042 l 932 171 l 814 171 l 1154 1042 l 1654 1042 m 872 1110 q 742 1149 792 1110 q 692 1258 692 1189 q 742 1368 692 1328 q 872 1408 792 1408 q 1005 1368 956 1408 q 1054 1258 1054 1328 q 1005 1149 1054 1189 q 872 1110 956 1110 z "},"Ṃ":{"ha":1743,"x_min":90,"x_max":1654,"o":"m 1654 1042 l 1654 0 l 1346 0 l 1346 922 l 1410 915 l 1033 0 l 711 0 l 333 913 l 397 921 l 397 0 l 90 0 l 90 1042 l 589 1042 l 932 171 l 814 171 l 1154 1042 l 1654 1042 m 872 -361 q 742 -321 792 -361 q 692 -212 692 -281 q 742 -103 692 -143 q 872 -62 792 -62 q 1005 -103 956 -62 q 1054 -212 1054 -143 q 1005 -321 1054 -281 q 872 -361 956 -361 z "},"Ɱ":{"ha":1743,"x_min":90,"x_max":1654,"o":"m 1346 132 l 1346 922 l 1410 915 l 1033 0 l 711 0 l 333 913 l 397 921 l 397 0 l 90 0 l 90 1042 l 589 1042 l 932 171 l 814 171 l 1154 1042 l 1654 1042 l 1654 111 q 1569 -160 1654 -67 q 1300 -253 1485 -253 q 1197 -247 1251 -253 q 1100 -226 1143 -240 l 1100 11 q 1154 -3 1124 3 q 1219 -8 1185 -8 q 1317 28 1288 -8 q 1346 132 1346 64 z "},"Ɯ":{"ha":1742,"x_min":82,"x_max":1692,"o":"m 1692 0 l 1368 0 l 1314 340 l 1314 1042 l 1638 1042 l 1638 281 l 1692 0 m 1046 -24 q 858 24 936 -24 q 740 158 781 72 q 699 360 699 244 l 699 1042 l 1021 1042 l 1021 406 q 1057 288 1021 329 q 1161 247 1093 247 q 1244 269 1210 247 q 1296 331 1278 290 q 1314 426 1314 371 l 1411 376 q 1340 155 1393 244 q 1212 21 1288 65 q 1046 -24 1136 -24 m 432 -24 q 243 22 321 -24 q 124 152 165 68 q 82 349 82 236 l 82 1042 l 406 1042 l 406 406 q 441 288 406 329 q 544 247 476 247 q 627 269 593 247 q 680 331 661 290 q 699 426 699 371 l 796 376 q 726 155 778 244 q 598 21 674 65 q 432 -24 522 -24 z "},"N":{"ha":1365,"x_min":90,"x_max":1276,"o":"m 1056 231 l 963 211 l 963 1042 l 1276 1042 l 1276 0 l 871 0 l 311 831 l 403 850 l 403 0 l 90 0 l 90 1042 l 508 1042 l 1056 231 z "},"Ǌ":{"ha":2497,"x_min":90,"x_max":2421,"o":"m 1056 231 l 963 211 l 963 1042 l 1276 1042 l 1276 0 l 871 0 l 311 831 l 403 850 l 403 0 l 90 0 l 90 1042 l 508 1042 l 1056 231 m 1386 518 l 1703 518 l 1703 486 q 1747 312 1703 371 q 1899 253 1792 253 q 2049 308 2003 253 q 2096 460 2096 363 l 2096 1042 l 2419 1042 l 2419 443 q 2354 195 2419 300 q 2172 33 2289 90 q 1899 -24 2056 -24 q 1630 35 1744 -24 q 1452 203 1515 94 q 1389 460 1389 313 l 1386 518 z "},"Ń":{"ha":1365,"x_min":90,"x_max":1276,"o":"m 1056 231 l 963 211 l 963 1042 l 1276 1042 l 1276 0 l 871 0 l 311 831 l 403 850 l 403 0 l 90 0 l 90 1042 l 508 1042 l 1056 231 m 719 1358 l 1078 1358 l 832 1117 l 515 1117 l 719 1358 z "},"Ň":{"ha":1365,"x_min":90,"x_max":1276,"o":"m 1056 231 l 963 211 l 963 1042 l 1276 1042 l 1276 0 l 871 0 l 311 831 l 403 850 l 403 0 l 90 0 l 90 1042 l 508 1042 l 1056 231 m 868 1115 l 536 1115 l 324 1357 l 579 1357 l 776 1213 l 628 1213 l 826 1357 l 1082 1357 l 868 1115 z "},"Ṋ":{"ha":1365,"x_min":90,"x_max":1276,"o":"m 1056 231 l 963 211 l 963 1042 l 1276 1042 l 1276 0 l 871 0 l 311 831 l 403 850 l 403 0 l 90 0 l 90 1042 l 508 1042 l 1056 231 m 521 -58 l 844 -58 l 1043 -328 l 796 -328 l 608 -132 l 757 -132 l 571 -328 l 322 -328 l 521 -58 z "},"Ņ":{"ha":1365,"x_min":90,"x_max":1276,"o":"m 1056 231 l 963 211 l 963 1042 l 1276 1042 l 1276 0 l 871 0 l 311 831 l 403 850 l 403 0 l 90 0 l 90 1042 l 508 1042 l 1056 231 m 528 -450 l 671 -225 l 683 -312 q 563 -278 608 -312 q 517 -186 517 -244 q 563 -93 517 -126 q 683 -60 608 -60 q 803 -93 758 -60 q 849 -187 849 -126 q 826 -262 849 -228 q 757 -353 804 -297 l 675 -450 l 528 -450 z "},"Ṅ":{"ha":1365,"x_min":90,"x_max":1276,"o":"m 1056 231 l 963 211 l 963 1042 l 1276 1042 l 1276 0 l 871 0 l 311 831 l 403 850 l 403 0 l 90 0 l 90 1042 l 508 1042 l 1056 231 m 703 1110 q 572 1149 622 1110 q 522 1258 522 1189 q 572 1368 522 1328 q 703 1408 622 1408 q 835 1368 786 1408 q 885 1258 885 1328 q 835 1149 885 1189 q 703 1110 786 1110 z "},"Ṇ":{"ha":1365,"x_min":90,"x_max":1276,"o":"m 1056 231 l 963 211 l 963 1042 l 1276 1042 l 1276 0 l 871 0 l 311 831 l 403 850 l 403 0 l 90 0 l 90 1042 l 508 1042 l 1056 231 m 683 -361 q 553 -321 603 -361 q 503 -212 503 -281 q 553 -103 503 -143 q 683 -62 603 -62 q 816 -103 767 -62 q 865 -212 865 -143 q 816 -321 865 -281 q 683 -361 767 -361 z "},"Ǹ":{"ha":1365,"x_min":90,"x_max":1276,"o":"m 1056 231 l 963 211 l 963 1042 l 1276 1042 l 1276 0 l 871 0 l 311 831 l 403 850 l 403 0 l 90 0 l 90 1042 l 508 1042 l 1056 231 m 671 1358 l 876 1117 l 558 1117 l 313 1358 l 671 1358 z "},"Ɲ":{"ha":1365,"x_min":-157,"x_max":1276,"o":"m 90 1042 l 508 1042 l 1056 231 l 963 211 l 963 1042 l 1276 1042 l 1276 0 l 871 0 l 311 831 l 403 850 l 403 113 q 315 -160 403 -67 q 40 -253 226 -253 q -61 -247 -8 -253 q -157 -226 -114 -240 l -157 10 q -102 -3 -132 3 q -39 -8 -72 -8 q 60 28 31 -8 q 90 132 90 64 l 90 1042 z "},"ǋ":{"ha":1829,"x_min":90,"x_max":1779,"o":"m 1056 231 l 963 211 l 963 1042 l 1276 1042 l 1276 0 l 871 0 l 311 831 l 403 850 l 403 0 l 90 0 l 90 1042 l 508 1042 l 1056 231 m 1438 811 l 1597 778 l 1756 811 l 1756 -229 l 1438 -229 l 1438 811 m 1597 864 q 1467 904 1517 864 q 1417 1013 1417 944 q 1467 1122 1417 1082 q 1597 1163 1517 1163 q 1730 1122 1681 1163 q 1779 1013 1779 1082 q 1730 904 1779 944 q 1597 864 1681 864 z "},"Ṉ":{"ha":1365,"x_min":90,"x_max":1276,"o":"m 1056 231 l 963 211 l 963 1042 l 1276 1042 l 1276 0 l 871 0 l 311 831 l 403 850 l 403 0 l 90 0 l 90 1042 l 508 1042 l 1056 231 m 354 -276 l 354 -89 l 1056 -89 l 1056 -276 l 354 -276 z "},"Ƞ":{"ha":1257,"x_min":90,"x_max":1178,"o":"m 90 1042 l 414 1042 l 414 0 l 90 0 l 90 1042 m 763 1065 q 985 1015 892 1065 q 1128 870 1078 964 q 1178 651 1178 776 l 1178 -229 l 854 -229 l 854 575 q 799 724 854 672 q 642 776 744 776 q 518 751 569 776 q 440 676 467 725 q 414 560 414 628 l 314 608 q 406 878 344 778 q 559 1022 468 978 q 763 1065 650 1065 z "},"Ñ":{"ha":1365,"x_min":90,"x_max":1276,"o":"m 1056 231 l 963 211 l 963 1042 l 1276 1042 l 1276 0 l 871 0 l 311 831 l 403 850 l 403 0 l 90 0 l 90 1042 l 508 1042 l 1056 231 m 307 1122 q 385 1307 324 1240 q 568 1374 447 1374 q 642 1364 607 1374 q 710 1342 678 1354 q 769 1321 742 1331 q 821 1311 797 1311 q 869 1325 850 1311 q 893 1365 888 1339 l 1096 1365 q 1018 1182 1079 1250 q 836 1114 957 1114 q 762 1124 797 1114 q 694 1146 726 1133 q 634 1168 663 1158 q 582 1178 606 1178 q 535 1164 554 1178 q 511 1122 515 1150 l 307 1122 z "},"Ŋ":{"ha":1289,"x_min":90,"x_max":1210,"o":"m 90 1042 l 414 1042 l 414 0 l 90 0 l 90 1042 m 1210 653 l 1210 90 q 1166 -93 1210 -15 q 1034 -212 1122 -171 q 807 -253 946 -253 q 672 -242 736 -253 q 565 -217 608 -231 l 565 24 q 647 2 599 11 q 749 -7 696 -7 q 854 28 822 -7 q 886 129 886 63 l 886 576 q 827 726 886 674 q 657 778 768 778 q 526 751 581 778 q 442 676 471 725 q 414 557 414 626 l 314 608 q 414 878 344 778 q 578 1022 483 978 q 778 1065 672 1065 q 1009 1015 913 1065 q 1158 871 1106 964 q 1210 653 1210 778 z "},"O":{"ha":1347,"x_min":47,"x_max":1300,"o":"m 674 -24 q 345 44 486 -24 q 126 235 204 113 q 47 521 47 357 q 126 807 47 685 q 345 997 204 929 q 674 1065 486 1065 q 1002 997 861 1065 q 1222 807 1143 929 q 1300 521 1300 685 q 1222 235 1300 357 q 1002 44 1143 113 q 674 -24 861 -24 m 674 264 q 834 295 767 264 q 938 384 901 326 q 974 521 974 442 q 938 658 974 600 q 834 747 901 715 q 674 778 767 778 q 513 747 581 778 q 410 658 446 715 q 374 521 374 600 q 410 384 374 442 q 513 295 446 326 q 674 264 581 264 z "},"Ó":{"ha":1347,"x_min":47,"x_max":1300,"o":"m 674 -24 q 345 44 486 -24 q 126 235 204 113 q 47 521 47 357 q 126 807 47 685 q 345 997 204 929 q 674 1065 486 1065 q 1002 997 861 1065 q 1222 807 1143 929 q 1300 521 1300 685 q 1222 235 1300 357 q 1002 44 1143 113 q 674 -24 861 -24 m 674 264 q 834 295 767 264 q 938 384 901 326 q 974 521 974 442 q 938 658 974 600 q 834 747 901 715 q 674 778 767 778 q 513 747 581 778 q 410 658 446 715 q 374 521 374 600 q 410 384 374 442 q 513 295 446 326 q 674 264 581 264 m 692 1358 l 1050 1358 l 804 1117 l 488 1117 l 692 1358 z "},"Ŏ":{"ha":1347,"x_min":47,"x_max":1300,"o":"m 674 -24 q 345 44 486 -24 q 126 235 204 113 q 47 521 47 357 q 126 807 47 685 q 345 997 204 929 q 674 1065 486 1065 q 1002 997 861 1065 q 1222 807 1143 929 q 1300 521 1300 685 q 1222 235 1300 357 q 1002 44 1143 113 q 674 -24 861 -24 m 674 264 q 834 295 767 264 q 938 384 901 326 q 974 521 974 442 q 938 658 974 600 q 834 747 901 715 q 674 778 767 778 q 513 747 581 778 q 410 658 446 715 q 374 521 374 600 q 410 384 374 442 q 513 295 446 326 q 674 264 581 264 m 303 1365 l 543 1365 q 597 1313 564 1331 q 674 1296 629 1296 q 752 1313 719 1296 q 806 1365 785 1331 l 1046 1365 q 910 1168 1008 1232 q 674 1104 813 1104 q 439 1168 538 1104 q 303 1365 340 1232 z "},"Ǒ":{"ha":1347,"x_min":47,"x_max":1300,"o":"m 674 -24 q 345 44 486 -24 q 126 235 204 113 q 47 521 47 357 q 126 807 47 685 q 345 997 204 929 q 674 1065 486 1065 q 1002 997 861 1065 q 1222 807 1143 929 q 1300 521 1300 685 q 1222 235 1300 357 q 1002 44 1143 113 q 674 -24 861 -24 m 674 264 q 834 295 767 264 q 938 384 901 326 q 974 521 974 442 q 938 658 974 600 q 834 747 901 715 q 674 778 767 778 q 513 747 581 778 q 410 658 446 715 q 374 521 374 600 q 410 384 374 442 q 513 295 446 326 q 674 264 581 264 m 840 1115 l 508 1115 l 294 1357 l 550 1357 l 749 1213 l 600 1213 l 797 1357 l 1053 1357 l 840 1115 z "},"Ɵ":{"ha":1347,"x_min":47,"x_max":1300,"o":"m 128 633 l 1175 633 l 1175 408 l 128 408 l 128 633 m 674 -24 q 345 44 486 -24 q 126 235 204 113 q 47 521 47 357 q 126 807 47 685 q 345 997 204 929 q 674 1065 486 1065 q 1002 997 861 1065 q 1222 807 1143 929 q 1300 521 1300 685 q 1222 235 1300 357 q 1002 44 1143 113 q 674 -24 861 -24 m 674 244 q 840 278 771 244 q 947 374 910 311 q 985 521 985 436 q 947 669 985 607 q 840 764 910 731 q 674 797 771 797 q 508 764 578 797 q 401 669 439 731 q 363 521 363 607 q 401 374 363 436 q 508 278 439 311 q 674 244 578 244 z "},"Ô":{"ha":1347,"x_min":47,"x_max":1300,"o":"m 674 -24 q 345 44 486 -24 q 126 235 204 113 q 47 521 47 357 q 126 807 47 685 q 345 997 204 929 q 674 1065 486 1065 q 1002 997 861 1065 q 1222 807 1143 929 q 1300 521 1300 685 q 1222 235 1300 357 q 1002 44 1143 113 q 674 -24 861 -24 m 674 264 q 834 295 767 264 q 938 384 901 326 q 974 521 974 442 q 938 658 974 600 q 834 747 901 715 q 674 778 767 778 q 513 747 581 778 q 410 658 446 715 q 374 521 374 600 q 410 384 374 442 q 513 295 446 326 q 674 264 581 264 m 508 1358 l 840 1358 l 1053 1117 l 797 1117 l 600 1261 l 749 1261 l 550 1117 l 294 1117 l 508 1358 z "},"Ố":{"ha":1347,"x_min":47,"x_max":1339,"o":"m 674 -24 q 345 44 486 -24 q 126 235 204 113 q 47 521 47 357 q 126 807 47 685 q 345 997 204 929 q 674 1065 486 1065 q 1002 997 861 1065 q 1222 807 1143 929 q 1300 521 1300 685 q 1222 235 1300 357 q 1002 44 1143 113 q 674 -24 861 -24 m 674 264 q 834 295 767 264 q 938 384 901 326 q 974 521 974 442 q 938 658 974 600 q 834 747 901 715 q 674 778 767 778 q 513 747 581 778 q 410 658 446 715 q 374 521 374 600 q 410 384 374 442 q 513 295 446 326 q 674 264 581 264 m 1056 1536 l 1340 1536 l 1164 1306 l 922 1306 l 1056 1536 m 508 1358 l 840 1358 l 1054 1117 l 799 1117 l 600 1261 l 749 1261 l 550 1117 l 296 1117 l 508 1358 z "},"Ộ":{"ha":1347,"x_min":47,"x_max":1300,"o":"m 674 -24 q 345 44 486 -24 q 126 235 204 113 q 47 521 47 357 q 126 807 47 685 q 345 997 204 929 q 674 1065 486 1065 q 1002 997 861 1065 q 1222 807 1143 929 q 1300 521 1300 685 q 1222 235 1300 357 q 1002 44 1143 113 q 674 -24 861 -24 m 674 264 q 834 295 767 264 q 938 384 901 326 q 974 521 974 442 q 938 658 974 600 q 834 747 901 715 q 674 778 767 778 q 513 747 581 778 q 410 658 446 715 q 374 521 374 600 q 410 384 374 442 q 513 295 446 326 q 674 264 581 264 m 674 -361 q 543 -321 593 -361 q 493 -212 493 -281 q 543 -103 493 -143 q 674 -62 593 -62 q 806 -103 757 -62 q 856 -212 856 -143 q 806 -321 856 -281 q 674 -361 757 -361 m 508 1358 l 840 1358 l 1053 1117 l 797 1117 l 600 1261 l 749 1261 l 550 1117 l 294 1117 l 508 1358 z "},"Ồ":{"ha":1347,"x_min":47,"x_max":1300,"o":"m 674 -24 q 345 44 486 -24 q 126 235 204 113 q 47 521 47 357 q 126 807 47 685 q 345 997 204 929 q 674 1065 486 1065 q 1002 997 861 1065 q 1222 807 1143 929 q 1300 521 1300 685 q 1222 235 1300 357 q 1002 44 1143 113 q 674 -24 861 -24 m 674 264 q 834 295 767 264 q 938 384 901 326 q 974 521 974 442 q 938 658 974 600 q 834 747 901 715 q 674 778 767 778 q 513 747 581 778 q 410 658 446 715 q 374 521 374 600 q 410 384 374 442 q 513 295 446 326 q 674 264 581 264 m 1064 1536 l 1197 1306 l 956 1306 l 779 1536 l 1064 1536 m 508 1358 l 840 1358 l 1054 1117 l 799 1117 l 600 1261 l 749 1261 l 550 1117 l 296 1117 l 508 1358 z "},"Ổ":{"ha":1347,"x_min":47,"x_max":1300,"o":"m 674 -24 q 345 44 486 -24 q 126 235 204 113 q 47 521 47 357 q 126 807 47 685 q 345 997 204 929 q 674 1065 486 1065 q 1002 997 861 1065 q 1222 807 1143 929 q 1300 521 1300 685 q 1222 235 1300 357 q 1002 44 1143 113 q 674 -24 861 -24 m 674 264 q 834 295 767 264 q 938 384 901 326 q 974 521 974 442 q 938 658 974 600 q 834 747 901 715 q 674 778 767 778 q 513 747 581 778 q 410 658 446 715 q 374 521 374 600 q 410 384 374 442 q 513 295 446 326 q 674 264 581 264 m 988 1275 l 932 1349 q 989 1378 971 1363 q 1007 1410 1007 1393 q 932 1447 1007 1447 q 892 1445 914 1447 q 846 1438 869 1443 l 846 1596 q 919 1610 874 1604 q 1017 1617 965 1617 q 1196 1579 1132 1617 q 1260 1474 1260 1542 q 1192 1355 1260 1406 q 988 1275 1124 1304 m 508 1358 l 840 1358 l 1054 1117 l 799 1117 l 600 1261 l 749 1261 l 550 1117 l 296 1117 l 508 1358 z "},"Ỗ":{"ha":1347,"x_min":47,"x_max":1300,"o":"m 674 -24 q 345 44 486 -24 q 126 235 204 113 q 47 521 47 357 q 126 807 47 685 q 345 997 204 929 q 674 1065 486 1065 q 1002 997 861 1065 q 1222 807 1143 929 q 1300 521 1300 685 q 1222 235 1300 357 q 1002 44 1143 113 q 674 -24 861 -24 m 674 264 q 834 295 767 264 q 938 384 901 326 q 974 521 974 442 q 938 658 974 600 q 834 747 901 715 q 674 778 767 778 q 513 747 581 778 q 410 658 446 715 q 374 521 374 600 q 410 384 374 442 q 513 295 446 326 q 674 264 581 264 m 331 1413 q 389 1590 338 1522 q 536 1658 440 1658 q 613 1648 579 1658 q 671 1624 646 1638 q 718 1601 696 1611 q 760 1590 740 1590 q 801 1607 786 1590 q 822 1656 817 1624 l 1013 1656 q 955 1476 1007 1542 q 807 1410 903 1410 q 731 1421 764 1410 q 672 1445 697 1432 q 624 1468 646 1458 q 583 1478 603 1478 q 541 1461 556 1478 q 521 1413 526 1444 l 331 1413 m 508 1358 l 840 1358 l 1053 1117 l 797 1117 l 600 1261 l 749 1261 l 550 1117 l 294 1117 l 508 1358 z "},"Ȍ":{"ha":1347,"x_min":47,"x_max":1300,"o":"m 674 -24 q 345 44 486 -24 q 126 235 204 113 q 47 521 47 357 q 126 807 47 685 q 345 997 204 929 q 674 1065 486 1065 q 1002 997 861 1065 q 1222 807 1143 929 q 1300 521 1300 685 q 1222 235 1300 357 q 1002 44 1143 113 q 674 -24 861 -24 m 674 264 q 834 295 767 264 q 938 384 901 326 q 974 521 974 442 q 938 658 974 600 q 834 747 901 715 q 674 778 767 778 q 513 747 581 778 q 410 658 446 715 q 374 521 374 600 q 410 384 374 442 q 513 295 446 326 q 674 264 581 264 m 831 1358 l 1003 1117 l 728 1117 l 529 1358 l 831 1358 m 446 1358 l 618 1117 l 343 1117 l 143 1358 l 446 1358 z "},"Ö":{"ha":1347,"x_min":47,"x_max":1300,"o":"m 674 -24 q 345 44 486 -24 q 126 235 204 113 q 47 521 47 357 q 126 807 47 685 q 345 997 204 929 q 674 1065 486 1065 q 1002 997 861 1065 q 1222 807 1143 929 q 1300 521 1300 685 q 1222 235 1300 357 q 1002 44 1143 113 q 674 -24 861 -24 m 674 264 q 834 295 767 264 q 938 384 901 326 q 974 521 974 442 q 938 658 974 600 q 834 747 901 715 q 674 778 767 778 q 513 747 581 778 q 410 658 446 715 q 374 521 374 600 q 410 384 374 442 q 513 295 446 326 q 674 264 581 264 m 456 1110 q 333 1147 379 1110 q 288 1253 288 1185 q 333 1354 288 1317 q 456 1392 379 1392 q 578 1354 532 1392 q 624 1253 624 1317 q 578 1147 624 1185 q 456 1110 532 1110 m 893 1110 q 771 1147 817 1110 q 725 1253 725 1185 q 771 1354 725 1317 q 893 1392 817 1392 q 1015 1354 969 1392 q 1061 1253 1061 1317 q 1015 1147 1061 1185 q 893 1110 969 1110 z "},"Ȫ":{"ha":1347,"x_min":47,"x_max":1300,"o":"m 674 -24 q 345 44 486 -24 q 126 235 204 113 q 47 521 47 357 q 126 807 47 685 q 345 997 204 929 q 674 1065 486 1065 q 1002 997 861 1065 q 1222 807 1143 929 q 1300 521 1300 685 q 1222 235 1300 357 q 1002 44 1143 113 q 674 -24 861 -24 m 674 264 q 834 295 767 264 q 938 384 901 326 q 974 521 974 442 q 938 658 974 600 q 834 747 901 715 q 674 778 767 778 q 513 747 581 778 q 410 658 446 715 q 374 521 374 600 q 410 384 374 442 q 513 295 446 326 q 674 264 581 264 m 456 1110 q 333 1147 379 1110 q 288 1253 288 1185 q 333 1354 288 1317 q 456 1392 379 1392 q 578 1354 532 1392 q 624 1253 624 1317 q 578 1147 624 1185 q 456 1110 532 1110 m 893 1110 q 771 1147 817 1110 q 725 1253 725 1185 q 771 1354 725 1317 q 893 1392 817 1392 q 1015 1354 969 1392 q 1061 1253 1061 1317 q 1015 1147 1061 1185 q 893 1110 969 1110 m 324 1451 l 324 1638 l 1026 1638 l 1026 1451 l 324 1451 z "},"Ȯ":{"ha":1347,"x_min":47,"x_max":1300,"o":"m 674 -24 q 345 44 486 -24 q 126 235 204 113 q 47 521 47 357 q 126 807 47 685 q 345 997 204 929 q 674 1065 486 1065 q 1002 997 861 1065 q 1222 807 1143 929 q 1300 521 1300 685 q 1222 235 1300 357 q 1002 44 1143 113 q 674 -24 861 -24 m 674 264 q 834 295 767 264 q 938 384 901 326 q 974 521 974 442 q 938 658 974 600 q 834 747 901 715 q 674 778 767 778 q 513 747 581 778 q 410 658 446 715 q 374 521 374 600 q 410 384 374 442 q 513 295 446 326 q 674 264 581 264 m 674 1110 q 543 1149 593 1110 q 493 1258 493 1189 q 543 1368 493 1328 q 674 1408 593 1408 q 806 1368 757 1408 q 856 1258 856 1328 q 806 1149 856 1189 q 674 1110 757 1110 z "},"Ȱ":{"ha":1347,"x_min":47,"x_max":1300,"o":"m 674 -24 q 345 44 486 -24 q 126 235 204 113 q 47 521 47 357 q 126 807 47 685 q 345 997 204 929 q 674 1065 486 1065 q 1002 997 861 1065 q 1222 807 1143 929 q 1300 521 1300 685 q 1222 235 1300 357 q 1002 44 1143 113 q 674 -24 861 -24 m 674 264 q 834 295 767 264 q 938 384 901 326 q 974 521 974 442 q 938 658 974 600 q 834 747 901 715 q 674 778 767 778 q 513 747 581 778 q 410 658 446 715 q 374 521 374 600 q 410 384 374 442 q 513 295 446 326 q 674 264 581 264 m 674 1110 q 543 1149 593 1110 q 493 1258 493 1189 q 543 1368 493 1328 q 674 1408 593 1408 q 806 1368 757 1408 q 856 1258 856 1328 q 806 1149 856 1189 q 674 1110 757 1110 m 322 1451 l 322 1638 l 1025 1638 l 1025 1451 l 322 1451 z "},"Ọ":{"ha":1347,"x_min":47,"x_max":1300,"o":"m 674 -24 q 345 44 486 -24 q 126 235 204 113 q 47 521 47 357 q 126 807 47 685 q 345 997 204 929 q 674 1065 486 1065 q 1002 997 861 1065 q 1222 807 1143 929 q 1300 521 1300 685 q 1222 235 1300 357 q 1002 44 1143 113 q 674 -24 861 -24 m 674 264 q 834 295 767 264 q 938 384 901 326 q 974 521 974 442 q 938 658 974 600 q 834 747 901 715 q 674 778 767 778 q 513 747 581 778 q 410 658 446 715 q 374 521 374 600 q 410 384 374 442 q 513 295 446 326 q 674 264 581 264 m 674 -361 q 543 -321 593 -361 q 493 -212 493 -281 q 543 -103 493 -143 q 674 -62 593 -62 q 806 -103 757 -62 q 856 -212 856 -143 q 806 -321 856 -281 q 674 -361 757 -361 z "},"Ò":{"ha":1347,"x_min":47,"x_max":1300,"o":"m 674 -24 q 345 44 486 -24 q 126 235 204 113 q 47 521 47 357 q 126 807 47 685 q 345 997 204 929 q 674 1065 486 1065 q 1002 997 861 1065 q 1222 807 1143 929 q 1300 521 1300 685 q 1222 235 1300 357 q 1002 44 1143 113 q 674 -24 861 -24 m 674 264 q 834 295 767 264 q 938 384 901 326 q 974 521 974 442 q 938 658 974 600 q 834 747 901 715 q 674 778 767 778 q 513 747 581 778 q 410 658 446 715 q 374 521 374 600 q 410 384 374 442 q 513 295 446 326 q 674 264 581 264 m 642 1358 l 847 1117 l 529 1117 l 283 1358 l 642 1358 z "},"Ỏ":{"ha":1347,"x_min":47,"x_max":1300,"o":"m 674 -24 q 345 44 486 -24 q 126 235 204 113 q 47 521 47 357 q 126 807 47 685 q 345 997 204 929 q 674 1065 486 1065 q 1002 997 861 1065 q 1222 807 1143 929 q 1300 521 1300 685 q 1222 235 1300 357 q 1002 44 1143 113 q 674 -24 861 -24 m 674 264 q 834 295 767 264 q 938 384 901 326 q 974 521 974 442 q 938 658 974 600 q 834 747 901 715 q 674 778 767 778 q 513 747 581 778 q 410 658 446 715 q 374 521 374 600 q 410 384 374 442 q 513 295 446 326 q 674 264 581 264 m 607 1097 l 551 1190 q 643 1216 617 1201 q 669 1246 669 1231 q 650 1269 669 1261 q 590 1276 631 1276 q 532 1273 558 1276 q 475 1264 506 1269 l 475 1418 q 558 1436 504 1428 q 668 1444 613 1444 q 867 1409 799 1444 q 935 1293 935 1374 q 860 1173 935 1221 q 607 1097 785 1125 z "},"Ơ":{"ha":1361,"x_min":47,"x_max":1347,"o":"m 674 -24 q 345 44 486 -24 q 126 235 204 113 q 47 521 47 357 q 126 807 47 685 q 345 997 204 929 q 674 1065 486 1065 q 780 1060 736 1065 q 860 1046 824 1054 q 920 1035 892 1040 q 978 1031 949 1031 q 1074 1057 1046 1031 q 1101 1115 1101 1083 q 1092 1165 1101 1139 q 1060 1222 1082 1192 l 1299 1222 q 1335 1148 1322 1186 q 1347 1072 1347 1110 q 1300 949 1347 1000 q 1165 875 1253 897 q 1265 717 1229 807 q 1300 521 1300 628 q 1222 235 1300 357 q 1002 44 1143 113 q 674 -24 861 -24 m 674 264 q 834 295 767 264 q 938 384 901 326 q 974 521 974 442 q 938 658 974 600 q 834 747 901 715 q 674 778 767 778 q 513 747 581 778 q 410 658 446 715 q 374 521 374 600 q 410 384 374 442 q 513 295 446 326 q 674 264 581 264 z "},"Ớ":{"ha":1361,"x_min":47,"x_max":1347,"o":"m 674 -24 q 345 44 486 -24 q 126 235 204 113 q 47 521 47 357 q 126 807 47 685 q 345 997 204 929 q 674 1065 486 1065 q 780 1060 736 1065 q 860 1046 824 1054 q 920 1035 892 1040 q 978 1031 949 1031 q 1074 1057 1046 1031 q 1101 1115 1101 1083 q 1092 1165 1101 1139 q 1060 1222 1082 1192 l 1299 1222 q 1335 1148 1322 1186 q 1347 1072 1347 1110 q 1300 949 1347 1000 q 1165 875 1253 897 q 1265 717 1229 807 q 1300 521 1300 628 q 1222 235 1300 357 q 1002 44 1143 113 q 674 -24 861 -24 m 674 264 q 834 295 767 264 q 938 384 901 326 q 974 521 974 442 q 938 658 974 600 q 834 747 901 715 q 674 778 767 778 q 513 747 581 778 q 410 658 446 715 q 374 521 374 600 q 410 384 374 442 q 513 295 446 326 q 674 264 581 264 m 681 1358 l 1039 1358 l 793 1117 l 476 1117 l 681 1358 z "},"Ợ":{"ha":1361,"x_min":47,"x_max":1347,"o":"m 674 -24 q 345 44 486 -24 q 126 235 204 113 q 47 521 47 357 q 126 807 47 685 q 345 997 204 929 q 674 1065 486 1065 q 780 1060 736 1065 q 860 1046 824 1054 q 920 1035 892 1040 q 978 1031 949 1031 q 1074 1057 1046 1031 q 1101 1115 1101 1083 q 1092 1165 1101 1139 q 1060 1222 1082 1192 l 1299 1222 q 1335 1148 1322 1186 q 1347 1072 1347 1110 q 1300 949 1347 1000 q 1165 875 1253 897 q 1265 717 1229 807 q 1300 521 1300 628 q 1222 235 1300 357 q 1002 44 1143 113 q 674 -24 861 -24 m 674 264 q 834 295 767 264 q 938 384 901 326 q 974 521 974 442 q 938 658 974 600 q 834 747 901 715 q 674 778 767 778 q 513 747 581 778 q 410 658 446 715 q 374 521 374 600 q 410 384 374 442 q 513 295 446 326 q 674 264 581 264 m 664 -361 q 533 -321 583 -361 q 483 -212 483 -281 q 533 -103 483 -143 q 664 -62 583 -62 q 797 -103 747 -62 q 846 -212 846 -143 q 797 -321 846 -281 q 664 -361 747 -361 z "},"Ờ":{"ha":1361,"x_min":47,"x_max":1347,"o":"m 674 -24 q 345 44 486 -24 q 126 235 204 113 q 47 521 47 357 q 126 807 47 685 q 345 997 204 929 q 674 1065 486 1065 q 780 1060 736 1065 q 860 1046 824 1054 q 920 1035 892 1040 q 978 1031 949 1031 q 1074 1057 1046 1031 q 1101 1115 1101 1083 q 1092 1165 1101 1139 q 1060 1222 1082 1192 l 1299 1222 q 1335 1148 1322 1186 q 1347 1072 1347 1110 q 1300 949 1347 1000 q 1165 875 1253 897 q 1265 717 1229 807 q 1300 521 1300 628 q 1222 235 1300 357 q 1002 44 1143 113 q 674 -24 861 -24 m 674 264 q 834 295 767 264 q 938 384 901 326 q 974 521 974 442 q 938 658 974 600 q 834 747 901 715 q 674 778 767 778 q 513 747 581 778 q 410 658 446 715 q 374 521 374 600 q 410 384 374 442 q 513 295 446 326 q 674 264 581 264 m 632 1358 l 838 1117 l 519 1117 l 274 1358 l 632 1358 z "},"Ở":{"ha":1361,"x_min":47,"x_max":1347,"o":"m 674 -24 q 345 44 486 -24 q 126 235 204 113 q 47 521 47 357 q 126 807 47 685 q 345 997 204 929 q 674 1065 486 1065 q 780 1060 736 1065 q 860 1046 824 1054 q 920 1035 892 1040 q 978 1031 949 1031 q 1074 1057 1046 1031 q 1101 1115 1101 1083 q 1092 1165 1101 1139 q 1060 1222 1082 1192 l 1299 1222 q 1335 1148 1322 1186 q 1347 1072 1347 1110 q 1300 949 1347 1000 q 1165 875 1253 897 q 1265 717 1229 807 q 1300 521 1300 628 q 1222 235 1300 357 q 1002 44 1143 113 q 674 -24 861 -24 m 674 264 q 834 295 767 264 q 938 384 901 326 q 974 521 974 442 q 938 658 974 600 q 834 747 901 715 q 674 778 767 778 q 513 747 581 778 q 410 658 446 715 q 374 521 374 600 q 410 384 374 442 q 513 295 446 326 q 674 264 581 264 m 596 1097 l 540 1190 q 632 1216 606 1201 q 658 1246 658 1231 q 639 1269 658 1261 q 579 1276 619 1276 q 521 1273 547 1276 q 464 1264 494 1269 l 464 1418 q 547 1436 493 1428 q 657 1444 601 1444 q 856 1409 788 1444 q 924 1293 924 1374 q 849 1173 924 1221 q 596 1097 774 1125 z "},"Ỡ":{"ha":1361,"x_min":47,"x_max":1347,"o":"m 674 -24 q 345 44 486 -24 q 126 235 204 113 q 47 521 47 357 q 126 807 47 685 q 345 997 204 929 q 674 1065 486 1065 q 780 1060 736 1065 q 860 1046 824 1054 q 920 1035 892 1040 q 978 1031 949 1031 q 1074 1057 1046 1031 q 1101 1115 1101 1083 q 1092 1165 1101 1139 q 1060 1222 1082 1192 l 1299 1222 q 1335 1148 1322 1186 q 1347 1072 1347 1110 q 1300 949 1347 1000 q 1165 875 1253 897 q 1265 717 1229 807 q 1300 521 1300 628 q 1222 235 1300 357 q 1002 44 1143 113 q 674 -24 861 -24 m 674 264 q 834 295 767 264 q 938 384 901 326 q 974 521 974 442 q 938 658 974 600 q 834 747 901 715 q 674 778 767 778 q 513 747 581 778 q 410 658 446 715 q 374 521 374 600 q 410 384 374 442 q 513 295 446 326 q 674 264 581 264 m 268 1122 q 347 1307 285 1240 q 529 1374 408 1374 q 603 1364 568 1374 q 671 1342 639 1354 q 731 1321 703 1331 q 782 1311 758 1311 q 830 1325 811 1311 q 854 1365 849 1339 l 1057 1365 q 979 1182 1040 1250 q 797 1114 918 1114 q 723 1124 758 1114 q 656 1146 688 1133 q 595 1168 624 1158 q 543 1178 567 1178 q 496 1164 515 1178 q 472 1122 476 1150 l 268 1122 z "},"Ő":{"ha":1347,"x_min":47,"x_max":1300,"o":"m 674 -24 q 345 44 486 -24 q 126 235 204 113 q 47 521 47 357 q 126 807 47 685 q 345 997 204 929 q 674 1065 486 1065 q 1002 997 861 1065 q 1222 807 1143 929 q 1300 521 1300 685 q 1222 235 1300 357 q 1002 44 1143 113 q 674 -24 861 -24 m 674 264 q 834 295 767 264 q 938 384 901 326 q 974 521 974 442 q 938 658 974 600 q 834 747 901 715 q 674 778 767 778 q 513 747 581 778 q 410 658 446 715 q 374 521 374 600 q 410 384 374 442 q 513 295 446 326 q 674 264 581 264 m 528 1358 l 829 1358 l 629 1117 l 356 1117 l 528 1358 m 913 1358 l 1215 1358 l 1015 1117 l 740 1117 l 913 1358 z "},"Ȏ":{"ha":1347,"x_min":47,"x_max":1300,"o":"m 674 -24 q 345 44 486 -24 q 126 235 204 113 q 47 521 47 357 q 126 807 47 685 q 345 997 204 929 q 674 1065 486 1065 q 1002 997 861 1065 q 1222 807 1143 929 q 1300 521 1300 685 q 1222 235 1300 357 q 1002 44 1143 113 q 674 -24 861 -24 m 674 264 q 834 295 767 264 q 938 384 901 326 q 974 521 974 442 q 938 658 974 600 q 834 747 901 715 q 674 778 767 778 q 513 747 581 778 q 410 658 446 715 q 374 521 374 600 q 410 384 374 442 q 513 295 446 326 q 674 264 581 264 m 1044 1110 l 804 1110 q 751 1161 783 1143 q 674 1179 719 1179 q 596 1161 628 1179 q 543 1110 564 1143 l 303 1110 q 438 1306 340 1242 q 674 1369 536 1369 q 910 1306 813 1369 q 1044 1110 1008 1242 z "},"Ō":{"ha":1347,"x_min":47,"x_max":1300,"o":"m 674 -24 q 345 44 486 -24 q 126 235 204 113 q 47 521 47 357 q 126 807 47 685 q 345 997 204 929 q 674 1065 486 1065 q 1002 997 861 1065 q 1222 807 1143 929 q 1300 521 1300 685 q 1222 235 1300 357 q 1002 44 1143 113 q 674 -24 861 -24 m 674 264 q 834 295 767 264 q 938 384 901 326 q 974 521 974 442 q 938 658 974 600 q 834 747 901 715 q 674 778 767 778 q 513 747 581 778 q 410 658 446 715 q 374 521 374 600 q 410 384 374 442 q 513 295 446 326 q 674 264 581 264 m 322 1142 l 322 1328 l 1025 1328 l 1025 1142 l 322 1142 z "},"Ṓ":{"ha":1347,"x_min":47,"x_max":1300,"o":"m 674 -24 q 345 44 486 -24 q 126 235 204 113 q 47 521 47 357 q 126 807 47 685 q 345 997 204 929 q 674 1065 486 1065 q 1002 997 861 1065 q 1222 807 1143 929 q 1300 521 1300 685 q 1222 235 1300 357 q 1002 44 1143 113 q 674 -24 861 -24 m 674 264 q 834 295 767 264 q 938 384 901 326 q 974 521 974 442 q 938 658 974 600 q 834 747 901 715 q 674 778 767 778 q 513 747 581 778 q 410 658 446 715 q 374 521 374 600 q 410 384 374 442 q 513 295 446 326 q 674 264 581 264 m 322 1142 l 322 1328 l 1025 1328 l 1025 1142 l 322 1142 m 692 1653 l 1050 1653 l 804 1411 l 488 1411 l 692 1653 z "},"Ṑ":{"ha":1347,"x_min":47,"x_max":1300,"o":"m 674 -24 q 345 44 486 -24 q 126 235 204 113 q 47 521 47 357 q 126 807 47 685 q 345 997 204 929 q 674 1065 486 1065 q 1002 997 861 1065 q 1222 807 1143 929 q 1300 521 1300 685 q 1222 235 1300 357 q 1002 44 1143 113 q 674 -24 861 -24 m 674 264 q 834 295 767 264 q 938 384 901 326 q 974 521 974 442 q 938 658 974 600 q 834 747 901 715 q 674 778 767 778 q 513 747 581 778 q 410 658 446 715 q 374 521 374 600 q 410 384 374 442 q 513 295 446 326 q 674 264 581 264 m 322 1142 l 322 1328 l 1025 1328 l 1025 1142 l 322 1142 m 642 1653 l 847 1411 l 529 1411 l 283 1653 l 642 1653 z "},"Ꞷ":{"ha":1628,"x_min":53,"x_max":1576,"o":"m 53 510 q 117 788 53 667 q 305 979 182 908 q 600 1053 428 1050 l 600 774 q 482 739 532 767 q 405 656 432 711 q 378 510 378 600 q 422 322 378 388 q 539 257 465 257 q 621 283 590 257 q 665 364 651 308 q 679 508 679 419 l 679 672 l 949 672 l 949 508 q 963 364 949 419 q 1008 283 976 308 q 1089 257 1039 257 q 1206 322 1163 257 q 1250 510 1250 388 q 1223 656 1250 600 q 1147 739 1196 711 q 1028 774 1097 767 l 1028 1053 q 1324 979 1203 1050 q 1511 788 1446 908 q 1576 510 1576 667 q 1522 231 1576 351 q 1372 44 1468 111 q 1149 -24 1276 -24 q 872 96 963 -24 q 792 426 781 215 l 836 426 q 757 96 849 215 q 479 -24 665 -24 q 256 44 353 -24 q 106 231 160 111 q 53 510 53 351 z "},"Ǫ":{"ha":1347,"x_min":47,"x_max":1300,"o":"m 878 -281 q 814 -294 860 -287 q 718 -301 768 -301 q 552 -265 615 -301 q 489 -167 489 -228 q 552 -60 489 -104 q 738 13 615 -15 l 718 -24 q 445 7 568 -29 q 233 115 322 43 q 96 291 144 188 q 47 521 47 394 q 126 807 47 685 q 345 997 204 929 q 674 1065 486 1065 q 1002 997 861 1065 q 1222 807 1143 929 q 1300 521 1300 685 q 1249 284 1300 390 q 1102 106 1197 178 q 878 0 1007 33 q 753 -44 796 -21 q 711 -92 711 -68 q 797 -129 711 -129 q 840 -126 821 -129 q 878 -119 860 -124 l 878 -281 m 374 521 q 410 384 374 442 q 513 295 446 326 q 674 264 581 264 q 834 295 767 264 q 938 384 901 326 q 974 521 974 442 q 938 658 974 600 q 834 747 901 715 q 674 778 767 778 q 513 747 581 778 q 410 658 446 715 q 374 521 374 600 z "},"Ǭ":{"ha":1347,"x_min":47,"x_max":1300,"o":"m 878 -281 q 814 -294 860 -287 q 718 -301 768 -301 q 552 -265 615 -301 q 489 -167 489 -228 q 552 -60 489 -104 q 738 13 615 -15 l 718 -24 q 445 7 568 -29 q 233 115 322 43 q 96 291 144 188 q 47 521 47 394 q 126 807 47 685 q 345 997 204 929 q 674 1065 486 1065 q 1002 997 861 1065 q 1222 807 1143 929 q 1300 521 1300 685 q 1249 284 1300 390 q 1102 106 1197 178 q 878 0 1007 33 q 753 -44 796 -21 q 711 -92 711 -68 q 797 -129 711 -129 q 840 -126 821 -129 q 878 -119 860 -124 l 878 -281 m 374 521 q 410 384 374 442 q 513 295 446 326 q 674 264 581 264 q 834 295 767 264 q 938 384 901 326 q 974 521 974 442 q 938 658 974 600 q 834 747 901 715 q 674 778 767 778 q 513 747 581 778 q 410 658 446 715 q 374 521 374 600 m 322 1142 l 322 1328 l 1025 1328 l 1025 1142 l 322 1142 z "},"Ɔ":{"ha":1308,"x_min":40,"x_max":1260,"o":"m 40 443 l 365 443 q 415 339 378 382 q 510 274 451 296 q 649 253 569 253 q 801 285 738 253 q 899 378 865 318 q 933 521 933 438 q 899 665 933 604 q 801 757 865 725 q 649 789 738 789 q 510 766 569 789 q 415 701 451 743 q 365 599 378 658 l 40 599 q 137 844 57 739 q 348 1007 217 949 q 649 1065 479 1065 q 969 997 832 1065 q 1183 807 1107 929 q 1260 521 1260 685 q 1183 235 1260 357 q 969 44 1107 113 q 649 -24 832 -24 q 348 35 479 -24 q 137 199 217 93 q 40 443 57 304 z "},"Ø":{"ha":1347,"x_min":47,"x_max":1300,"o":"m 989 1068 l 1272 1068 l 358 -26 l 75 -26 l 989 1068 m 674 -24 q 345 44 486 -24 q 126 235 204 113 q 47 521 47 357 q 126 807 47 685 q 345 997 204 929 q 674 1065 486 1065 q 928 1026 814 1065 q 1126 915 1043 988 q 1255 744 1210 843 q 1300 521 1300 644 q 1222 235 1300 357 q 1002 44 1143 113 q 674 -24 861 -24 m 674 244 q 839 278 769 244 q 947 374 908 311 q 985 521 985 436 q 947 669 985 607 q 839 764 908 731 q 674 797 769 797 q 508 764 578 797 q 401 669 439 731 q 363 521 363 607 q 401 374 363 436 q 508 278 439 311 q 674 244 578 244 z "},"Ǿ":{"ha":1347,"x_min":47,"x_max":1300,"o":"m 989 1068 l 1272 1068 l 358 -26 l 75 -26 l 989 1068 m 674 -24 q 345 44 486 -24 q 126 235 204 113 q 47 521 47 357 q 126 807 47 685 q 345 997 204 929 q 674 1065 486 1065 q 928 1026 814 1065 q 1126 915 1043 988 q 1255 744 1210 843 q 1300 521 1300 644 q 1222 235 1300 357 q 1002 44 1143 113 q 674 -24 861 -24 m 674 244 q 839 278 769 244 q 947 374 908 311 q 985 521 985 436 q 947 669 985 607 q 839 764 908 731 q 674 797 769 797 q 508 764 578 797 q 401 669 439 731 q 363 521 363 607 q 401 374 363 436 q 508 278 439 311 q 674 244 578 244 m 690 1358 l 1049 1358 l 803 1117 l 486 1117 l 690 1358 z "},"Õ":{"ha":1347,"x_min":47,"x_max":1300,"o":"m 674 -24 q 345 44 486 -24 q 126 235 204 113 q 47 521 47 357 q 126 807 47 685 q 345 997 204 929 q 674 1065 486 1065 q 1002 997 861 1065 q 1222 807 1143 929 q 1300 521 1300 685 q 1222 235 1300 357 q 1002 44 1143 113 q 674 -24 861 -24 m 674 264 q 834 295 767 264 q 938 384 901 326 q 974 521 974 442 q 938 658 974 600 q 834 747 901 715 q 674 778 767 778 q 513 747 581 778 q 410 658 446 715 q 374 521 374 600 q 410 384 374 442 q 513 295 446 326 q 674 264 581 264 m 278 1122 q 356 1307 294 1240 q 539 1374 418 1374 q 613 1364 578 1374 q 681 1342 649 1354 q 740 1321 713 1331 q 792 1311 768 1311 q 840 1325 821 1311 q 864 1365 858 1339 l 1067 1365 q 989 1182 1050 1250 q 807 1114 928 1114 q 733 1124 768 1114 q 665 1146 697 1133 q 605 1168 633 1158 q 553 1178 576 1178 q 506 1164 525 1178 q 482 1122 486 1150 l 278 1122 z "},"Ṍ":{"ha":1347,"x_min":47,"x_max":1300,"o":"m 674 -24 q 345 44 486 -24 q 126 235 204 113 q 47 521 47 357 q 126 807 47 685 q 345 997 204 929 q 674 1065 486 1065 q 1002 997 861 1065 q 1222 807 1143 929 q 1300 521 1300 685 q 1222 235 1300 357 q 1002 44 1143 113 q 674 -24 861 -24 m 674 264 q 834 295 767 264 q 938 384 901 326 q 974 521 974 442 q 938 658 974 600 q 834 747 901 715 q 674 778 767 778 q 513 747 581 778 q 410 658 446 715 q 374 521 374 600 q 410 384 374 442 q 513 295 446 326 q 674 264 581 264 m 278 1122 q 356 1307 294 1240 q 539 1374 418 1374 q 613 1364 578 1374 q 681 1342 649 1354 q 740 1321 713 1331 q 792 1311 768 1311 q 840 1325 821 1311 q 864 1365 858 1339 l 1067 1365 q 989 1182 1050 1250 q 807 1114 928 1114 q 733 1124 768 1114 q 665 1146 697 1133 q 605 1168 633 1158 q 553 1178 576 1178 q 506 1164 525 1178 q 482 1122 486 1150 l 278 1122 m 692 1658 l 1050 1658 l 804 1417 l 488 1417 l 692 1658 z "},"Ṏ":{"ha":1347,"x_min":47,"x_max":1300,"o":"m 674 -24 q 345 44 486 -24 q 126 235 204 113 q 47 521 47 357 q 126 807 47 685 q 345 997 204 929 q 674 1065 486 1065 q 1002 997 861 1065 q 1222 807 1143 929 q 1300 521 1300 685 q 1222 235 1300 357 q 1002 44 1143 113 q 674 -24 861 -24 m 674 264 q 834 295 767 264 q 938 384 901 326 q 974 521 974 442 q 938 658 974 600 q 834 747 901 715 q 674 778 767 778 q 513 747 581 778 q 410 658 446 715 q 374 521 374 600 q 410 384 374 442 q 513 295 446 326 q 674 264 581 264 m 278 1122 q 356 1307 294 1240 q 539 1374 418 1374 q 613 1364 578 1374 q 681 1342 649 1354 q 740 1321 713 1331 q 792 1311 768 1311 q 840 1325 821 1311 q 864 1365 858 1339 l 1067 1365 q 989 1182 1050 1250 q 807 1114 928 1114 q 733 1124 768 1114 q 665 1146 697 1133 q 605 1168 633 1158 q 553 1178 576 1178 q 506 1164 525 1178 q 482 1122 486 1150 l 278 1122 m 456 1410 q 333 1447 379 1410 q 288 1553 288 1485 q 333 1654 288 1617 q 456 1692 379 1692 q 578 1654 532 1692 q 624 1553 624 1617 q 578 1447 624 1485 q 456 1410 532 1410 m 893 1410 q 771 1447 817 1410 q 725 1553 725 1485 q 771 1654 725 1617 q 893 1692 817 1692 q 1015 1654 969 1692 q 1061 1553 1061 1617 q 1015 1447 1061 1485 q 893 1410 969 1410 z "},"Ȭ":{"ha":1347,"x_min":47,"x_max":1300,"o":"m 674 -24 q 345 44 486 -24 q 126 235 204 113 q 47 521 47 357 q 126 807 47 685 q 345 997 204 929 q 674 1065 486 1065 q 1002 997 861 1065 q 1222 807 1143 929 q 1300 521 1300 685 q 1222 235 1300 357 q 1002 44 1143 113 q 674 -24 861 -24 m 674 264 q 834 295 767 264 q 938 384 901 326 q 974 521 974 442 q 938 658 974 600 q 834 747 901 715 q 674 778 767 778 q 513 747 581 778 q 410 658 446 715 q 374 521 374 600 q 410 384 374 442 q 513 295 446 326 q 674 264 581 264 m 278 1122 q 356 1307 294 1240 q 539 1374 418 1374 q 613 1364 578 1374 q 681 1342 649 1354 q 740 1321 713 1331 q 792 1311 768 1311 q 840 1325 821 1311 q 864 1365 858 1339 l 1067 1365 q 989 1182 1050 1250 q 807 1114 928 1114 q 733 1124 768 1114 q 665 1146 697 1133 q 605 1168 633 1158 q 553 1178 576 1178 q 506 1164 525 1178 q 482 1122 486 1150 l 278 1122 m 322 1442 l 322 1628 l 1025 1628 l 1025 1442 l 322 1442 z "},"Œ":{"ha":1847,"x_min":47,"x_max":1781,"o":"m 674 0 q 345 65 486 0 q 126 247 204 129 q 47 521 47 364 q 126 796 47 679 q 344 977 204 913 q 672 1042 485 1042 l 1774 1042 l 1774 783 l 1176 783 l 1176 635 l 1732 635 l 1732 407 l 1176 407 l 1176 258 l 1781 258 l 1781 0 l 674 0 m 650 288 l 865 288 l 865 754 l 650 754 q 502 726 564 754 q 407 645 440 697 q 374 521 374 593 q 407 397 374 450 q 502 316 440 344 q 650 288 564 288 z "},"P":{"ha":1146,"x_min":90,"x_max":1121,"o":"m 686 1042 q 920 996 822 1042 q 1069 867 1018 950 q 1121 672 1121 785 q 1069 478 1121 561 q 920 349 1018 394 q 686 303 822 303 l 240 303 l 240 558 l 665 558 q 760 589 726 558 q 794 672 794 619 q 760 757 794 728 q 665 786 726 786 l 268 786 l 414 933 l 414 0 l 90 0 l 90 1042 l 686 1042 z "},"Ṕ":{"ha":1146,"x_min":90,"x_max":1121,"o":"m 686 1042 q 920 996 822 1042 q 1069 867 1018 950 q 1121 672 1121 785 q 1069 478 1121 561 q 920 349 1018 394 q 686 303 822 303 l 240 303 l 240 558 l 665 558 q 760 589 726 558 q 794 672 794 619 q 760 757 794 728 q 665 786 726 786 l 268 786 l 414 933 l 414 0 l 90 0 l 90 1042 l 686 1042 m 596 1358 l 954 1358 l 708 1117 l 392 1117 l 596 1358 z "},"Ṗ":{"ha":1146,"x_min":90,"x_max":1121,"o":"m 686 1042 q 920 996 822 1042 q 1069 867 1018 950 q 1121 672 1121 785 q 1069 478 1121 561 q 920 349 1018 394 q 686 303 822 303 l 240 303 l 240 558 l 665 558 q 760 589 726 558 q 794 672 794 619 q 760 757 794 728 q 665 786 726 786 l 268 786 l 414 933 l 414 0 l 90 0 l 90 1042 l 686 1042 m 579 1110 q 449 1149 499 1110 q 399 1258 399 1189 q 449 1368 399 1328 q 579 1408 499 1408 q 712 1368 663 1408 q 761 1258 761 1328 q 712 1149 761 1189 q 579 1110 663 1110 z "},"Ƥ":{"ha":1490,"x_min":24,"x_max":1464,"o":"m 332 1042 l 1029 1042 q 1264 996 1167 1042 q 1413 867 1361 950 q 1464 672 1464 785 q 1413 478 1464 561 q 1264 349 1361 394 q 1029 303 1167 303 l 583 303 l 583 558 l 1010 558 q 1105 589 1071 558 q 1139 672 1139 619 q 1105 757 1139 728 q 1010 786 1071 786 l 611 786 l 757 933 l 757 0 l 433 0 l 433 900 l 574 772 l 390 772 q 320 751 344 772 q 296 679 296 731 q 302 615 296 647 q 315 563 308 582 l 81 563 q 42 659 60 606 q 24 781 24 713 q 97 971 24 900 q 332 1042 169 1042 z "},"Þ":{"ha":1169,"x_min":90,"x_max":1121,"o":"m 90 1042 l 414 1042 l 414 0 l 90 0 l 90 1042 m 686 157 l 301 157 l 301 408 l 665 408 q 760 439 726 408 q 794 526 794 469 q 760 615 794 583 q 665 646 726 646 l 303 646 l 303 896 l 686 896 q 920 851 822 896 q 1069 722 1018 806 q 1121 526 1121 639 q 1069 332 1121 415 q 920 203 1018 249 q 686 157 822 157 z "},"Ᵽ":{"ha":1201,"x_min":29,"x_max":1174,"o":"m 29 750 l 678 750 l 678 572 l 29 572 l 29 750 m 739 1042 q 974 994 876 1042 q 1122 862 1071 947 q 1174 661 1174 776 q 1122 460 1174 546 q 974 328 1071 375 q 739 281 876 281 l 293 281 l 293 536 l 718 536 q 814 569 779 536 q 849 661 849 603 q 814 753 849 721 q 718 786 779 786 l 321 786 l 467 933 l 467 0 l 143 0 l 143 1042 l 739 1042 z "},"Q":{"ha":1349,"x_min":47,"x_max":1313,"o":"m 479 433 l 863 433 l 1313 -81 l 919 -81 l 479 433 m 674 -24 q 345 44 486 -24 q 126 235 204 113 q 47 521 47 357 q 126 807 47 685 q 345 997 204 929 q 674 1065 486 1065 q 1002 997 861 1065 q 1222 807 1143 929 q 1300 521 1300 685 q 1222 235 1300 357 q 1002 44 1143 113 q 674 -24 861 -24 m 674 264 q 834 295 767 264 q 938 384 901 326 q 974 521 974 442 q 938 658 974 600 q 834 747 901 715 q 674 778 767 778 q 513 747 581 778 q 410 658 446 715 q 374 521 374 600 q 410 384 374 442 q 513 295 446 326 q 674 264 581 264 z "},"Ɋ":{"ha":1363,"x_min":51,"x_max":1510,"o":"m 1389 -8 q 1454 -3 1424 -8 q 1510 11 1485 3 l 1510 -215 q 1413 -244 1467 -235 q 1310 -253 1358 -253 q 1041 -160 1125 -253 q 957 111 957 -67 l 957 374 l 1004 521 l 957 665 l 957 1042 l 1274 1042 l 1274 132 q 1298 28 1274 64 q 1389 -8 1322 -8 m 1071 521 q 982 235 1051 357 q 805 44 913 113 q 558 -24 697 -24 q 292 44 407 -24 q 115 235 178 113 q 51 521 51 357 q 115 807 51 685 q 292 997 178 929 q 558 1065 407 1065 q 806 999 697 1065 q 983 810 914 932 q 1071 521 1053 689 m 378 521 q 411 388 378 447 q 505 295 444 329 q 643 261 565 261 q 779 295 715 261 q 892 388 843 329 q 964 521 942 447 q 892 655 942 597 q 779 747 843 713 q 643 781 715 781 q 505 747 565 781 q 411 655 444 713 q 378 521 378 597 z "},"R":{"ha":1199,"x_min":90,"x_max":1171,"o":"m 314 592 l 678 592 q 773 619 739 592 q 807 700 807 647 q 773 781 807 753 q 678 808 739 808 l 268 808 l 414 958 l 414 0 l 90 0 l 90 1042 l 726 1042 q 939 999 847 1042 q 1082 879 1031 956 q 1133 700 1133 803 q 1082 523 1133 600 q 939 403 1031 446 q 726 361 847 361 l 314 361 l 314 592 m 453 488 l 813 488 l 1171 0 l 800 0 l 453 488 z "},"Ŕ":{"ha":1199,"x_min":90,"x_max":1171,"o":"m 314 592 l 678 592 q 773 619 739 592 q 807 700 807 647 q 773 781 807 753 q 678 808 739 808 l 268 808 l 414 958 l 414 0 l 90 0 l 90 1042 l 726 1042 q 939 999 847 1042 q 1082 879 1031 956 q 1133 700 1133 803 q 1082 523 1133 600 q 939 403 1031 446 q 726 361 847 361 l 314 361 l 314 592 m 453 488 l 813 488 l 1171 0 l 800 0 l 453 488 m 596 1358 l 954 1358 l 708 1117 l 392 1117 l 596 1358 z "},"Ř":{"ha":1199,"x_min":90,"x_max":1171,"o":"m 314 592 l 678 592 q 773 619 739 592 q 807 700 807 647 q 773 781 807 753 q 678 808 739 808 l 268 808 l 414 958 l 414 0 l 90 0 l 90 1042 l 726 1042 q 939 999 847 1042 q 1082 879 1031 956 q 1133 700 1133 803 q 1082 523 1133 600 q 939 403 1031 446 q 726 361 847 361 l 314 361 l 314 592 m 453 488 l 813 488 l 1171 0 l 800 0 l 453 488 m 744 1115 l 413 1115 l 199 1357 l 454 1357 l 653 1213 l 504 1213 l 701 1357 l 957 1357 l 744 1115 z "},"Ŗ":{"ha":1199,"x_min":90,"x_max":1171,"o":"m 314 592 l 678 592 q 773 619 739 592 q 807 700 807 647 q 773 781 807 753 q 678 808 739 808 l 268 808 l 414 958 l 414 0 l 90 0 l 90 1042 l 726 1042 q 939 999 847 1042 q 1082 879 1031 956 q 1133 700 1133 803 q 1082 523 1133 600 q 939 403 1031 446 q 726 361 847 361 l 314 361 l 314 592 m 453 488 l 813 488 l 1171 0 l 800 0 l 453 488 m 444 -450 l 588 -225 l 600 -312 q 479 -278 525 -312 q 433 -186 433 -244 q 479 -93 433 -126 q 600 -60 525 -60 q 720 -93 675 -60 q 765 -187 765 -126 q 743 -262 765 -228 q 674 -353 721 -297 l 592 -450 l 444 -450 z "},"Ȑ":{"ha":1199,"x_min":47,"x_max":1171,"o":"m 314 592 l 678 592 q 773 619 739 592 q 807 700 807 647 q 773 781 807 753 q 678 808 739 808 l 268 808 l 414 958 l 414 0 l 90 0 l 90 1042 l 726 1042 q 939 999 847 1042 q 1082 879 1031 956 q 1133 700 1133 803 q 1082 523 1133 600 q 939 403 1031 446 q 726 361 847 361 l 314 361 l 314 592 m 453 488 l 813 488 l 1171 0 l 800 0 l 453 488 m 735 1358 l 907 1117 l 632 1117 l 433 1358 l 735 1358 m 350 1358 l 522 1117 l 247 1117 l 47 1358 l 350 1358 z "},"Ṙ":{"ha":1199,"x_min":90,"x_max":1171,"o":"m 314 592 l 678 592 q 773 619 739 592 q 807 700 807 647 q 773 781 807 753 q 678 808 739 808 l 268 808 l 414 958 l 414 0 l 90 0 l 90 1042 l 726 1042 q 939 999 847 1042 q 1082 879 1031 956 q 1133 700 1133 803 q 1082 523 1133 600 q 939 403 1031 446 q 726 361 847 361 l 314 361 l 314 592 m 453 488 l 813 488 l 1171 0 l 800 0 l 453 488 m 578 1110 q 447 1149 497 1110 q 397 1258 397 1189 q 447 1368 397 1328 q 578 1408 497 1408 q 710 1368 661 1408 q 760 1258 760 1328 q 710 1149 760 1189 q 578 1110 661 1110 z "},"Ṛ":{"ha":1199,"x_min":90,"x_max":1171,"o":"m 314 592 l 678 592 q 773 619 739 592 q 807 700 807 647 q 773 781 807 753 q 678 808 739 808 l 268 808 l 414 958 l 414 0 l 90 0 l 90 1042 l 726 1042 q 939 999 847 1042 q 1082 879 1031 956 q 1133 700 1133 803 q 1082 523 1133 600 q 939 403 1031 446 q 726 361 847 361 l 314 361 l 314 592 m 453 488 l 813 488 l 1171 0 l 800 0 l 453 488 m 600 -361 q 469 -321 519 -361 q 419 -212 419 -281 q 469 -103 419 -143 q 600 -62 519 -62 q 733 -103 683 -62 q 782 -212 782 -143 q 733 -321 782 -281 q 600 -361 683 -361 z "},"Ṝ":{"ha":1199,"x_min":90,"x_max":1171,"o":"m 314 592 l 678 592 q 773 619 739 592 q 807 700 807 647 q 773 781 807 753 q 678 808 739 808 l 268 808 l 414 958 l 414 0 l 90 0 l 90 1042 l 726 1042 q 939 999 847 1042 q 1082 879 1031 956 q 1133 700 1133 803 q 1082 523 1133 600 q 939 403 1031 446 q 726 361 847 361 l 314 361 l 314 592 m 453 488 l 813 488 l 1171 0 l 800 0 l 453 488 m 600 -361 q 469 -321 519 -361 q 419 -212 419 -281 q 469 -103 419 -143 q 600 -62 519 -62 q 733 -103 683 -62 q 782 -212 782 -143 q 733 -321 782 -281 q 600 -361 683 -361 m 226 1142 l 226 1328 l 929 1328 l 929 1142 l 226 1142 z "},"Ȓ":{"ha":1199,"x_min":90,"x_max":1171,"o":"m 314 592 l 678 592 q 773 619 739 592 q 807 700 807 647 q 773 781 807 753 q 678 808 739 808 l 268 808 l 414 958 l 414 0 l 90 0 l 90 1042 l 726 1042 q 939 999 847 1042 q 1082 879 1031 956 q 1133 700 1133 803 q 1082 523 1133 600 q 939 403 1031 446 q 726 361 847 361 l 314 361 l 314 592 m 453 488 l 813 488 l 1171 0 l 800 0 l 453 488 m 949 1110 l 708 1110 q 656 1161 688 1143 q 578 1179 624 1179 q 500 1161 532 1179 q 447 1110 468 1143 l 207 1110 q 342 1306 244 1242 q 578 1369 440 1369 q 815 1306 717 1369 q 949 1110 913 1242 z "},"Ṟ":{"ha":1199,"x_min":90,"x_max":1171,"o":"m 314 592 l 678 592 q 773 619 739 592 q 807 700 807 647 q 773 781 807 753 q 678 808 739 808 l 268 808 l 414 958 l 414 0 l 90 0 l 90 1042 l 726 1042 q 939 999 847 1042 q 1082 879 1031 956 q 1133 700 1133 803 q 1082 523 1133 600 q 939 403 1031 446 q 726 361 847 361 l 314 361 l 314 592 m 453 488 l 813 488 l 1171 0 l 800 0 l 453 488 m 271 -276 l 271 -89 l 972 -89 l 972 -276 l 271 -276 z "},"Ɍ":{"ha":1257,"x_min":32,"x_max":1231,"o":"m 32 586 l 450 586 l 450 369 l 32 369 l 32 586 m 372 592 l 738 592 q 831 619 797 592 q 865 700 865 647 q 831 781 865 753 q 738 808 797 808 l 326 808 l 472 958 l 472 0 l 149 0 l 149 1042 l 785 1042 q 999 999 907 1042 q 1141 879 1090 956 q 1192 700 1192 803 q 1141 523 1192 600 q 999 403 1090 446 q 785 361 907 361 l 372 361 l 372 592 m 511 488 l 871 488 l 1231 0 l 858 0 l 511 488 z "},"Ɽ":{"ha":1199,"x_min":90,"x_max":1171,"o":"m 451 488 l 813 488 l 1171 0 l 800 0 l 451 488 m 90 1042 l 726 1042 q 939 999 847 1042 q 1082 879 1031 956 q 1133 700 1133 803 q 1082 523 1133 600 q 939 403 1031 446 q 726 361 847 361 l 414 361 l 414 132 q 438 28 414 64 q 531 -8 463 -8 q 595 -3 565 -8 q 650 11 625 3 l 650 -226 q 553 -247 607 -240 q 450 -253 499 -253 q 178 -160 265 -253 q 90 111 90 -67 l 90 1042 m 414 592 l 678 592 q 773 619 739 592 q 807 700 807 647 q 773 781 807 753 q 678 808 739 808 l 414 808 l 414 592 z "},"S":{"ha":1190,"x_min":50,"x_max":1144,"o":"m 50 342 l 378 342 q 413 278 383 306 q 494 237 443 251 q 615 222 546 222 q 765 244 711 222 q 818 313 818 267 q 788 365 818 344 q 667 392 757 385 l 483 407 q 158 505 258 424 q 57 724 57 586 q 122 912 57 836 q 304 1026 188 988 q 579 1065 421 1065 q 851 1022 732 1065 q 1040 901 969 979 q 1117 718 1110 822 l 789 718 q 758 772 783 749 q 685 807 732 794 q 572 819 638 819 q 435 799 486 819 q 385 736 385 778 q 415 686 385 706 q 525 660 444 667 l 726 643 q 969 597 876 632 q 1103 501 1061 561 q 1144 349 1144 440 q 1078 153 1144 238 q 891 23 1011 69 q 610 -24 771 -24 q 319 22 444 -24 q 124 151 194 68 q 50 342 53 233 z "},"Ś":{"ha":1190,"x_min":50,"x_max":1144,"o":"m 50 342 l 378 342 q 413 278 383 306 q 494 237 443 251 q 615 222 546 222 q 765 244 711 222 q 818 313 818 267 q 788 365 818 344 q 667 392 757 385 l 483 407 q 158 505 258 424 q 57 724 57 586 q 122 912 57 836 q 304 1026 188 988 q 579 1065 421 1065 q 851 1022 732 1065 q 1040 901 969 979 q 1117 718 1110 822 l 789 718 q 758 772 783 749 q 685 807 732 794 q 572 819 638 819 q 435 799 486 819 q 385 736 385 778 q 415 686 385 706 q 525 660 444 667 l 726 643 q 969 597 876 632 q 1103 501 1061 561 q 1144 349 1144 440 q 1078 153 1144 238 q 891 23 1011 69 q 610 -24 771 -24 q 319 22 444 -24 q 124 151 194 68 q 50 342 53 233 m 613 1358 l 971 1358 l 725 1117 l 408 1117 l 613 1358 z "},"Ṥ":{"ha":1190,"x_min":50,"x_max":1144,"o":"m 50 342 l 378 342 q 413 278 383 306 q 494 237 443 251 q 615 222 546 222 q 765 244 711 222 q 818 313 818 267 q 788 365 818 344 q 667 392 757 385 l 483 407 q 158 505 258 424 q 57 724 57 586 q 122 912 57 836 q 304 1026 188 988 q 579 1065 421 1065 q 851 1022 732 1065 q 1040 901 969 979 q 1117 718 1110 822 l 789 718 q 758 772 783 749 q 685 807 732 794 q 572 819 638 819 q 435 799 486 819 q 385 736 385 778 q 415 686 385 706 q 525 660 444 667 l 726 643 q 969 597 876 632 q 1103 501 1061 561 q 1144 349 1144 440 q 1078 153 1144 238 q 891 23 1011 69 q 610 -24 771 -24 q 319 22 444 -24 q 124 151 194 68 q 50 342 53 233 m 613 1358 l 971 1358 l 725 1117 l 408 1117 l 613 1358 m 619 1403 q 489 1442 539 1403 q 439 1551 439 1482 q 489 1661 439 1621 q 619 1701 539 1701 q 752 1661 703 1701 q 801 1551 801 1621 q 752 1442 801 1482 q 619 1403 703 1403 z "},"Š":{"ha":1190,"x_min":50,"x_max":1144,"o":"m 50 342 l 378 342 q 413 278 383 306 q 494 237 443 251 q 615 222 546 222 q 765 244 711 222 q 818 313 818 267 q 788 365 818 344 q 667 392 757 385 l 483 407 q 158 505 258 424 q 57 724 57 586 q 122 912 57 836 q 304 1026 188 988 q 579 1065 421 1065 q 851 1022 732 1065 q 1040 901 969 979 q 1117 718 1110 822 l 789 718 q 758 772 783 749 q 685 807 732 794 q 572 819 638 819 q 435 799 486 819 q 385 736 385 778 q 415 686 385 706 q 525 660 444 667 l 726 643 q 969 597 876 632 q 1103 501 1061 561 q 1144 349 1144 440 q 1078 153 1144 238 q 891 23 1011 69 q 610 -24 771 -24 q 319 22 444 -24 q 124 151 194 68 q 50 342 53 233 m 761 1115 l 429 1115 l 215 1357 l 471 1357 l 669 1213 l 521 1213 l 718 1357 l 974 1357 l 761 1115 z "},"Ṧ":{"ha":1190,"x_min":50,"x_max":1144,"o":"m 50 342 l 378 342 q 413 278 383 306 q 494 237 443 251 q 615 222 546 222 q 765 244 711 222 q 818 313 818 267 q 788 365 818 344 q 667 392 757 385 l 483 407 q 158 505 258 424 q 57 724 57 586 q 122 912 57 836 q 304 1026 188 988 q 579 1065 421 1065 q 851 1022 732 1065 q 1040 901 969 979 q 1117 718 1110 822 l 789 718 q 758 772 783 749 q 685 807 732 794 q 572 819 638 819 q 435 799 486 819 q 385 736 385 778 q 415 686 385 706 q 525 660 444 667 l 726 643 q 969 597 876 632 q 1103 501 1061 561 q 1144 349 1144 440 q 1078 153 1144 238 q 891 23 1011 69 q 610 -24 771 -24 q 319 22 444 -24 q 124 151 194 68 q 50 342 53 233 m 761 1115 l 429 1115 l 215 1357 l 471 1357 l 669 1213 l 521 1213 l 718 1357 l 974 1357 l 761 1115 m 594 1404 q 464 1444 514 1404 q 414 1553 414 1485 q 464 1663 414 1622 q 594 1703 514 1703 q 727 1663 678 1703 q 776 1553 776 1622 q 727 1444 776 1485 q 594 1404 678 1404 z "},"Ş":{"ha":1190,"x_min":50,"x_max":1144,"o":"m 50 342 l 378 342 q 413 278 383 306 q 494 237 443 251 q 615 222 546 222 q 765 244 711 222 q 818 313 818 267 q 788 365 818 344 q 667 392 757 385 l 483 407 q 158 505 258 424 q 57 724 57 586 q 122 912 57 836 q 304 1026 188 988 q 579 1065 421 1065 q 851 1022 732 1065 q 1040 901 969 979 q 1117 718 1110 822 l 789 718 q 758 772 783 749 q 685 807 732 794 q 572 819 638 819 q 435 799 486 819 q 385 736 385 778 q 415 686 385 706 q 525 660 444 667 l 726 643 q 969 597 876 632 q 1103 501 1061 561 q 1144 349 1144 440 q 1078 153 1144 238 q 891 23 1011 69 q 610 -24 771 -24 q 319 22 444 -24 q 124 151 194 68 q 50 342 53 233 m 532 31 l 681 31 l 610 -96 l 531 -90 q 607 -63 567 -74 q 693 -53 647 -53 q 849 -90 796 -53 q 903 -194 903 -128 q 832 -311 903 -265 q 624 -357 761 -357 q 424 -315 503 -357 q 324 -197 344 -274 l 524 -197 q 556 -222 532 -211 q 624 -232 579 -232 q 690 -219 668 -232 q 711 -187 711 -207 q 693 -158 711 -169 q 638 -146 675 -146 q 597 -149 617 -146 q 560 -158 576 -151 l 408 -158 l 532 31 z "},"Ŝ":{"ha":1190,"x_min":50,"x_max":1144,"o":"m 50 342 l 378 342 q 413 278 383 306 q 494 237 443 251 q 615 222 546 222 q 765 244 711 222 q 818 313 818 267 q 788 365 818 344 q 667 392 757 385 l 483 407 q 158 505 258 424 q 57 724 57 586 q 122 912 57 836 q 304 1026 188 988 q 579 1065 421 1065 q 851 1022 732 1065 q 1040 901 969 979 q 1117 718 1110 822 l 789 718 q 758 772 783 749 q 685 807 732 794 q 572 819 638 819 q 435 799 486 819 q 385 736 385 778 q 415 686 385 706 q 525 660 444 667 l 726 643 q 969 597 876 632 q 1103 501 1061 561 q 1144 349 1144 440 q 1078 153 1144 238 q 891 23 1011 69 q 610 -24 771 -24 q 319 22 444 -24 q 124 151 194 68 q 50 342 53 233 m 429 1358 l 761 1358 l 974 1117 l 718 1117 l 521 1261 l 669 1261 l 471 1117 l 215 1117 l 429 1358 z "},"Ș":{"ha":1190,"x_min":50,"x_max":1144,"o":"m 50 342 l 378 342 q 413 278 383 306 q 494 237 443 251 q 615 222 546 222 q 765 244 711 222 q 818 313 818 267 q 788 365 818 344 q 667 392 757 385 l 483 407 q 158 505 258 424 q 57 724 57 586 q 122 912 57 836 q 304 1026 188 988 q 579 1065 421 1065 q 851 1022 732 1065 q 1040 901 969 979 q 1117 718 1110 822 l 789 718 q 758 772 783 749 q 685 807 732 794 q 572 819 638 819 q 435 799 486 819 q 385 736 385 778 q 415 686 385 706 q 525 660 444 667 l 726 643 q 969 597 876 632 q 1103 501 1061 561 q 1144 349 1144 440 q 1078 153 1144 238 q 891 23 1011 69 q 610 -24 771 -24 q 319 22 444 -24 q 124 151 194 68 q 50 342 53 233 m 439 -450 l 582 -225 l 594 -312 q 474 -278 519 -312 q 428 -186 428 -244 q 474 -93 428 -126 q 594 -60 519 -60 q 715 -93 669 -60 q 760 -187 760 -126 q 738 -262 760 -228 q 668 -353 715 -297 l 586 -450 l 439 -450 z "},"Ṡ":{"ha":1190,"x_min":50,"x_max":1144,"o":"m 50 342 l 378 342 q 413 278 383 306 q 494 237 443 251 q 615 222 546 222 q 765 244 711 222 q 818 313 818 267 q 788 365 818 344 q 667 392 757 385 l 483 407 q 158 505 258 424 q 57 724 57 586 q 122 912 57 836 q 304 1026 188 988 q 579 1065 421 1065 q 851 1022 732 1065 q 1040 901 969 979 q 1117 718 1110 822 l 789 718 q 758 772 783 749 q 685 807 732 794 q 572 819 638 819 q 435 799 486 819 q 385 736 385 778 q 415 686 385 706 q 525 660 444 667 l 726 643 q 969 597 876 632 q 1103 501 1061 561 q 1144 349 1144 440 q 1078 153 1144 238 q 891 23 1011 69 q 610 -24 771 -24 q 319 22 444 -24 q 124 151 194 68 q 50 342 53 233 m 594 1110 q 464 1149 514 1110 q 414 1258 414 1189 q 464 1368 414 1328 q 594 1408 514 1408 q 727 1368 678 1408 q 776 1258 776 1328 q 727 1149 776 1189 q 594 1110 678 1110 z "},"Ṣ":{"ha":1190,"x_min":50,"x_max":1144,"o":"m 50 342 l 378 342 q 413 278 383 306 q 494 237 443 251 q 615 222 546 222 q 765 244 711 222 q 818 313 818 267 q 788 365 818 344 q 667 392 757 385 l 483 407 q 158 505 258 424 q 57 724 57 586 q 122 912 57 836 q 304 1026 188 988 q 579 1065 421 1065 q 851 1022 732 1065 q 1040 901 969 979 q 1117 718 1110 822 l 789 718 q 758 772 783 749 q 685 807 732 794 q 572 819 638 819 q 435 799 486 819 q 385 736 385 778 q 415 686 385 706 q 525 660 444 667 l 726 643 q 969 597 876 632 q 1103 501 1061 561 q 1144 349 1144 440 q 1078 153 1144 238 q 891 23 1011 69 q 610 -24 771 -24 q 319 22 444 -24 q 124 151 194 68 q 50 342 53 233 m 594 -361 q 464 -321 514 -361 q 414 -212 414 -281 q 464 -103 414 -143 q 594 -62 514 -62 q 727 -103 678 -62 q 776 -212 776 -143 q 727 -321 776 -281 q 594 -361 678 -361 z "},"Ṩ":{"ha":1190,"x_min":50,"x_max":1144,"o":"m 50 342 l 378 342 q 413 278 383 306 q 494 237 443 251 q 615 222 546 222 q 765 244 711 222 q 818 313 818 267 q 788 365 818 344 q 667 392 757 385 l 483 407 q 158 505 258 424 q 57 724 57 586 q 122 912 57 836 q 304 1026 188 988 q 579 1065 421 1065 q 851 1022 732 1065 q 1040 901 969 979 q 1117 718 1110 822 l 789 718 q 758 772 783 749 q 685 807 732 794 q 572 819 638 819 q 435 799 486 819 q 385 736 385 778 q 415 686 385 706 q 525 660 444 667 l 726 643 q 969 597 876 632 q 1103 501 1061 561 q 1144 349 1144 440 q 1078 153 1144 238 q 891 23 1011 69 q 610 -24 771 -24 q 319 22 444 -24 q 124 151 194 68 q 50 342 53 233 m 594 -361 q 464 -321 514 -361 q 414 -212 414 -281 q 464 -103 414 -143 q 594 -62 514 -62 q 727 -103 678 -62 q 776 -212 776 -143 q 727 -321 776 -281 q 594 -361 678 -361 m 594 1110 q 464 1149 514 1110 q 414 1258 414 1189 q 464 1368 414 1328 q 594 1408 514 1408 q 727 1368 678 1408 q 776 1258 776 1328 q 727 1149 776 1189 q 594 1110 678 1110 z "},"ẞ":{"ha":1301,"x_min":76,"x_max":1257,"o":"m 801 -24 q 686 -18 738 -24 q 586 -1 635 -12 q 481 28 538 11 l 481 264 q 636 219 574 233 q 763 206 699 206 q 856 216 818 206 q 915 248 894 226 q 935 304 935 269 q 916 354 935 335 q 847 385 897 374 q 701 408 797 397 l 628 417 l 628 621 l 996 914 l 997 761 q 822 803 904 792 q 669 814 739 814 q 463 756 528 814 q 397 581 397 699 l 397 0 l 76 0 l 76 568 q 142 840 76 729 q 339 1008 207 951 q 669 1065 471 1065 q 945 1040 814 1065 q 1169 976 1076 1015 l 1169 768 l 846 522 l 725 619 l 811 611 q 1031 573 944 599 q 1167 510 1118 547 q 1237 423 1217 472 q 1257 313 1257 374 q 1200 126 1257 200 q 1040 14 1143 51 q 801 -24 938 -24 z "},"T":{"ha":1151,"x_min":28,"x_max":1124,"o":"m 414 901 l 738 901 l 738 0 l 414 0 l 414 901 m 28 1042 l 1124 1042 l 1124 754 l 28 754 l 28 1042 z "},"Ŧ":{"ha":1167,"x_min":36,"x_max":1131,"o":"m 167 553 l 1000 553 l 1000 336 l 167 336 l 167 553 m 422 901 l 744 901 l 744 0 l 422 0 l 422 901 m 36 1042 l 1131 1042 l 1131 754 l 36 754 l 36 1042 z "},"Ť":{"ha":1151,"x_min":28,"x_max":1124,"o":"m 414 901 l 738 901 l 738 0 l 414 0 l 414 901 m 28 1042 l 1124 1042 l 1124 754 l 28 754 l 28 1042 m 742 1115 l 410 1115 l 196 1357 l 451 1357 l 650 1213 l 501 1213 l 700 1357 l 954 1357 l 742 1115 z "},"Ţ":{"ha":1151,"x_min":28,"x_max":1124,"o":"m 414 901 l 738 901 l 738 0 l 414 0 l 414 901 m 28 1042 l 1124 1042 l 1124 754 l 28 754 l 28 1042 m 514 31 l 663 31 l 592 -96 l 513 -90 q 589 -63 549 -74 q 675 -53 629 -53 q 831 -90 778 -53 q 885 -194 885 -128 q 814 -311 885 -265 q 606 -357 743 -357 q 406 -315 485 -357 q 306 -197 326 -274 l 506 -197 q 538 -222 514 -211 q 606 -232 561 -232 q 672 -219 650 -232 q 693 -187 693 -207 q 675 -158 693 -169 q 619 -146 657 -146 q 578 -149 599 -146 q 542 -158 558 -151 l 390 -158 l 514 31 z "},"Ṱ":{"ha":1151,"x_min":28,"x_max":1124,"o":"m 414 901 l 738 901 l 738 0 l 414 0 l 414 901 m 28 1042 l 1124 1042 l 1124 754 l 28 754 l 28 1042 m 414 -58 l 738 -58 l 936 -328 l 689 -328 l 501 -132 l 650 -132 l 464 -328 l 215 -328 l 414 -58 z "},"Ț":{"ha":1151,"x_min":28,"x_max":1124,"o":"m 414 901 l 738 901 l 738 0 l 414 0 l 414 901 m 28 1042 l 1124 1042 l 1124 754 l 28 754 l 28 1042 m 419 -450 l 563 -225 l 575 -312 q 454 -278 500 -312 q 408 -186 408 -244 q 454 -93 408 -126 q 575 -60 500 -60 q 695 -93 650 -60 q 740 -187 740 -126 q 718 -262 740 -228 q 649 -353 696 -297 l 567 -450 l 419 -450 z "},"Ⱦ":{"ha":1179,"x_min":28,"x_max":1281,"o":"m 1021 1211 l 1281 1211 l 468 -169 l 208 -169 l 1021 1211 m 414 901 l 738 901 l 738 0 l 414 0 l 414 901 m 28 1042 l 1124 1042 l 1124 754 l 28 754 l 28 1042 z "},"Ṫ":{"ha":1151,"x_min":28,"x_max":1124,"o":"m 414 901 l 738 901 l 738 0 l 414 0 l 414 901 m 28 1042 l 1124 1042 l 1124 754 l 28 754 l 28 1042 m 575 1110 q 444 1149 494 1110 q 394 1258 394 1189 q 444 1368 394 1328 q 575 1408 494 1408 q 708 1368 658 1408 q 757 1258 757 1328 q 708 1149 757 1189 q 575 1110 658 1110 z "},"Ṭ":{"ha":1151,"x_min":28,"x_max":1124,"o":"m 414 901 l 738 901 l 738 0 l 414 0 l 414 901 m 28 1042 l 1124 1042 l 1124 754 l 28 754 l 28 1042 m 575 -361 q 444 -321 494 -361 q 394 -212 394 -281 q 444 -103 394 -143 q 575 -62 494 -62 q 708 -103 658 -62 q 757 -212 757 -143 q 708 -321 757 -281 q 575 -361 658 -361 z "},"Ƭ":{"ha":1285,"x_min":22,"x_max":1257,"o":"m 549 901 l 871 901 l 871 0 l 549 0 l 549 901 m 1257 1042 l 1257 754 l 399 754 q 321 732 346 754 q 296 665 296 710 q 302 609 296 636 q 315 563 308 582 l 81 563 q 41 659 60 606 q 22 781 22 713 q 96 971 22 900 q 331 1042 169 1042 l 1257 1042 z "},"Ṯ":{"ha":1151,"x_min":28,"x_max":1124,"o":"m 414 901 l 738 901 l 738 0 l 414 0 l 414 901 m 28 1042 l 1124 1042 l 1124 754 l 28 754 l 28 1042 m 246 -276 l 246 -89 l 947 -89 l 947 -276 l 246 -276 z "},"Ʈ":{"ha":1156,"x_min":28,"x_max":1124,"o":"m 28 1042 l 1124 1042 l 1124 754 l 28 754 l 28 1042 m 854 -8 q 919 -3 889 -8 q 974 11 949 3 l 974 -226 q 876 -247 931 -240 q 774 -253 822 -253 q 502 -160 590 -253 q 414 111 414 -67 l 414 901 l 738 901 l 738 132 q 763 28 738 64 q 854 -8 788 -8 z "},"U":{"ha":1228,"x_min":76,"x_max":1150,"o":"m 400 472 q 424 361 400 407 q 494 290 447 315 q 613 264 542 264 q 733 289 686 264 q 803 360 781 314 q 826 472 826 407 l 826 1042 l 1150 1042 l 1150 454 q 1083 203 1150 311 q 896 36 1017 96 q 613 -24 775 -24 q 332 36 453 -24 q 144 203 211 96 q 76 454 76 311 l 76 1042 l 400 1042 l 400 472 z "},"Ú":{"ha":1228,"x_min":76,"x_max":1150,"o":"m 400 472 q 424 361 400 407 q 494 290 447 315 q 613 264 542 264 q 733 289 686 264 q 803 360 781 314 q 826 472 826 407 l 826 1042 l 1150 1042 l 1150 454 q 1083 203 1150 311 q 896 36 1017 96 q 613 -24 775 -24 q 332 36 453 -24 q 144 203 211 96 q 76 454 76 311 l 76 1042 l 400 1042 l 400 472 m 631 1358 l 989 1358 l 743 1117 l 426 1117 l 631 1358 z "},"Ʉ":{"ha":1378,"x_min":38,"x_max":1340,"o":"m 38 713 l 1340 713 l 1340 496 l 38 496 l 38 713 m 475 472 q 499 361 475 407 q 569 290 522 315 q 689 264 617 264 q 808 289 761 264 q 879 360 856 314 q 903 472 903 407 l 903 1042 l 1225 1042 l 1225 454 q 1158 203 1225 311 q 971 36 1092 96 q 689 -24 850 -24 q 407 36 528 -24 q 219 203 286 96 q 151 454 151 311 l 151 1042 l 475 1042 l 475 472 z "},"Ŭ":{"ha":1228,"x_min":76,"x_max":1150,"o":"m 400 472 q 424 361 400 407 q 494 290 447 315 q 613 264 542 264 q 733 289 686 264 q 803 360 781 314 q 826 472 826 407 l 826 1042 l 1150 1042 l 1150 454 q 1083 203 1150 311 q 896 36 1017 96 q 613 -24 775 -24 q 332 36 453 -24 q 144 203 211 96 q 76 454 76 311 l 76 1042 l 400 1042 l 400 472 m 242 1365 l 482 1365 q 535 1313 503 1331 q 613 1296 568 1296 q 691 1313 658 1296 q 744 1365 724 1331 l 985 1365 q 849 1168 947 1232 q 613 1104 751 1104 q 378 1168 476 1104 q 242 1365 279 1232 z "},"Ǔ":{"ha":1228,"x_min":76,"x_max":1150,"o":"m 400 472 q 424 361 400 407 q 494 290 447 315 q 613 264 542 264 q 733 289 686 264 q 803 360 781 314 q 826 472 826 407 l 826 1042 l 1150 1042 l 1150 454 q 1083 203 1150 311 q 896 36 1017 96 q 613 -24 775 -24 q 332 36 453 -24 q 144 203 211 96 q 76 454 76 311 l 76 1042 l 400 1042 l 400 472 m 779 1115 l 447 1115 l 233 1357 l 489 1357 l 688 1213 l 539 1213 l 738 1357 l 992 1357 l 779 1115 z "},"Û":{"ha":1228,"x_min":76,"x_max":1150,"o":"m 400 472 q 424 361 400 407 q 494 290 447 315 q 613 264 542 264 q 733 289 686 264 q 803 360 781 314 q 826 472 826 407 l 826 1042 l 1150 1042 l 1150 454 q 1083 203 1150 311 q 896 36 1017 96 q 613 -24 775 -24 q 332 36 453 -24 q 144 203 211 96 q 76 454 76 311 l 76 1042 l 400 1042 l 400 472 m 447 1358 l 779 1358 l 992 1117 l 736 1117 l 539 1261 l 688 1261 l 489 1117 l 233 1117 l 447 1358 z "},"Ṷ":{"ha":1228,"x_min":76,"x_max":1150,"o":"m 400 472 q 424 361 400 407 q 494 290 447 315 q 613 264 542 264 q 733 289 686 264 q 803 360 781 314 q 826 472 826 407 l 826 1042 l 1150 1042 l 1150 454 q 1083 203 1150 311 q 896 36 1017 96 q 613 -24 775 -24 q 332 36 453 -24 q 144 203 211 96 q 76 454 76 311 l 76 1042 l 400 1042 l 400 472 m 451 -58 l 775 -58 l 974 -328 l 726 -328 l 539 -132 l 688 -132 l 501 -328 l 253 -328 l 451 -58 z "},"Ȕ":{"ha":1228,"x_min":76,"x_max":1150,"o":"m 400 472 q 424 361 400 407 q 494 290 447 315 q 613 264 542 264 q 733 289 686 264 q 803 360 781 314 q 826 472 826 407 l 826 1042 l 1150 1042 l 1150 454 q 1083 203 1150 311 q 896 36 1017 96 q 613 -24 775 -24 q 332 36 453 -24 q 144 203 211 96 q 76 454 76 311 l 76 1042 l 400 1042 l 400 472 m 769 1358 l 942 1117 l 668 1117 l 468 1358 l 769 1358 m 385 1358 l 557 1117 l 282 1117 l 82 1358 l 385 1358 z "},"Ü":{"ha":1228,"x_min":76,"x_max":1150,"o":"m 400 472 q 424 361 400 407 q 494 290 447 315 q 613 264 542 264 q 733 289 686 264 q 803 360 781 314 q 826 472 826 407 l 826 1042 l 1150 1042 l 1150 454 q 1083 203 1150 311 q 896 36 1017 96 q 613 -24 775 -24 q 332 36 453 -24 q 144 203 211 96 q 76 454 76 311 l 76 1042 l 400 1042 l 400 472 m 394 1110 q 272 1147 318 1110 q 226 1253 226 1185 q 272 1354 226 1317 q 394 1392 318 1392 q 517 1354 471 1392 q 563 1253 563 1317 q 517 1147 563 1185 q 394 1110 471 1110 m 832 1110 q 710 1147 756 1110 q 664 1253 664 1185 q 710 1354 664 1317 q 832 1392 756 1392 q 954 1354 908 1392 q 1000 1253 1000 1317 q 954 1147 1000 1185 q 832 1110 908 1110 z "},"Ǘ":{"ha":1228,"x_min":76,"x_max":1150,"o":"m 400 472 q 424 361 400 407 q 494 290 447 315 q 613 264 542 264 q 733 289 686 264 q 803 360 781 314 q 826 472 826 407 l 826 1042 l 1150 1042 l 1150 454 q 1083 203 1150 311 q 896 36 1017 96 q 613 -24 775 -24 q 332 36 453 -24 q 144 203 211 96 q 76 454 76 311 l 76 1042 l 400 1042 l 400 472 m 394 1110 q 272 1147 318 1110 q 226 1253 226 1185 q 272 1354 226 1317 q 394 1392 318 1392 q 517 1354 471 1392 q 563 1253 563 1317 q 517 1147 563 1185 q 394 1110 471 1110 m 832 1110 q 710 1147 756 1110 q 664 1253 664 1185 q 710 1354 664 1317 q 832 1392 756 1392 q 954 1354 908 1392 q 1000 1253 1000 1317 q 954 1147 1000 1185 q 832 1110 908 1110 m 632 1682 l 990 1682 l 744 1440 l 428 1440 l 632 1682 z "},"Ṳ":{"ha":1228,"x_min":76,"x_max":1150,"o":"m 400 472 q 424 361 400 407 q 494 290 447 315 q 613 264 542 264 q 733 289 686 264 q 803 360 781 314 q 826 472 826 407 l 826 1042 l 1150 1042 l 1150 454 q 1083 203 1150 311 q 896 36 1017 96 q 613 -24 775 -24 q 332 36 453 -24 q 144 203 211 96 q 76 454 76 311 l 76 1042 l 400 1042 l 400 472 m 399 -344 q 276 -307 321 -344 q 231 -201 231 -269 q 276 -100 231 -137 q 399 -62 321 -62 q 521 -100 475 -62 q 567 -201 567 -137 q 521 -307 567 -269 q 399 -344 475 -344 m 828 -344 q 706 -307 751 -344 q 660 -201 660 -269 q 706 -100 660 -137 q 828 -62 751 -62 q 950 -100 904 -62 q 996 -201 996 -137 q 950 -307 996 -269 q 828 -344 904 -344 z "},"Ǚ":{"ha":1228,"x_min":76,"x_max":1150,"o":"m 400 472 q 424 361 400 407 q 494 290 447 315 q 613 264 542 264 q 733 289 686 264 q 803 360 781 314 q 826 472 826 407 l 826 1042 l 1150 1042 l 1150 454 q 1083 203 1150 311 q 896 36 1017 96 q 613 -24 775 -24 q 332 36 453 -24 q 144 203 211 96 q 76 454 76 311 l 76 1042 l 400 1042 l 400 472 m 394 1110 q 272 1147 318 1110 q 226 1253 226 1185 q 272 1354 226 1317 q 394 1392 318 1392 q 517 1354 471 1392 q 563 1253 563 1317 q 517 1147 563 1185 q 394 1110 471 1110 m 832 1110 q 710 1147 756 1110 q 664 1253 664 1185 q 710 1354 664 1317 q 832 1392 756 1392 q 954 1354 908 1392 q 1000 1253 1000 1317 q 954 1147 1000 1185 q 832 1110 908 1110 m 781 1439 l 449 1439 l 235 1681 l 490 1681 l 689 1536 l 540 1536 l 738 1681 l 993 1681 l 781 1439 z "},"Ǜ":{"ha":1228,"x_min":76,"x_max":1150,"o":"m 400 472 q 424 361 400 407 q 494 290 447 315 q 613 264 542 264 q 733 289 686 264 q 803 360 781 314 q 826 472 826 407 l 826 1042 l 1150 1042 l 1150 454 q 1083 203 1150 311 q 896 36 1017 96 q 613 -24 775 -24 q 332 36 453 -24 q 144 203 211 96 q 76 454 76 311 l 76 1042 l 400 1042 l 400 472 m 394 1110 q 272 1147 318 1110 q 226 1253 226 1185 q 272 1354 226 1317 q 394 1392 318 1392 q 517 1354 471 1392 q 563 1253 563 1317 q 517 1147 563 1185 q 394 1110 471 1110 m 832 1110 q 710 1147 756 1110 q 664 1253 664 1185 q 710 1354 664 1317 q 832 1392 756 1392 q 954 1354 908 1392 q 1000 1253 1000 1317 q 954 1147 1000 1185 q 832 1110 908 1110 m 582 1682 l 788 1440 l 469 1440 l 224 1682 l 582 1682 z "},"Ǖ":{"ha":1228,"x_min":76,"x_max":1150,"o":"m 400 472 q 424 361 400 407 q 494 290 447 315 q 613 264 542 264 q 733 289 686 264 q 803 360 781 314 q 826 472 826 407 l 826 1042 l 1150 1042 l 1150 454 q 1083 203 1150 311 q 896 36 1017 96 q 613 -24 775 -24 q 332 36 453 -24 q 144 203 211 96 q 76 454 76 311 l 76 1042 l 400 1042 l 400 472 m 394 1110 q 272 1147 318 1110 q 226 1253 226 1185 q 272 1354 226 1317 q 394 1392 318 1392 q 517 1354 471 1392 q 563 1253 563 1317 q 517 1147 563 1185 q 394 1110 471 1110 m 832 1110 q 710 1147 756 1110 q 664 1253 664 1185 q 710 1354 664 1317 q 832 1392 756 1392 q 954 1354 908 1392 q 1000 1253 1000 1317 q 954 1147 1000 1185 q 832 1110 908 1110 m 263 1451 l 263 1638 l 965 1638 l 965 1451 l 263 1451 z "},"Ụ":{"ha":1228,"x_min":76,"x_max":1150,"o":"m 400 472 q 424 361 400 407 q 494 290 447 315 q 613 264 542 264 q 733 289 686 264 q 803 360 781 314 q 826 472 826 407 l 826 1042 l 1150 1042 l 1150 454 q 1083 203 1150 311 q 896 36 1017 96 q 613 -24 775 -24 q 332 36 453 -24 q 144 203 211 96 q 76 454 76 311 l 76 1042 l 400 1042 l 400 472 m 613 -361 q 482 -321 532 -361 q 432 -212 432 -281 q 482 -103 432 -143 q 613 -62 532 -62 q 745 -103 696 -62 q 794 -212 794 -143 q 745 -321 794 -281 q 613 -361 696 -361 z "},"Ù":{"ha":1228,"x_min":76,"x_max":1150,"o":"m 400 472 q 424 361 400 407 q 494 290 447 315 q 613 264 542 264 q 733 289 686 264 q 803 360 781 314 q 826 472 826 407 l 826 1042 l 1150 1042 l 1150 454 q 1083 203 1150 311 q 896 36 1017 96 q 613 -24 775 -24 q 332 36 453 -24 q 144 203 211 96 q 76 454 76 311 l 76 1042 l 400 1042 l 400 472 m 582 1358 l 786 1117 l 468 1117 l 224 1358 l 582 1358 z "},"Ủ":{"ha":1228,"x_min":76,"x_max":1150,"o":"m 400 472 q 424 361 400 407 q 494 290 447 315 q 613 264 542 264 q 733 289 686 264 q 803 360 781 314 q 826 472 826 407 l 826 1042 l 1150 1042 l 1150 454 q 1083 203 1150 311 q 896 36 1017 96 q 613 -24 775 -24 q 332 36 453 -24 q 144 203 211 96 q 76 454 76 311 l 76 1042 l 400 1042 l 400 472 m 546 1097 l 490 1190 q 582 1216 556 1201 q 608 1246 608 1231 q 589 1269 608 1261 q 529 1276 569 1276 q 471 1273 497 1276 q 414 1264 444 1269 l 414 1418 q 497 1436 443 1428 q 607 1444 551 1444 q 806 1409 738 1444 q 874 1293 874 1374 q 799 1173 874 1221 q 546 1097 724 1125 z "},"Ư":{"ha":1361,"x_min":76,"x_max":1422,"o":"m 400 472 q 424 361 400 407 q 494 290 447 315 q 613 264 542 264 q 733 289 686 264 q 803 360 781 314 q 826 472 826 407 l 826 1042 l 1150 1042 l 1150 454 q 1083 203 1150 311 q 896 36 1017 96 q 613 -24 775 -24 q 332 36 453 -24 q 144 203 211 96 q 76 454 76 311 l 76 1042 l 400 1042 l 400 472 m 1422 1072 q 1342 924 1422 978 q 1122 869 1263 869 q 1108 869 1117 869 q 1093 869 1099 869 l 1093 1042 q 1096 1042 1096 1042 q 1097 1042 1096 1042 q 1158 1062 1136 1042 q 1179 1115 1179 1082 q 1169 1165 1179 1139 q 1139 1222 1160 1192 l 1374 1222 q 1422 1072 1422 1147 z "},"Ứ":{"ha":1361,"x_min":76,"x_max":1422,"o":"m 400 472 q 424 361 400 407 q 494 290 447 315 q 613 264 542 264 q 733 289 686 264 q 803 360 781 314 q 826 472 826 407 l 826 1042 l 1150 1042 l 1150 454 q 1083 203 1150 311 q 896 36 1017 96 q 613 -24 775 -24 q 332 36 453 -24 q 144 203 211 96 q 76 454 76 311 l 76 1042 l 400 1042 l 400 472 m 1422 1072 q 1342 924 1422 978 q 1122 869 1263 869 q 1108 869 1117 869 q 1093 869 1099 869 l 1093 1042 q 1096 1042 1096 1042 q 1097 1042 1096 1042 q 1158 1062 1136 1042 q 1179 1115 1179 1082 q 1169 1165 1179 1139 q 1139 1222 1160 1192 l 1374 1222 q 1422 1072 1422 1147 m 635 1358 l 993 1358 l 747 1117 l 431 1117 l 635 1358 z "},"Ự":{"ha":1361,"x_min":76,"x_max":1422,"o":"m 400 472 q 424 361 400 407 q 494 290 447 315 q 613 264 542 264 q 733 289 686 264 q 803 360 781 314 q 826 472 826 407 l 826 1042 l 1150 1042 l 1150 454 q 1083 203 1150 311 q 896 36 1017 96 q 613 -24 775 -24 q 332 36 453 -24 q 144 203 211 96 q 76 454 76 311 l 76 1042 l 400 1042 l 400 472 m 1422 1072 q 1342 924 1422 978 q 1122 869 1263 869 q 1108 869 1117 869 q 1093 869 1099 869 l 1093 1042 q 1096 1042 1096 1042 q 1097 1042 1096 1042 q 1158 1062 1136 1042 q 1179 1115 1179 1082 q 1169 1165 1179 1139 q 1139 1222 1160 1192 l 1374 1222 q 1422 1072 1422 1147 m 618 -361 q 488 -321 538 -361 q 438 -212 438 -281 q 488 -103 438 -143 q 618 -62 538 -62 q 751 -103 701 -62 q 800 -212 800 -143 q 751 -321 800 -281 q 618 -361 701 -361 z "},"Ừ":{"ha":1361,"x_min":76,"x_max":1422,"o":"m 400 472 q 424 361 400 407 q 494 290 447 315 q 613 264 542 264 q 733 289 686 264 q 803 360 781 314 q 826 472 826 407 l 826 1042 l 1150 1042 l 1150 454 q 1083 203 1150 311 q 896 36 1017 96 q 613 -24 775 -24 q 332 36 453 -24 q 144 203 211 96 q 76 454 76 311 l 76 1042 l 400 1042 l 400 472 m 1422 1074 q 1342 924 1422 979 q 1121 869 1263 869 q 1107 869 1115 869 q 1093 869 1099 869 l 1093 1042 q 1096 1042 1096 1042 q 1097 1042 1096 1042 q 1157 1063 1135 1042 q 1179 1115 1179 1083 q 1169 1165 1179 1139 q 1138 1222 1158 1192 l 1374 1222 q 1422 1074 1422 1147 m 586 1358 l 792 1117 l 474 1117 l 228 1358 l 586 1358 z "},"Ử":{"ha":1361,"x_min":76,"x_max":1422,"o":"m 400 472 q 424 361 400 407 q 494 290 447 315 q 613 264 542 264 q 733 289 686 264 q 803 360 781 314 q 826 472 826 407 l 826 1042 l 1150 1042 l 1150 454 q 1083 203 1150 311 q 896 36 1017 96 q 613 -24 775 -24 q 332 36 453 -24 q 144 203 211 96 q 76 454 76 311 l 76 1042 l 400 1042 l 400 472 m 1422 1072 q 1342 924 1422 978 q 1122 869 1263 869 q 1108 869 1117 869 q 1093 869 1099 869 l 1093 1042 q 1096 1042 1096 1042 q 1097 1042 1096 1042 q 1158 1062 1136 1042 q 1179 1115 1179 1082 q 1169 1165 1179 1139 q 1139 1222 1160 1192 l 1374 1222 q 1422 1072 1422 1147 m 550 1097 l 494 1190 q 586 1216 560 1201 q 613 1246 613 1231 q 593 1269 613 1261 q 533 1276 574 1276 q 475 1273 501 1276 q 418 1264 449 1269 l 418 1418 q 501 1436 447 1428 q 611 1444 556 1444 q 810 1409 742 1444 q 878 1293 878 1374 q 803 1173 878 1221 q 550 1097 728 1125 z "},"Ữ":{"ha":1361,"x_min":76,"x_max":1422,"o":"m 400 472 q 424 361 400 407 q 494 290 447 315 q 613 264 542 264 q 733 289 686 264 q 803 360 781 314 q 826 472 826 407 l 826 1042 l 1150 1042 l 1150 454 q 1083 203 1150 311 q 896 36 1017 96 q 613 -24 775 -24 q 332 36 453 -24 q 144 203 211 96 q 76 454 76 311 l 76 1042 l 400 1042 l 400 472 m 1422 1072 q 1342 924 1422 978 q 1122 869 1263 869 q 1108 869 1117 869 q 1093 869 1099 869 l 1093 1042 q 1096 1042 1096 1042 q 1097 1042 1096 1042 q 1158 1062 1136 1042 q 1179 1115 1179 1082 q 1169 1165 1179 1139 q 1139 1222 1160 1192 l 1374 1222 q 1422 1072 1422 1147 m 222 1122 q 301 1307 239 1240 q 483 1374 363 1374 q 558 1364 522 1374 q 625 1342 593 1354 q 685 1321 657 1331 q 736 1311 713 1311 q 784 1325 765 1311 q 808 1365 803 1339 l 1011 1365 q 933 1182 994 1250 q 751 1114 872 1114 q 677 1124 713 1114 q 610 1146 642 1133 q 549 1168 578 1158 q 497 1178 521 1178 q 450 1164 469 1178 q 426 1122 431 1150 l 222 1122 z "},"Ű":{"ha":1228,"x_min":76,"x_max":1154,"o":"m 400 472 q 424 361 400 407 q 494 290 447 315 q 613 264 542 264 q 733 289 686 264 q 803 360 781 314 q 826 472 826 407 l 826 1042 l 1150 1042 l 1150 454 q 1083 203 1150 311 q 896 36 1017 96 q 613 -24 775 -24 q 332 36 453 -24 q 144 203 211 96 q 76 454 76 311 l 76 1042 l 400 1042 l 400 472 m 467 1358 l 768 1358 l 568 1117 l 294 1117 l 467 1358 m 851 1358 l 1154 1358 l 954 1117 l 679 1117 l 851 1358 z "},"Ȗ":{"ha":1228,"x_min":76,"x_max":1150,"o":"m 400 472 q 424 361 400 407 q 494 290 447 315 q 613 264 542 264 q 733 289 686 264 q 803 360 781 314 q 826 472 826 407 l 826 1042 l 1150 1042 l 1150 454 q 1083 203 1150 311 q 896 36 1017 96 q 613 -24 775 -24 q 332 36 453 -24 q 144 203 211 96 q 76 454 76 311 l 76 1042 l 400 1042 l 400 472 m 983 1110 l 744 1110 q 690 1161 722 1143 q 613 1179 658 1179 q 535 1161 568 1179 q 482 1110 503 1143 l 242 1110 q 378 1306 279 1242 q 613 1369 476 1369 q 849 1306 751 1369 q 983 1110 947 1242 z "},"Ū":{"ha":1228,"x_min":76,"x_max":1150,"o":"m 400 472 q 424 361 400 407 q 494 290 447 315 q 613 264 542 264 q 733 289 686 264 q 803 360 781 314 q 826 472 826 407 l 826 1042 l 1150 1042 l 1150 454 q 1083 203 1150 311 q 896 36 1017 96 q 613 -24 775 -24 q 332 36 453 -24 q 144 203 211 96 q 76 454 76 311 l 76 1042 l 400 1042 l 400 472 m 261 1142 l 261 1328 l 964 1328 l 964 1142 l 261 1142 z "},"Ṻ":{"ha":1228,"x_min":76,"x_max":1150,"o":"m 400 472 q 424 361 400 407 q 494 290 447 315 q 613 264 542 264 q 733 289 686 264 q 803 360 781 314 q 826 472 826 407 l 826 1042 l 1150 1042 l 1150 454 q 1083 203 1150 311 q 896 36 1017 96 q 613 -24 775 -24 q 332 36 453 -24 q 144 203 211 96 q 76 454 76 311 l 76 1042 l 400 1042 l 400 472 m 261 1142 l 261 1328 l 964 1328 l 964 1142 l 261 1142 m 394 1404 q 272 1442 318 1404 q 226 1547 226 1479 q 272 1649 226 1611 q 394 1686 318 1686 q 517 1649 471 1686 q 563 1547 563 1611 q 517 1442 563 1479 q 394 1404 471 1404 m 832 1404 q 710 1442 756 1404 q 664 1547 664 1479 q 710 1649 664 1611 q 832 1686 756 1686 q 954 1649 908 1686 q 1000 1547 1000 1611 q 954 1442 1000 1479 q 832 1404 908 1404 z "},"Ų":{"ha":1228,"x_min":76,"x_max":1150,"o":"m 826 472 l 826 1042 l 1150 1042 l 1150 456 q 1057 165 1150 283 q 803 1 964 46 q 694 -43 732 -19 q 657 -92 657 -67 q 746 -129 657 -129 q 789 -126 769 -129 q 826 -119 808 -124 l 826 -281 q 763 -294 808 -287 q 667 -301 717 -301 q 500 -262 564 -301 q 436 -160 436 -224 q 497 -55 436 -97 q 681 14 558 -12 l 663 -22 q 357 25 489 -32 q 151 192 225 82 q 76 456 76 303 l 76 1042 l 400 1042 l 400 472 q 424 362 400 408 q 494 290 447 315 q 613 265 542 265 q 733 290 686 265 q 803 361 781 314 q 826 472 826 408 z "},"Ʊ":{"ha":1376,"x_min":54,"x_max":1322,"o":"m 689 -24 q 351 42 486 -24 q 150 218 217 107 q 83 468 83 329 q 203 777 83 649 q 539 957 324 906 l 428 814 l 54 814 l 54 1042 l 582 1042 l 582 836 q 449 722 500 796 q 399 546 399 647 q 433 397 399 460 q 533 299 468 333 q 689 265 599 265 q 844 299 779 265 q 943 397 908 333 q 978 546 978 460 q 927 722 978 647 q 794 836 876 796 l 794 1042 l 1322 1042 l 1322 814 l 949 814 l 838 957 q 1174 777 1054 906 q 1293 468 1293 649 q 1226 218 1293 329 q 1026 42 1160 107 q 689 -24 892 -24 z "},"Ů":{"ha":1228,"x_min":76,"x_max":1150,"o":"m 400 472 q 424 361 400 407 q 494 290 447 315 q 613 264 542 264 q 733 289 686 264 q 803 360 781 314 q 826 472 826 407 l 826 1042 l 1150 1042 l 1150 454 q 1083 203 1150 311 q 896 36 1017 96 q 613 -24 775 -24 q 332 36 453 -24 q 144 203 211 96 q 76 454 76 311 l 76 1042 l 400 1042 l 400 472 m 613 1090 q 397 1142 474 1090 q 321 1289 321 1194 q 397 1436 321 1385 q 613 1488 474 1488 q 828 1436 753 1488 q 904 1289 904 1385 q 828 1142 904 1194 q 613 1090 753 1090 m 613 1224 q 703 1241 675 1224 q 732 1289 732 1258 q 703 1338 732 1321 q 613 1354 675 1354 q 522 1338 550 1354 q 494 1289 494 1321 q 522 1241 494 1258 q 613 1224 550 1224 z "},"Ũ":{"ha":1228,"x_min":76,"x_max":1150,"o":"m 400 472 q 424 361 400 407 q 494 290 447 315 q 613 264 542 264 q 733 289 686 264 q 803 360 781 314 q 826 472 826 407 l 826 1042 l 1150 1042 l 1150 454 q 1083 203 1150 311 q 896 36 1017 96 q 613 -24 775 -24 q 332 36 453 -24 q 144 203 211 96 q 76 454 76 311 l 76 1042 l 400 1042 l 400 472 m 218 1122 q 297 1307 235 1240 q 479 1374 358 1374 q 553 1364 518 1374 q 621 1342 589 1354 q 681 1321 653 1331 q 732 1311 708 1311 q 780 1325 761 1311 q 804 1365 799 1339 l 1007 1365 q 929 1182 990 1250 q 747 1114 868 1114 q 673 1124 708 1114 q 606 1146 638 1133 q 545 1168 574 1158 q 493 1178 517 1178 q 446 1164 465 1178 q 422 1122 426 1150 l 218 1122 z "},"Ṹ":{"ha":1228,"x_min":76,"x_max":1150,"o":"m 400 472 q 424 361 400 407 q 494 290 447 315 q 613 264 542 264 q 733 289 686 264 q 803 360 781 314 q 826 472 826 407 l 826 1042 l 1150 1042 l 1150 454 q 1083 203 1150 311 q 896 36 1017 96 q 613 -24 775 -24 q 332 36 453 -24 q 144 203 211 96 q 76 454 76 311 l 76 1042 l 400 1042 l 400 472 m 218 1122 q 297 1307 235 1240 q 479 1374 358 1374 q 553 1364 518 1374 q 621 1342 589 1354 q 681 1321 653 1331 q 732 1311 708 1311 q 780 1325 761 1311 q 804 1365 799 1339 l 1007 1365 q 929 1182 990 1250 q 747 1114 868 1114 q 673 1124 708 1114 q 606 1146 638 1133 q 545 1168 574 1158 q 493 1178 517 1178 q 446 1164 465 1178 q 422 1122 426 1150 l 218 1122 m 631 1658 l 989 1658 l 743 1417 l 426 1417 l 631 1658 z "},"Ṵ":{"ha":1228,"x_min":76,"x_max":1150,"o":"m 400 472 q 424 361 400 407 q 494 290 447 315 q 613 264 542 264 q 733 289 686 264 q 803 360 781 314 q 826 472 826 407 l 826 1042 l 1150 1042 l 1150 454 q 1083 203 1150 311 q 896 36 1017 96 q 613 -24 775 -24 q 332 36 453 -24 q 144 203 211 96 q 76 454 76 311 l 76 1042 l 400 1042 l 400 472 m 254 -324 q 313 -125 261 -199 q 468 -51 364 -51 q 542 -62 506 -51 q 609 -86 578 -72 q 668 -110 640 -100 q 718 -121 696 -121 q 765 -103 746 -121 q 790 -54 785 -86 l 971 -54 q 913 -253 965 -179 q 757 -326 861 -326 q 683 -315 719 -326 q 616 -291 647 -304 q 558 -267 585 -278 q 508 -257 531 -257 q 460 -274 479 -257 q 435 -324 442 -292 l 254 -324 z "},"V":{"ha":1321,"x_min":-1,"x_max":1322,"o":"m 732 147 l 597 147 l 983 1042 l 1322 1042 l 844 0 l 476 0 l -1 1042 l 344 1042 l 732 147 z "},"Ɣ":{"ha":1306,"x_min":-10,"x_max":1314,"o":"m 461 153 l 826 153 l 800 71 l 589 338 l 717 338 l 497 58 l 461 153 m 133 0 l 551 529 l 526 340 l -10 1042 l 338 1042 l 733 529 l 596 557 l 972 1042 l 1314 1042 l 779 350 l 746 538 l 1172 0 l 133 0 z "},"Ṿ":{"ha":1321,"x_min":-1,"x_max":1322,"o":"m 732 147 l 597 147 l 983 1042 l 1322 1042 l 844 0 l 476 0 l -1 1042 l 344 1042 l 732 147 m 661 -361 q 531 -321 581 -361 q 481 -212 481 -281 q 531 -103 481 -143 q 661 -62 581 -62 q 794 -103 744 -62 q 843 -212 843 -143 q 794 -321 843 -281 q 661 -361 744 -361 z "},"Ʋ":{"ha":1236,"x_min":78,"x_max":1186,"o":"m 78 460 l 78 1042 l 399 1042 l 399 475 q 420 353 399 401 q 481 282 442 306 q 576 258 521 258 q 690 290 638 258 q 780 376 742 321 q 839 503 818 432 q 860 657 860 575 q 823 778 860 732 q 713 824 786 824 q 644 817 675 824 q 583 797 613 810 l 583 1033 q 675 1056 619 1046 q 800 1065 731 1065 q 1087 965 988 1065 q 1186 658 1186 864 q 1142 402 1186 525 q 1014 183 1097 279 q 812 32 931 88 q 546 -24 693 -24 q 297 35 403 -24 q 135 202 192 93 q 78 460 78 311 z "},"Ṽ":{"ha":1321,"x_min":-1,"x_max":1322,"o":"m 732 147 l 597 147 l 983 1042 l 1322 1042 l 844 0 l 476 0 l -1 1042 l 344 1042 l 732 147 m 265 1122 q 344 1307 282 1240 q 526 1374 406 1374 q 601 1364 565 1374 q 668 1342 636 1354 q 728 1321 700 1331 q 779 1311 756 1311 q 827 1325 808 1311 q 851 1365 846 1339 l 1054 1365 q 976 1182 1038 1250 q 794 1114 915 1114 q 720 1124 756 1114 q 653 1146 685 1133 q 592 1168 621 1158 q 540 1178 564 1178 q 493 1164 513 1178 q 469 1122 474 1150 l 265 1122 z "},"Ʌ":{"ha":1297,"x_min":-1,"x_max":1299,"o":"m -1 0 l 465 1042 l 833 1042 l 1299 0 l 972 0 l 585 894 l 719 894 l 333 0 l -1 0 z "},"W":{"ha":1910,"x_min":13,"x_max":1897,"o":"m 1414 140 l 1317 139 l 1556 1042 l 1897 1042 l 1592 0 l 1176 0 l 890 868 l 1019 868 l 733 0 l 318 0 l 13 1042 l 356 1042 l 594 140 l 499 142 l 785 1042 l 1125 1042 l 1414 140 z "},"Ẃ":{"ha":1910,"x_min":13,"x_max":1897,"o":"m 1414 140 l 1317 139 l 1556 1042 l 1897 1042 l 1592 0 l 1176 0 l 890 868 l 1019 868 l 733 0 l 318 0 l 13 1042 l 356 1042 l 594 140 l 499 142 l 785 1042 l 1125 1042 l 1414 140 m 972 1358 l 1331 1358 l 1085 1117 l 768 1117 l 972 1358 z "},"Ŵ":{"ha":1910,"x_min":13,"x_max":1897,"o":"m 1414 140 l 1317 139 l 1556 1042 l 1897 1042 l 1592 0 l 1176 0 l 890 868 l 1019 868 l 733 0 l 318 0 l 13 1042 l 356 1042 l 594 140 l 499 142 l 785 1042 l 1125 1042 l 1414 140 m 789 1358 l 1121 1358 l 1333 1117 l 1078 1117 l 881 1261 l 1029 1261 l 831 1117 l 575 1117 l 789 1358 z "},"Ẅ":{"ha":1910,"x_min":13,"x_max":1897,"o":"m 1414 140 l 1317 139 l 1556 1042 l 1897 1042 l 1592 0 l 1176 0 l 890 868 l 1019 868 l 733 0 l 318 0 l 13 1042 l 356 1042 l 594 140 l 499 142 l 785 1042 l 1125 1042 l 1414 140 m 736 1110 q 614 1147 660 1110 q 568 1253 568 1185 q 614 1354 568 1317 q 736 1392 660 1392 q 858 1354 813 1392 q 904 1253 904 1317 q 858 1147 904 1185 q 736 1110 813 1110 m 1174 1110 q 1051 1147 1097 1110 q 1006 1253 1006 1185 q 1051 1354 1006 1317 q 1174 1392 1097 1392 q 1296 1354 1250 1392 q 1342 1253 1342 1317 q 1296 1147 1342 1185 q 1174 1110 1250 1110 z "},"Ẇ":{"ha":1910,"x_min":13,"x_max":1897,"o":"m 1414 140 l 1317 139 l 1556 1042 l 1897 1042 l 1592 0 l 1176 0 l 890 868 l 1019 868 l 733 0 l 318 0 l 13 1042 l 356 1042 l 594 140 l 499 142 l 785 1042 l 1125 1042 l 1414 140 m 954 1110 q 824 1149 874 1110 q 774 1258 774 1189 q 824 1368 774 1328 q 954 1408 874 1408 q 1087 1368 1038 1408 q 1136 1258 1136 1328 q 1087 1149 1136 1189 q 954 1110 1038 1110 z "},"Ẉ":{"ha":1910,"x_min":13,"x_max":1897,"o":"m 1414 140 l 1317 139 l 1556 1042 l 1897 1042 l 1592 0 l 1176 0 l 890 868 l 1019 868 l 733 0 l 318 0 l 13 1042 l 356 1042 l 594 140 l 499 142 l 785 1042 l 1125 1042 l 1414 140 m 954 -361 q 824 -321 874 -361 q 774 -212 774 -281 q 824 -103 774 -143 q 954 -62 874 -62 q 1087 -103 1038 -62 q 1136 -212 1136 -143 q 1087 -321 1136 -281 q 954 -361 1038 -361 z "},"Ẁ":{"ha":1910,"x_min":13,"x_max":1897,"o":"m 1414 140 l 1317 139 l 1556 1042 l 1897 1042 l 1592 0 l 1176 0 l 890 868 l 1019 868 l 733 0 l 318 0 l 13 1042 l 356 1042 l 594 140 l 499 142 l 785 1042 l 1125 1042 l 1414 140 m 924 1358 l 1128 1117 l 811 1117 l 565 1358 l 924 1358 z "},"Ⱳ":{"ha":1997,"x_min":13,"x_max":1950,"o":"m 1399 140 l 1301 139 l 1486 807 q 1592 1003 1522 940 q 1790 1065 1663 1065 q 1874 1059 1835 1065 q 1950 1040 1913 1053 l 1950 807 q 1920 819 1936 814 q 1882 824 1904 824 q 1833 808 1851 824 q 1806 760 1815 792 l 1578 0 l 1161 0 l 890 868 l 1018 868 l 733 0 l 317 0 l 13 1042 l 356 1042 l 594 140 l 497 142 l 785 1042 l 1125 1042 l 1399 140 z "},"X":{"ha":1244,"x_min":-17,"x_max":1263,"o":"m 743 443 l 743 640 l 1263 0 l 864 0 l 540 425 l 701 425 l 375 0 l -17 0 l 506 640 l 506 443 l 11 1042 l 415 1042 l 708 660 l 547 660 l 835 1042 l 1233 1042 l 743 443 z "},"Ẍ":{"ha":1244,"x_min":-17,"x_max":1263,"o":"m 743 443 l 743 640 l 1263 0 l 864 0 l 540 425 l 701 425 l 375 0 l -17 0 l 506 640 l 506 443 l 11 1042 l 415 1042 l 708 660 l 547 660 l 835 1042 l 1233 1042 l 743 443 m 404 1110 q 282 1147 328 1110 q 236 1253 236 1185 q 282 1354 236 1317 q 404 1392 328 1392 q 526 1354 481 1392 q 572 1253 572 1317 q 526 1147 572 1185 q 404 1110 481 1110 m 842 1110 q 719 1147 765 1110 q 674 1253 674 1185 q 719 1354 674 1317 q 842 1392 765 1392 q 964 1354 918 1392 q 1010 1253 1010 1317 q 964 1147 1010 1185 q 842 1110 918 1110 z "},"Ẋ":{"ha":1244,"x_min":-17,"x_max":1263,"o":"m 743 443 l 743 640 l 1263 0 l 864 0 l 540 425 l 701 425 l 375 0 l -17 0 l 506 640 l 506 443 l 11 1042 l 415 1042 l 708 660 l 547 660 l 835 1042 l 1233 1042 l 743 443 m 622 1110 q 492 1149 542 1110 q 442 1258 442 1189 q 492 1368 442 1328 q 622 1408 542 1408 q 755 1368 706 1408 q 804 1258 804 1328 q 755 1149 804 1189 q 622 1110 706 1110 z "},"Y":{"ha":1306,"x_min":4,"x_max":1300,"o":"m 492 0 l 492 511 l 815 511 l 815 0 l 492 0 m 4 1042 l 360 1042 l 722 578 l 583 578 l 944 1042 l 1300 1042 l 757 349 l 549 344 l 4 1042 z "},"Ý":{"ha":1306,"x_min":4,"x_max":1300,"o":"m 492 0 l 492 511 l 815 511 l 815 0 l 492 0 m 4 1042 l 360 1042 l 722 578 l 583 578 l 944 1042 l 1300 1042 l 757 349 l 549 344 l 4 1042 m 669 1358 l 1028 1358 l 782 1117 l 465 1117 l 669 1358 z "},"Ŷ":{"ha":1306,"x_min":4,"x_max":1300,"o":"m 492 0 l 492 511 l 815 511 l 815 0 l 492 0 m 4 1042 l 360 1042 l 722 578 l 583 578 l 944 1042 l 1300 1042 l 757 349 l 549 344 l 4 1042 m 486 1358 l 818 1358 l 1031 1117 l 775 1117 l 578 1261 l 726 1261 l 528 1117 l 272 1117 l 486 1358 z "},"Ÿ":{"ha":1306,"x_min":4,"x_max":1300,"o":"m 492 0 l 492 511 l 815 511 l 815 0 l 492 0 m 4 1042 l 360 1042 l 722 578 l 583 578 l 944 1042 l 1300 1042 l 757 349 l 549 344 l 4 1042 m 433 1110 q 311 1147 357 1110 q 265 1253 265 1185 q 311 1354 265 1317 q 433 1392 357 1392 q 556 1354 510 1392 q 601 1253 601 1317 q 556 1147 601 1185 q 433 1110 510 1110 m 871 1110 q 749 1147 794 1110 q 703 1253 703 1185 q 749 1354 703 1317 q 871 1392 794 1392 q 993 1354 947 1392 q 1039 1253 1039 1317 q 993 1147 1039 1185 q 871 1110 947 1110 z "},"Ẏ":{"ha":1306,"x_min":4,"x_max":1300,"o":"m 492 0 l 492 511 l 815 511 l 815 0 l 492 0 m 4 1042 l 360 1042 l 722 578 l 583 578 l 944 1042 l 1300 1042 l 757 349 l 549 344 l 4 1042 m 651 1110 q 521 1149 571 1110 q 471 1258 471 1189 q 521 1368 471 1328 q 651 1408 571 1408 q 784 1368 735 1408 q 833 1258 833 1328 q 784 1149 833 1189 q 651 1110 735 1110 z "},"Ỵ":{"ha":1306,"x_min":4,"x_max":1300,"o":"m 492 0 l 492 511 l 815 511 l 815 0 l 492 0 m 4 1042 l 360 1042 l 722 578 l 583 578 l 944 1042 l 1300 1042 l 757 349 l 549 344 l 4 1042 m 651 -361 q 521 -321 571 -361 q 471 -212 471 -281 q 521 -103 471 -143 q 651 -62 571 -62 q 784 -103 735 -62 q 833 -212 833 -143 q 784 -321 833 -281 q 651 -361 735 -361 z "},"Ỳ":{"ha":1306,"x_min":4,"x_max":1300,"o":"m 492 0 l 492 511 l 815 511 l 815 0 l 492 0 m 4 1042 l 360 1042 l 722 578 l 583 578 l 944 1042 l 1300 1042 l 757 349 l 549 344 l 4 1042 m 621 1358 l 825 1117 l 508 1117 l 263 1358 l 621 1358 z "},"Ƴ":{"ha":1310,"x_min":1,"x_max":1276,"o":"m 489 0 l 489 511 l 811 511 l 811 0 l 489 0 m 751 344 l 544 344 l 1 1042 l 357 1042 l 718 578 l 589 578 l 836 908 q 919 999 879 965 q 1006 1049 958 1033 q 1117 1065 1053 1065 q 1200 1059 1161 1065 q 1276 1040 1239 1053 l 1276 807 q 1231 817 1253 814 q 1185 821 1210 821 q 1114 803 1140 821 q 1061 750 1088 785 l 751 344 z "},"Ỷ":{"ha":1306,"x_min":4,"x_max":1300,"o":"m 492 0 l 492 511 l 815 511 l 815 0 l 492 0 m 4 1042 l 360 1042 l 722 578 l 583 578 l 944 1042 l 1300 1042 l 757 349 l 549 344 l 4 1042 m 585 1097 l 529 1190 q 621 1216 594 1201 q 647 1246 647 1231 q 628 1269 647 1261 q 568 1276 608 1276 q 510 1273 536 1276 q 453 1264 483 1269 l 453 1418 q 536 1436 482 1428 q 646 1444 590 1444 q 844 1409 776 1444 q 913 1293 913 1374 q 838 1173 913 1221 q 585 1097 763 1125 z "},"Ȳ":{"ha":1306,"x_min":4,"x_max":1300,"o":"m 492 0 l 492 511 l 815 511 l 815 0 l 492 0 m 4 1042 l 360 1042 l 722 578 l 583 578 l 944 1042 l 1300 1042 l 757 349 l 549 344 l 4 1042 m 300 1142 l 300 1328 l 1003 1328 l 1003 1142 l 300 1142 z "},"Ɏ":{"ha":1367,"x_min":22,"x_max":1344,"o":"m 22 961 l 1344 961 l 1344 744 l 22 744 l 22 961 m 522 0 l 522 511 l 846 511 l 846 0 l 522 0 m 35 1042 l 390 1042 l 753 578 l 614 578 l 975 1042 l 1331 1042 l 788 349 l 579 344 l 35 1042 z "},"Ỹ":{"ha":1306,"x_min":4,"x_max":1300,"o":"m 492 0 l 492 511 l 815 511 l 815 0 l 492 0 m 4 1042 l 360 1042 l 722 578 l 583 578 l 944 1042 l 1300 1042 l 757 349 l 549 344 l 4 1042 m 257 1122 q 335 1307 274 1240 q 518 1374 397 1374 q 592 1364 557 1374 q 660 1342 628 1354 q 719 1321 692 1331 q 771 1311 747 1311 q 819 1325 800 1311 q 843 1365 838 1339 l 1046 1365 q 968 1182 1029 1250 q 786 1114 907 1114 q 712 1124 747 1114 q 644 1146 676 1133 q 584 1168 613 1158 q 532 1178 556 1178 q 485 1164 504 1178 q 461 1122 465 1150 l 257 1122 z "},"Z":{"ha":1138,"x_min":58,"x_max":1078,"o":"m 58 0 l 58 232 l 711 854 l 951 792 l 64 792 l 64 1043 l 1074 1043 l 1074 811 l 422 188 l 218 250 l 1078 250 l 1078 0 l 58 0 z "},"Ź":{"ha":1138,"x_min":58,"x_max":1078,"o":"m 58 0 l 58 232 l 711 854 l 951 792 l 64 792 l 64 1043 l 1074 1043 l 1074 811 l 422 188 l 218 250 l 1078 250 l 1078 0 l 58 0 m 586 1358 l 944 1358 l 699 1117 l 382 1117 l 586 1358 z "},"Ž":{"ha":1138,"x_min":58,"x_max":1078,"o":"m 58 0 l 58 232 l 711 854 l 951 792 l 64 792 l 64 1043 l 1074 1043 l 1074 811 l 422 188 l 218 250 l 1078 250 l 1078 0 l 58 0 m 735 1115 l 403 1115 l 190 1357 l 444 1357 l 643 1213 l 494 1213 l 693 1357 l 947 1357 l 735 1115 z "},"Ẑ":{"ha":1138,"x_min":58,"x_max":1078,"o":"m 58 0 l 58 232 l 711 854 l 951 792 l 64 792 l 64 1043 l 1074 1043 l 1074 811 l 422 188 l 218 250 l 1078 250 l 1078 0 l 58 0 m 403 1358 l 735 1358 l 947 1117 l 692 1117 l 494 1261 l 643 1261 l 444 1117 l 189 1117 l 403 1358 z "},"Ż":{"ha":1138,"x_min":58,"x_max":1078,"o":"m 58 0 l 58 232 l 711 854 l 951 792 l 64 792 l 64 1043 l 1074 1043 l 1074 811 l 422 188 l 218 250 l 1078 250 l 1078 0 l 58 0 m 568 1110 q 438 1149 488 1110 q 388 1258 388 1189 q 438 1368 388 1328 q 568 1408 488 1408 q 701 1368 651 1408 q 750 1258 750 1328 q 701 1149 750 1189 q 568 1110 651 1110 z "},"Ẓ":{"ha":1138,"x_min":58,"x_max":1078,"o":"m 58 0 l 58 232 l 711 854 l 951 792 l 64 792 l 64 1043 l 1074 1043 l 1074 811 l 422 188 l 218 250 l 1078 250 l 1078 0 l 58 0 m 568 -361 q 438 -321 488 -361 q 388 -212 388 -281 q 438 -103 388 -143 q 568 -62 488 -62 q 701 -103 651 -62 q 750 -212 750 -143 q 701 -321 750 -281 q 568 -361 651 -361 z "},"Ẕ":{"ha":1138,"x_min":58,"x_max":1078,"o":"m 58 0 l 58 232 l 711 854 l 951 792 l 64 792 l 64 1043 l 1074 1043 l 1074 811 l 422 188 l 218 250 l 1078 250 l 1078 0 l 58 0 m 239 -276 l 239 -89 l 940 -89 l 940 -276 l 239 -276 z "},"Ƶ":{"ha":1144,"x_min":63,"x_max":1082,"o":"m 129 636 l 1019 636 l 1019 419 l 129 419 l 129 636 m 63 0 l 63 232 l 715 854 l 954 792 l 67 792 l 67 1043 l 1078 1043 l 1078 811 l 425 188 l 221 250 l 1082 250 l 1082 0 l 63 0 z "},"Ꞌ":{"ha":451,"x_min":61,"x_max":390,"o":"m 61 1042 l 390 1042 l 339 361 l 113 361 l 61 1042 z "},"ɪ":{"ha":883,"x_min":49,"x_max":835,"o":"m 282 0 l 282 757 l 601 757 l 601 0 l 282 0 m 49 0 l 49 186 l 835 186 l 835 0 l 49 0 m 49 611 l 49 796 l 835 796 l 835 611 l 49 611 z "},"a":{"ha":1165,"x_min":42,"x_max":1113,"o":"m 782 0 l 744 283 l 783 397 l 744 510 l 782 796 l 1113 796 l 1060 399 l 1113 0 l 782 0 m 853 397 q 780 176 836 271 q 635 28 724 81 q 433 -24 547 -24 q 229 29 318 -24 q 91 177 140 82 q 42 397 42 272 q 91 620 42 525 q 229 767 140 715 q 433 819 318 819 q 635 768 547 819 q 781 622 724 717 q 853 397 838 526 m 363 397 q 384 304 363 344 q 444 240 406 264 q 533 217 483 217 q 632 240 585 217 q 715 304 679 264 q 768 397 751 344 q 715 491 751 450 q 632 556 679 532 q 533 579 585 579 q 444 556 483 579 q 384 491 406 532 q 363 397 363 450 z "},"á":{"ha":1165,"x_min":42,"x_max":1113,"o":"m 782 0 l 744 283 l 783 397 l 744 510 l 782 796 l 1113 796 l 1060 399 l 1113 0 l 782 0 m 853 397 q 780 176 836 271 q 635 28 724 81 q 433 -24 547 -24 q 229 29 318 -24 q 91 177 140 82 q 42 397 42 272 q 91 620 42 525 q 229 767 140 715 q 433 819 318 819 q 635 768 547 819 q 781 622 724 717 q 853 397 838 526 m 363 397 q 384 304 363 344 q 444 240 406 264 q 533 217 483 217 q 632 240 585 217 q 715 304 679 264 q 768 397 751 344 q 715 491 751 450 q 632 556 679 532 q 533 579 585 579 q 444 556 483 579 q 384 491 406 532 q 363 397 363 450 m 586 1140 l 894 1140 l 703 871 l 411 871 l 586 1140 z "},"ă":{"ha":1165,"x_min":42,"x_max":1113,"o":"m 782 0 l 744 283 l 783 397 l 744 510 l 782 796 l 1113 796 l 1060 399 l 1113 0 l 782 0 m 853 397 q 780 176 836 271 q 635 28 724 81 q 433 -24 547 -24 q 229 29 318 -24 q 91 177 140 82 q 42 397 42 272 q 91 620 42 525 q 229 767 140 715 q 433 819 318 819 q 635 768 547 819 q 781 622 724 717 q 853 397 838 526 m 363 397 q 384 304 363 344 q 444 240 406 264 q 533 217 483 217 q 632 240 585 217 q 715 304 679 264 q 768 397 751 344 q 715 491 751 450 q 632 556 679 532 q 533 579 585 579 q 444 556 483 579 q 384 491 406 532 q 363 397 363 450 m 231 1140 l 463 1140 q 504 1073 472 1097 q 583 1049 536 1049 q 663 1073 632 1049 q 706 1140 694 1097 l 936 1140 q 825 934 915 1010 q 583 858 735 858 q 343 934 433 858 q 231 1140 253 1010 z "},"ắ":{"ha":1165,"x_min":42,"x_max":1113,"o":"m 782 0 l 744 283 l 783 397 l 744 510 l 782 796 l 1113 796 l 1060 399 l 1113 0 l 782 0 m 853 397 q 780 176 836 271 q 635 28 724 81 q 433 -24 547 -24 q 229 29 318 -24 q 91 177 140 82 q 42 397 42 272 q 91 620 42 525 q 229 767 140 715 q 433 819 318 819 q 635 768 547 819 q 781 622 724 717 q 853 397 838 526 m 363 397 q 384 304 363 344 q 444 240 406 264 q 533 217 483 217 q 632 240 585 217 q 715 304 679 264 q 768 397 751 344 q 715 491 751 450 q 632 556 679 532 q 533 579 585 579 q 444 556 483 579 q 384 491 406 532 q 363 397 363 450 m 560 1446 l 843 1446 l 692 1175 l 463 1175 l 560 1446 m 231 1140 l 463 1140 q 504 1073 472 1097 q 583 1049 536 1049 q 663 1073 632 1049 q 706 1140 694 1097 l 936 1140 q 825 934 915 1010 q 583 858 735 858 q 343 934 433 858 q 231 1140 253 1010 z "},"ặ":{"ha":1165,"x_min":42,"x_max":1113,"o":"m 782 0 l 744 283 l 783 397 l 744 510 l 782 796 l 1113 796 l 1060 399 l 1113 0 l 782 0 m 853 397 q 780 176 836 271 q 635 28 724 81 q 433 -24 547 -24 q 229 29 318 -24 q 91 177 140 82 q 42 397 42 272 q 91 620 42 525 q 229 767 140 715 q 433 819 318 819 q 635 768 547 819 q 781 622 724 717 q 853 397 838 526 m 363 397 q 384 304 363 344 q 444 240 406 264 q 533 217 483 217 q 632 240 585 217 q 715 304 679 264 q 768 397 751 344 q 715 491 751 450 q 632 556 679 532 q 533 579 585 579 q 444 556 483 579 q 384 491 406 532 q 363 397 363 450 m 583 -361 q 453 -321 503 -361 q 403 -212 403 -281 q 453 -103 403 -143 q 583 -62 503 -62 q 716 -103 667 -62 q 765 -212 765 -143 q 716 -321 765 -281 q 583 -361 667 -361 m 231 1140 l 463 1140 q 504 1073 472 1097 q 583 1049 536 1049 q 663 1073 632 1049 q 706 1140 694 1097 l 936 1140 q 825 934 915 1010 q 583 858 735 858 q 343 934 433 858 q 231 1140 253 1010 z "},"ằ":{"ha":1165,"x_min":42,"x_max":1113,"o":"m 782 0 l 744 283 l 783 397 l 744 510 l 782 796 l 1113 796 l 1060 399 l 1113 0 l 782 0 m 853 397 q 780 176 836 271 q 635 28 724 81 q 433 -24 547 -24 q 229 29 318 -24 q 91 177 140 82 q 42 397 42 272 q 91 620 42 525 q 229 767 140 715 q 433 819 318 819 q 635 768 547 819 q 781 622 724 717 q 853 397 838 526 m 363 397 q 384 304 363 344 q 444 240 406 264 q 533 217 483 217 q 632 240 585 217 q 715 304 679 264 q 768 397 751 344 q 715 491 751 450 q 632 556 679 532 q 533 579 585 579 q 444 556 483 579 q 384 491 406 532 q 363 397 363 450 m 601 1444 l 699 1175 l 468 1175 l 317 1444 l 601 1444 m 231 1140 l 463 1140 q 504 1073 472 1097 q 583 1049 536 1049 q 663 1073 632 1049 q 706 1140 694 1097 l 936 1140 q 825 934 915 1010 q 583 858 735 858 q 343 934 433 858 q 231 1140 253 1010 z "},"ẳ":{"ha":1165,"x_min":42,"x_max":1113,"o":"m 782 0 l 744 283 l 783 397 l 744 510 l 782 796 l 1113 796 l 1060 399 l 1113 0 l 782 0 m 853 397 q 780 176 836 271 q 635 28 724 81 q 433 -24 547 -24 q 229 29 318 -24 q 91 177 140 82 q 42 397 42 272 q 91 620 42 525 q 229 767 140 715 q 433 819 318 819 q 635 768 547 819 q 781 622 724 717 q 853 397 838 526 m 363 397 q 384 304 363 344 q 444 240 406 264 q 533 217 483 217 q 632 240 585 217 q 715 304 679 264 q 768 397 751 344 q 715 491 751 450 q 632 556 679 532 q 533 579 585 579 q 444 556 483 579 q 384 491 406 532 q 363 397 363 450 m 571 1156 l 517 1229 q 590 1292 590 1257 q 517 1329 590 1329 q 476 1327 499 1329 q 431 1319 453 1325 l 431 1478 q 503 1492 458 1486 q 601 1499 549 1499 q 779 1461 715 1499 q 843 1356 843 1424 q 774 1235 843 1286 q 571 1156 706 1185 m 231 1140 l 463 1140 q 504 1073 472 1097 q 583 1049 536 1049 q 663 1073 632 1049 q 706 1140 694 1097 l 936 1140 q 825 934 915 1010 q 583 858 735 858 q 343 934 433 858 q 231 1140 253 1010 z "},"ẵ":{"ha":1165,"x_min":42,"x_max":1113,"o":"m 782 0 l 744 283 l 783 397 l 744 510 l 782 796 l 1113 796 l 1060 399 l 1113 0 l 782 0 m 853 397 q 780 176 836 271 q 635 28 724 81 q 433 -24 547 -24 q 229 29 318 -24 q 91 177 140 82 q 42 397 42 272 q 91 620 42 525 q 229 767 140 715 q 433 819 318 819 q 635 768 547 819 q 781 622 724 717 q 853 397 838 526 m 363 397 q 384 304 363 344 q 444 240 406 264 q 533 217 483 217 q 632 240 585 217 q 715 304 679 264 q 768 397 751 344 q 715 491 751 450 q 632 556 679 532 q 533 579 585 579 q 444 556 483 579 q 384 491 406 532 q 363 397 363 450 m 254 1194 q 313 1392 261 1319 q 472 1464 365 1464 q 535 1453 507 1464 q 586 1430 563 1443 q 631 1406 610 1417 q 671 1394 651 1394 q 713 1413 699 1394 q 733 1461 728 1431 l 913 1461 q 855 1265 907 1338 q 694 1192 803 1192 q 632 1203 660 1192 q 581 1227 604 1214 q 536 1251 557 1240 q 496 1261 515 1261 q 453 1244 468 1261 q 433 1194 439 1226 l 254 1194 m 231 1140 l 463 1140 q 504 1073 472 1097 q 583 1049 536 1049 q 663 1073 632 1049 q 706 1140 694 1097 l 936 1140 q 825 934 915 1010 q 583 858 735 858 q 343 934 433 858 q 231 1140 253 1010 z "},"ǎ":{"ha":1165,"x_min":42,"x_max":1113,"o":"m 782 0 l 744 283 l 783 397 l 744 510 l 782 796 l 1113 796 l 1060 399 l 1113 0 l 782 0 m 853 397 q 780 176 836 271 q 635 28 724 81 q 433 -24 547 -24 q 229 29 318 -24 q 91 177 140 82 q 42 397 42 272 q 91 620 42 525 q 229 767 140 715 q 433 819 318 819 q 635 768 547 819 q 781 622 724 717 q 853 397 838 526 m 363 397 q 384 304 363 344 q 444 240 406 264 q 533 217 483 217 q 632 240 585 217 q 715 304 679 264 q 768 397 751 344 q 715 491 751 450 q 632 556 679 532 q 533 579 585 579 q 444 556 483 579 q 384 491 406 532 q 363 397 363 450 m 746 871 l 422 871 l 224 1140 l 471 1140 l 658 944 l 510 944 l 696 1140 l 944 1140 l 746 871 z "},"â":{"ha":1165,"x_min":42,"x_max":1113,"o":"m 782 0 l 744 283 l 783 397 l 744 510 l 782 796 l 1113 796 l 1060 399 l 1113 0 l 782 0 m 853 397 q 780 176 836 271 q 635 28 724 81 q 433 -24 547 -24 q 229 29 318 -24 q 91 177 140 82 q 42 397 42 272 q 91 620 42 525 q 229 767 140 715 q 433 819 318 819 q 635 768 547 819 q 781 622 724 717 q 853 397 838 526 m 363 397 q 384 304 363 344 q 444 240 406 264 q 533 217 483 217 q 632 240 585 217 q 715 304 679 264 q 768 397 751 344 q 715 491 751 450 q 632 556 679 532 q 533 579 585 579 q 444 556 483 579 q 384 491 406 532 q 363 397 363 450 m 422 1140 l 746 1140 l 944 871 l 697 871 l 510 1067 l 658 1067 l 472 871 l 224 871 l 422 1140 z "},"ấ":{"ha":1165,"x_min":42,"x_max":1233,"o":"m 782 0 l 744 283 l 783 397 l 744 510 l 782 796 l 1113 796 l 1060 399 l 1113 0 l 782 0 m 853 397 q 780 176 836 271 q 635 28 724 81 q 433 -24 547 -24 q 229 29 318 -24 q 91 177 140 82 q 42 397 42 272 q 91 620 42 525 q 229 767 140 715 q 433 819 318 819 q 635 768 547 819 q 781 622 724 717 q 853 397 838 526 m 363 397 q 384 304 363 344 q 444 240 406 264 q 533 217 483 217 q 632 240 585 217 q 715 304 679 264 q 768 397 751 344 q 715 491 751 450 q 632 556 679 532 q 533 579 585 579 q 444 556 483 579 q 384 491 406 532 q 363 397 363 450 m 950 1329 l 1233 1329 l 1082 1058 l 853 1058 l 950 1329 m 422 1140 l 746 1140 l 944 871 l 696 871 l 510 1067 l 658 1067 l 471 871 l 224 871 l 422 1140 z "},"ậ":{"ha":1165,"x_min":42,"x_max":1113,"o":"m 782 0 l 744 283 l 783 397 l 744 510 l 782 796 l 1113 796 l 1060 399 l 1113 0 l 782 0 m 853 397 q 780 176 836 271 q 635 28 724 81 q 433 -24 547 -24 q 229 29 318 -24 q 91 177 140 82 q 42 397 42 272 q 91 620 42 525 q 229 767 140 715 q 433 819 318 819 q 635 768 547 819 q 781 622 724 717 q 853 397 838 526 m 363 397 q 384 304 363 344 q 444 240 406 264 q 533 217 483 217 q 632 240 585 217 q 715 304 679 264 q 768 397 751 344 q 715 491 751 450 q 632 556 679 532 q 533 579 585 579 q 444 556 483 579 q 384 491 406 532 q 363 397 363 450 m 583 -361 q 453 -321 503 -361 q 403 -212 403 -281 q 453 -103 403 -143 q 583 -62 503 -62 q 716 -103 667 -62 q 765 -212 765 -143 q 716 -321 765 -281 q 583 -361 667 -361 m 422 1140 l 746 1140 l 944 871 l 697 871 l 510 1067 l 658 1067 l 472 871 l 224 871 l 422 1140 z "},"ầ":{"ha":1165,"x_min":42,"x_max":1113,"o":"m 782 0 l 744 283 l 783 397 l 744 510 l 782 796 l 1113 796 l 1060 399 l 1113 0 l 782 0 m 853 397 q 780 176 836 271 q 635 28 724 81 q 433 -24 547 -24 q 229 29 318 -24 q 91 177 140 82 q 42 397 42 272 q 91 620 42 525 q 229 767 140 715 q 433 819 318 819 q 635 768 547 819 q 781 622 724 717 q 853 397 838 526 m 363 397 q 384 304 363 344 q 444 240 406 264 q 533 217 483 217 q 632 240 585 217 q 715 304 679 264 q 768 397 751 344 q 715 491 751 450 q 632 556 679 532 q 533 579 585 579 q 444 556 483 579 q 384 491 406 532 q 363 397 363 450 m 1013 1329 l 1110 1058 l 879 1058 l 728 1329 l 1013 1329 m 422 1140 l 746 1140 l 944 871 l 696 871 l 510 1067 l 658 1067 l 471 871 l 224 871 l 422 1140 z "},"ẩ":{"ha":1165,"x_min":42,"x_max":1164,"o":"m 782 0 l 744 283 l 783 397 l 744 510 l 782 796 l 1113 796 l 1060 399 l 1113 0 l 782 0 m 853 397 q 780 176 836 271 q 635 28 724 81 q 433 -24 547 -24 q 229 29 318 -24 q 91 177 140 82 q 42 397 42 272 q 91 620 42 525 q 229 767 140 715 q 433 819 318 819 q 635 768 547 819 q 781 622 724 717 q 853 397 838 526 m 363 397 q 384 304 363 344 q 444 240 406 264 q 533 217 483 217 q 632 240 585 217 q 715 304 679 264 q 768 397 751 344 q 715 491 751 450 q 632 556 679 532 q 533 579 585 579 q 444 556 483 579 q 384 491 406 532 q 363 397 363 450 m 892 1050 l 838 1125 q 910 1186 910 1153 q 836 1225 910 1225 q 796 1222 818 1225 q 750 1214 774 1219 l 750 1372 q 824 1388 779 1381 q 922 1394 869 1394 q 1100 1356 1036 1394 q 1164 1250 1164 1318 q 1095 1131 1164 1182 q 892 1050 1026 1079 m 422 1140 l 746 1140 l 944 871 l 696 871 l 510 1067 l 658 1067 l 471 871 l 224 871 l 422 1140 z "},"ẫ":{"ha":1165,"x_min":42,"x_max":1113,"o":"m 782 0 l 744 283 l 783 397 l 744 510 l 782 796 l 1113 796 l 1060 399 l 1113 0 l 782 0 m 853 397 q 780 176 836 271 q 635 28 724 81 q 433 -24 547 -24 q 229 29 318 -24 q 91 177 140 82 q 42 397 42 272 q 91 620 42 525 q 229 767 140 715 q 433 819 318 819 q 635 768 547 819 q 781 622 724 717 q 853 397 838 526 m 363 397 q 384 304 363 344 q 444 240 406 264 q 533 217 483 217 q 632 240 585 217 q 715 304 679 264 q 768 397 751 344 q 715 491 751 450 q 632 556 679 532 q 533 579 585 579 q 444 556 483 579 q 384 491 406 532 q 363 397 363 450 m 256 1194 q 314 1392 263 1319 q 474 1464 365 1464 q 535 1454 507 1464 q 586 1431 563 1444 q 631 1406 610 1417 q 671 1396 651 1396 q 714 1413 699 1396 q 735 1461 729 1431 l 913 1461 q 855 1265 907 1338 q 694 1192 803 1192 q 633 1203 660 1192 q 582 1228 606 1214 q 538 1251 558 1242 q 496 1261 517 1261 q 454 1244 469 1261 q 433 1194 439 1226 l 256 1194 m 422 1140 l 746 1140 l 944 871 l 697 871 l 510 1067 l 658 1067 l 472 871 l 224 871 l 422 1140 z "},"ȁ":{"ha":1165,"x_min":42,"x_max":1113,"o":"m 782 0 l 744 283 l 783 397 l 744 510 l 782 796 l 1113 796 l 1060 399 l 1113 0 l 782 0 m 853 397 q 780 176 836 271 q 635 28 724 81 q 433 -24 547 -24 q 229 29 318 -24 q 91 177 140 82 q 42 397 42 272 q 91 620 42 525 q 229 767 140 715 q 433 819 318 819 q 635 768 547 819 q 781 622 724 717 q 853 397 838 526 m 363 397 q 384 304 363 344 q 444 240 406 264 q 533 217 483 217 q 632 240 585 217 q 715 304 679 264 q 768 397 751 344 q 715 491 751 450 q 632 556 679 532 q 533 579 585 579 q 444 556 483 579 q 384 491 406 532 q 363 397 363 450 m 742 1140 l 899 871 l 638 871 l 464 1140 l 742 1140 m 371 1140 l 529 871 l 267 871 l 94 1140 l 371 1140 z "},"ä":{"ha":1165,"x_min":42,"x_max":1113,"o":"m 782 0 l 744 283 l 783 397 l 744 510 l 782 796 l 1113 796 l 1060 399 l 1113 0 l 782 0 m 853 397 q 780 176 836 271 q 635 28 724 81 q 433 -24 547 -24 q 229 29 318 -24 q 91 177 140 82 q 42 397 42 272 q 91 620 42 525 q 229 767 140 715 q 433 819 318 819 q 635 768 547 819 q 781 622 724 717 q 853 397 838 526 m 363 397 q 384 304 363 344 q 444 240 406 264 q 533 217 483 217 q 632 240 585 217 q 715 304 679 264 q 768 397 751 344 q 715 491 751 450 q 632 556 679 532 q 533 579 585 579 q 444 556 483 579 q 384 491 406 532 q 363 397 363 450 m 369 864 q 247 901 292 864 q 201 1007 201 939 q 247 1108 201 1071 q 369 1146 292 1146 q 492 1108 446 1146 q 538 1007 538 1071 q 492 901 538 939 q 369 864 446 864 m 799 864 q 676 901 722 864 q 631 1007 631 939 q 676 1108 631 1071 q 799 1146 722 1146 q 921 1108 875 1146 q 967 1007 967 1071 q 921 901 967 939 q 799 864 875 864 z "},"ǟ":{"ha":1165,"x_min":42,"x_max":1113,"o":"m 782 0 l 744 283 l 783 397 l 744 510 l 782 796 l 1113 796 l 1060 399 l 1113 0 l 782 0 m 853 397 q 780 176 836 271 q 635 28 724 81 q 433 -24 547 -24 q 229 29 318 -24 q 91 177 140 82 q 42 397 42 272 q 91 620 42 525 q 229 767 140 715 q 433 819 318 819 q 635 768 547 819 q 781 622 724 717 q 853 397 838 526 m 363 397 q 384 304 363 344 q 444 240 406 264 q 533 217 483 217 q 632 240 585 217 q 715 304 679 264 q 768 397 751 344 q 715 491 751 450 q 632 556 679 532 q 533 579 585 579 q 444 556 483 579 q 384 491 406 532 q 363 397 363 450 m 369 864 q 247 901 292 864 q 201 1007 201 939 q 247 1108 201 1071 q 369 1146 292 1146 q 492 1108 446 1146 q 538 1007 538 1071 q 492 901 538 939 q 369 864 446 864 m 799 864 q 676 901 722 864 q 631 1007 631 939 q 676 1108 631 1071 q 799 1146 722 1146 q 921 1108 875 1146 q 967 1007 967 1071 q 921 901 967 939 q 799 864 875 864 m 232 1204 l 232 1392 l 933 1392 l 933 1204 l 232 1204 z "},"ȧ":{"ha":1165,"x_min":42,"x_max":1113,"o":"m 782 0 l 744 283 l 783 397 l 744 510 l 782 796 l 1113 796 l 1060 399 l 1113 0 l 782 0 m 853 397 q 780 176 836 271 q 635 28 724 81 q 433 -24 547 -24 q 229 29 318 -24 q 91 177 140 82 q 42 397 42 272 q 91 620 42 525 q 229 767 140 715 q 433 819 318 819 q 635 768 547 819 q 781 622 724 717 q 853 397 838 526 m 363 397 q 384 304 363 344 q 444 240 406 264 q 533 217 483 217 q 632 240 585 217 q 715 304 679 264 q 768 397 751 344 q 715 491 751 450 q 632 556 679 532 q 533 579 585 579 q 444 556 483 579 q 384 491 406 532 q 363 397 363 450 m 583 864 q 453 904 503 864 q 403 1013 403 944 q 453 1122 403 1082 q 583 1163 503 1163 q 716 1122 667 1163 q 765 1013 765 1082 q 716 904 765 944 q 583 864 667 864 z "},"ạ":{"ha":1165,"x_min":42,"x_max":1113,"o":"m 782 0 l 744 283 l 783 397 l 744 510 l 782 796 l 1113 796 l 1060 399 l 1113 0 l 782 0 m 853 397 q 780 176 836 271 q 635 28 724 81 q 433 -24 547 -24 q 229 29 318 -24 q 91 177 140 82 q 42 397 42 272 q 91 620 42 525 q 229 767 140 715 q 433 819 318 819 q 635 768 547 819 q 781 622 724 717 q 853 397 838 526 m 363 397 q 384 304 363 344 q 444 240 406 264 q 533 217 483 217 q 632 240 585 217 q 715 304 679 264 q 768 397 751 344 q 715 491 751 450 q 632 556 679 532 q 533 579 585 579 q 444 556 483 579 q 384 491 406 532 q 363 397 363 450 m 583 -361 q 453 -321 503 -361 q 403 -212 403 -281 q 453 -103 403 -143 q 583 -62 503 -62 q 716 -103 667 -62 q 765 -212 765 -143 q 716 -321 765 -281 q 583 -361 667 -361 z "},"ǡ":{"ha":1165,"x_min":42,"x_max":1113,"o":"m 782 0 l 744 283 l 783 397 l 744 510 l 782 796 l 1113 796 l 1060 399 l 1113 0 l 782 0 m 853 397 q 780 176 836 271 q 635 28 724 81 q 433 -24 547 -24 q 229 29 318 -24 q 91 177 140 82 q 42 397 42 272 q 91 620 42 525 q 229 767 140 715 q 433 819 318 819 q 635 768 547 819 q 781 622 724 717 q 853 397 838 526 m 363 397 q 384 304 363 344 q 444 240 406 264 q 533 217 483 217 q 632 240 585 217 q 715 304 679 264 q 768 397 751 344 q 715 491 751 450 q 632 556 679 532 q 533 579 585 579 q 444 556 483 579 q 384 491 406 532 q 363 397 363 450 m 583 864 q 453 904 503 864 q 403 1013 403 944 q 453 1122 403 1082 q 583 1163 503 1163 q 716 1122 667 1163 q 765 1013 765 1082 q 716 904 765 944 q 583 864 667 864 m 233 1204 l 233 1392 l 935 1392 l 935 1204 l 233 1204 z "},"à":{"ha":1165,"x_min":42,"x_max":1113,"o":"m 782 0 l 744 283 l 783 397 l 744 510 l 782 796 l 1113 796 l 1060 399 l 1113 0 l 782 0 m 853 397 q 780 176 836 271 q 635 28 724 81 q 433 -24 547 -24 q 229 29 318 -24 q 91 177 140 82 q 42 397 42 272 q 91 620 42 525 q 229 767 140 715 q 433 819 318 819 q 635 768 547 819 q 781 622 724 717 q 853 397 838 526 m 363 397 q 384 304 363 344 q 444 240 406 264 q 533 217 483 217 q 632 240 585 217 q 715 304 679 264 q 768 397 751 344 q 715 491 751 450 q 632 556 679 532 q 533 579 585 579 q 444 556 483 579 q 384 491 406 532 q 363 397 363 450 m 558 1140 l 735 871 l 443 871 l 251 1140 l 558 1140 z "},"ả":{"ha":1165,"x_min":42,"x_max":1113,"o":"m 782 0 l 744 283 l 783 397 l 744 510 l 782 796 l 1113 796 l 1060 399 l 1113 0 l 782 0 m 853 397 q 780 176 836 271 q 635 28 724 81 q 433 -24 547 -24 q 229 29 318 -24 q 91 177 140 82 q 42 397 42 272 q 91 620 42 525 q 229 767 140 715 q 433 819 318 819 q 635 768 547 819 q 781 622 724 717 q 853 397 838 526 m 363 397 q 384 304 363 344 q 444 240 406 264 q 533 217 483 217 q 632 240 585 217 q 715 304 679 264 q 768 397 751 344 q 715 491 751 450 q 632 556 679 532 q 533 579 585 579 q 444 556 483 579 q 384 491 406 532 q 363 397 363 450 m 529 851 l 474 932 q 532 963 511 947 q 553 997 553 978 q 533 1025 553 1015 q 475 1035 513 1035 q 428 1032 450 1035 q 385 1025 406 1029 l 385 1192 q 460 1206 414 1199 q 558 1214 506 1214 q 740 1174 675 1214 q 804 1061 804 1133 q 741 938 804 990 q 529 851 678 885 z "},"ȃ":{"ha":1165,"x_min":42,"x_max":1113,"o":"m 782 0 l 744 283 l 783 397 l 744 510 l 782 796 l 1113 796 l 1060 399 l 1113 0 l 782 0 m 853 397 q 780 176 836 271 q 635 28 724 81 q 433 -24 547 -24 q 229 29 318 -24 q 91 177 140 82 q 42 397 42 272 q 91 620 42 525 q 229 767 140 715 q 433 819 318 819 q 635 768 547 819 q 781 622 724 717 q 853 397 838 526 m 363 397 q 384 304 363 344 q 444 240 406 264 q 533 217 483 217 q 632 240 585 217 q 715 304 679 264 q 768 397 751 344 q 715 491 751 450 q 632 556 679 532 q 533 579 585 579 q 444 556 483 579 q 384 491 406 532 q 363 397 363 450 m 936 871 l 706 871 q 663 939 694 915 q 583 963 632 963 q 504 939 536 963 q 463 871 472 915 l 231 871 q 343 1078 253 1003 q 583 1153 433 1153 q 825 1078 735 1153 q 936 871 915 1003 z "},"ɑ":{"ha":1165,"x_min":42,"x_max":1113,"o":"m 782 0 l 744 283 l 783 397 l 744 510 l 782 796 l 1113 796 l 1060 399 l 1113 0 l 782 0 m 853 397 q 780 176 836 271 q 635 28 724 81 q 433 -24 547 -24 q 229 29 318 -24 q 91 177 140 82 q 42 397 42 272 q 91 620 42 525 q 229 767 140 715 q 433 819 318 819 q 635 768 547 819 q 781 622 724 717 q 853 397 838 526 m 363 397 q 384 304 363 344 q 444 240 406 264 q 533 217 483 217 q 632 240 585 217 q 715 304 679 264 q 768 397 751 344 q 715 491 751 450 q 632 556 679 532 q 533 579 585 579 q 444 556 483 579 q 384 491 406 532 q 363 397 363 450 z "},"ɒ":{"ha":1165,"x_min":53,"x_max":1124,"o":"m 383 0 l 53 0 l 106 399 l 53 796 l 383 796 l 421 510 l 382 397 l 421 283 l 383 0 m 313 397 q 385 622 329 526 q 531 768 442 717 q 732 819 619 819 q 937 767 849 819 q 1074 620 1025 715 q 1124 397 1124 525 q 1074 177 1124 272 q 937 29 1025 82 q 732 -24 849 -24 q 530 28 618 -24 q 386 176 442 81 q 313 397 331 271 m 803 397 q 781 491 803 450 q 721 556 760 532 q 632 579 682 579 q 533 556 581 579 q 451 491 486 532 q 397 397 415 450 q 451 304 415 344 q 533 240 486 264 q 632 217 581 217 q 721 240 682 217 q 781 304 760 264 q 803 397 803 344 z "},"ā":{"ha":1165,"x_min":42,"x_max":1113,"o":"m 782 0 l 744 283 l 783 397 l 744 510 l 782 796 l 1113 796 l 1060 399 l 1113 0 l 782 0 m 853 397 q 780 176 836 271 q 635 28 724 81 q 433 -24 547 -24 q 229 29 318 -24 q 91 177 140 82 q 42 397 42 272 q 91 620 42 525 q 229 767 140 715 q 433 819 318 819 q 635 768 547 819 q 781 622 724 717 q 853 397 838 526 m 363 397 q 384 304 363 344 q 444 240 406 264 q 533 217 483 217 q 632 240 585 217 q 715 304 679 264 q 768 397 751 344 q 715 491 751 450 q 632 556 679 532 q 533 579 585 579 q 444 556 483 579 q 384 491 406 532 q 363 397 363 450 m 233 899 l 233 1086 l 935 1086 l 935 899 l 233 899 z "},"ą":{"ha":1165,"x_min":42,"x_max":1113,"o":"m 782 0 l 744 283 l 783 397 l 744 510 l 782 796 l 1113 796 l 1060 399 l 1113 0 l 782 0 m 853 397 q 780 176 836 271 q 635 28 724 81 q 433 -24 547 -24 q 229 29 318 -24 q 91 177 140 82 q 42 397 42 272 q 91 620 42 525 q 229 767 140 715 q 433 819 318 819 q 635 768 547 819 q 781 622 724 717 q 853 397 838 526 m 363 397 q 384 304 363 344 q 444 240 406 264 q 533 217 483 217 q 632 240 585 217 q 715 304 679 264 q 768 397 751 344 q 715 491 751 450 q 632 556 679 532 q 533 579 585 579 q 444 556 483 579 q 384 491 406 532 q 363 397 363 450 m 982 29 l 1081 17 l 1081 0 l 1113 0 q 1024 -28 1061 -12 q 967 -60 986 -44 q 947 -92 947 -75 q 1032 -129 947 -129 q 1075 -126 1056 -129 q 1113 -119 1094 -124 l 1113 -281 q 1049 -294 1094 -287 q 953 -301 1003 -301 q 788 -264 850 -301 q 725 -167 725 -226 q 790 -49 725 -97 q 982 29 854 -1 z "},"ẚ":{"ha":1165,"x_min":42,"x_max":1113,"o":"m 782 0 l 744 283 l 783 397 l 744 510 l 782 796 l 1113 796 l 1060 399 l 1113 0 l 782 0 m 853 397 q 780 176 836 271 q 635 28 724 81 q 433 -24 547 -24 q 229 29 318 -24 q 91 177 140 82 q 42 397 42 272 q 91 620 42 525 q 229 767 140 715 q 433 819 318 819 q 635 768 547 819 q 781 622 724 717 q 853 397 838 526 m 363 397 q 384 304 363 344 q 444 240 406 264 q 533 217 483 217 q 632 240 585 217 q 715 304 679 264 q 768 397 751 344 q 715 491 751 450 q 632 556 679 532 q 533 579 585 579 q 444 556 483 579 q 384 491 406 532 q 363 397 363 450 m 583 857 l 583 981 q 660 1001 633 981 q 688 1057 688 1022 q 660 1115 688 1094 q 583 1135 633 1135 l 583 1258 q 788 1205 714 1258 q 861 1057 861 1151 q 788 910 861 964 q 583 857 714 857 z "},"å":{"ha":1165,"x_min":42,"x_max":1113,"o":"m 782 0 l 744 283 l 783 397 l 744 510 l 782 796 l 1113 796 l 1060 399 l 1113 0 l 782 0 m 853 397 q 780 176 836 271 q 635 28 724 81 q 433 -24 547 -24 q 229 29 318 -24 q 91 177 140 82 q 42 397 42 272 q 91 620 42 525 q 229 767 140 715 q 433 819 318 819 q 635 768 547 819 q 781 622 724 717 q 853 397 838 526 m 363 397 q 384 304 363 344 q 444 240 406 264 q 533 217 483 217 q 632 240 585 217 q 715 304 679 264 q 768 397 751 344 q 715 491 751 450 q 632 556 679 532 q 533 579 585 579 q 444 556 483 579 q 384 491 406 532 q 363 397 363 450 m 583 857 q 381 910 454 857 q 307 1058 307 964 q 381 1205 307 1151 q 583 1258 454 1258 q 788 1205 714 1258 q 861 1058 861 1151 q 788 910 861 964 q 583 857 714 857 m 583 981 q 660 1001 633 981 q 688 1058 688 1022 q 660 1115 688 1094 q 585 1135 633 1135 q 508 1115 536 1135 q 481 1058 481 1094 q 508 1001 481 1022 q 583 981 536 981 z "},"ǻ":{"ha":1165,"x_min":42,"x_max":1113,"o":"m 560 1499 l 843 1499 l 692 1228 l 463 1228 l 560 1499 m 782 0 l 744 283 l 783 397 l 744 510 l 782 796 l 1113 796 l 1060 399 l 1113 0 l 782 0 m 853 397 q 780 176 836 271 q 635 28 724 81 q 433 -24 547 -24 q 229 29 318 -24 q 91 177 140 82 q 42 397 42 272 q 91 620 42 525 q 229 767 140 715 q 433 819 318 819 q 635 768 547 819 q 781 622 724 717 q 853 397 838 526 m 363 397 q 384 304 363 344 q 444 240 406 264 q 533 217 483 217 q 632 240 585 217 q 715 304 679 264 q 768 397 751 344 q 715 491 751 450 q 632 556 679 532 q 533 579 585 579 q 444 556 483 579 q 384 491 406 532 q 363 397 363 450 m 583 857 q 381 910 454 857 q 307 1057 307 964 q 381 1205 307 1151 q 583 1258 454 1258 q 788 1205 714 1258 q 861 1057 861 1151 q 788 910 861 964 q 583 857 714 857 m 583 981 q 660 1001 633 981 q 688 1057 688 1022 q 660 1115 688 1094 q 583 1135 633 1135 q 508 1115 536 1135 q 481 1057 481 1094 q 508 1001 481 1022 q 583 981 536 981 z "},"ḁ":{"ha":1165,"x_min":42,"x_max":1113,"o":"m 782 0 l 744 283 l 783 397 l 744 510 l 782 796 l 1113 796 l 1060 399 l 1113 0 l 782 0 m 853 397 q 780 176 836 271 q 635 28 724 81 q 433 -24 547 -24 q 229 29 318 -24 q 91 177 140 82 q 42 397 42 272 q 91 620 42 525 q 229 767 140 715 q 433 819 318 819 q 635 768 547 819 q 781 622 724 717 q 853 397 838 526 m 363 397 q 384 304 363 344 q 444 240 406 264 q 533 217 483 217 q 632 240 585 217 q 715 304 679 264 q 768 397 751 344 q 715 491 751 450 q 632 556 679 532 q 533 579 585 579 q 444 556 483 579 q 384 491 406 532 q 363 397 363 450 m 583 -460 q 381 -406 454 -460 q 307 -258 307 -353 q 381 -112 307 -165 q 583 -58 454 -58 q 788 -112 714 -58 q 861 -258 861 -165 q 788 -406 861 -353 q 583 -460 714 -460 m 583 -336 q 660 -315 633 -336 q 688 -258 688 -294 q 660 -202 688 -222 q 585 -182 633 -182 q 508 -202 536 -182 q 481 -258 481 -222 q 508 -315 481 -294 q 583 -336 536 -336 z "}}}
